/* XPM */
static char *result[] = {
/* columns rows colors chars-per-pixel */
"40 40 10 1 ",
"  c black",
". c gray4",
"X c #151515",
"o c gray14",
"O c #2F2F2F",
"+ c #8D1400",
"@ c #E32607",
"# c #F95237",
"$ c #FE8D56",
"% c None",
/* pixels */
"%%%%%%%%%%%%%%%%%%%%%%%%%%%%%%%%%%%%%%%%",
"%%%%%%%%%%%%%%%%%%%%%%%%%%%%%%%%%%%%%%%%",
"%%%%%%%%%%%%%%%%%%%%%%%%%%%%%%%%%%%%%%%%",
"%%%%%%%%%%%%%%%%%%%%%%%%%%%%%%%%%%%%%%%%",
"%%%%%%%%%%%%%%%%%%%%%%%%%%%%%%%%%%%%%%%%",
"%%%%%%%%%%%%%%%%%%%%%%%%%%%%%%%%%%%%%%%%",
"%%%%%%%%%%%%%%%%%%%%%%%%%%%%%%%%%%%%%%%%",
"%%%%%%%%%%%%%%%%%%%%%%%%%%%%%%%%%%%%%%%%",
"%%%%%%%%%%%%%%%%%%%%%%%%%%%%%%%%%%%%%%%%",
"%%%%%%%%%%%%%%%%%%%%%%%%%%%%%%%%%%%%%%%%",
"%%%%%%%%%%%%%%%%%%%%%%%%%%%%%%%%%%%%%%%%",
"%%%%%%%%%%%%%%%%%%%%%%%%%% %%%% %%%%%%%%",
"%%%%%%%%%%%%%%%%%%%%%%%%%% %%%% %%%%%%%%",
"%%%%%%%%%%%%%%%%%%%%%%%%%%% %%% %%%%%%%%",
"%%%%%%%%%%%%%%%%%%%%      % %%% %%%%%%%%",
"%%%%%%%%%%%%%%%%%%  $$OO@$  %%% %%%%%%%%",
"%%%%%%%%%         OOO#ooO@#.   %%%%%%%%%",
"%%%%%%%  OO$OOO$OO$oo@#oo@o.O$. %%%%%%%%",
"%%%%%% $ooO#ooO#oo#ooo@@o@Xo.O.$ %%%%%%%",
"%%%%% #ooo@#oo@#oo#oX@++X@XooooX %%%%%%%",
"%%%%% @oo@@oo@@ooo@#X+ + +@XoooX %%%%%%%",
"%%%%% +XX@+XX@+@XX+@. % % +XXXX+ %%%%%%%",
"%%%%%% ..+ +.+ +.. + % % % .... %%%%%%%%",
"%%%%%%% . % . % . % % %%%%%    %%%%%%%%%",
"%%%%%%%% % % % % % %%%%%%%%%%%%%%%%%%%%%",
"%%%%%%%%%%%%%%%%%%%%%%%%%%%%%%%%%%%%%%%%",
"%%%%%%%%%%%%%%%%%%%%%%%%%%%%%%%%%%%%%%%%",
"%%%%%%%%%%%%%%%%%%%%%%%%%%%%%%%%%%%%%%%%",
"%%%%%%%%%%%%%%%%%%%%%%%%%%%%%%%%%%%%%%%%",
"%%%%%%%%%%%%%%%%%%%%%%%%%%%%%%%%%%%%%%%%",
"%%%%%%%%%%%%%%%%%%%%%%%%%%%%%%%%%%%%%%%%",
"%%%%%%%%%%%%%%%%%%%%%%%%%%%%%%%%%%%%%%%%",
"%%%%%%%%%%%%%%%%%%%%%%%%%%%%%%%%%%%%%%%%",
"%%%%%%%%%%%%%%%%%%%%%%%%%%%%%%%%%%%%%%%%",
"%%%%%%%%%%%%%%%%%%%%%%%%%%%%%%%%%%%%%%%%",
"%%%%%%%%%%%%%%%%%%%%%%%%%%%%%%%%%%%%%%%%",
"%%%%%%%%%%%%%%%%%%%%%%%%%%%%%%%%%%%%%%%%",
"%%%%%%%%%%%%%%%%%%%%%%%%%%%%%%%%%%%%%%%%",
"%%%%%%%%%%%%%%%%%%%%%%%%%%%%%%%%%%%%%%%%",
"%%%%%%%%%%%%%%%%%%%%%%%%%%%%%%%%%%%%%%%%"
};
