/* XPM */
static char *result[] = {
/* columns rows colors chars-per-pixel */
"40 40 28 1 ",
"  c black",
". c #010101",
"X c #020202",
"o c #080100",
"O c gray4",
"+ c #0B0B0B",
"@ c #151515",
"# c #300700",
"$ c #330700",
"% c gray14",
"& c #252525",
"* c #2F2F2F",
"= c #8A1501",
"- c #8D1400",
"; c #B11F08",
": c #9C2916",
"> c #9F2916",
", c #C52409",
"< c #E32607",
"1 c #DD4C35",
"2 c #EC4E35",
"3 c #F74E32",
"4 c #F95237",
"5 c #ED7949",
"6 c #FC7A4C",
"7 c #EF8653",
"8 c #FE8D56",
"9 c None",
/* pixels */
"9999999999999999999999999999999999999999",
"9999999999999999999999999999999999999999",
"9999999999999999999999999999999999999999",
"9999999999999999999999999999999999999999",
"9999999999999999999999999999999999999999",
"9999999999999999999999999999999999999999",
"9999999999999999999999999999999999999999",
"9999999999999999999999999999999999999999",
"9999999999999999999999999999999999999999",
"9999999999999999999999999999999999999999",
"9999999999999999999999999999999999999999",
"9999999999999999999999999999999999999999",
"99999999999999999999999999 9999 99999999",
"99999999999999999999999999 9999 99999999",
"99999999999      9999999999 999 99999999",
"999999999  88**<8  99999999 999 99999999",
"9999999 +***4%%*<*        9 999 99999999",
"999999 6%8%%<4%%<%%*<**>7<.O   999999999",
"99999 31%4%%%<<%<@%*<**:5<<O*8O 99999999",
"99999 <%%4%@<--@<@%%<%*&<<%%O*O8 9999999",
"99999 -@@<4@-#$o-<<%<@%%<<@%%%%@ 9999999",
"999999 -O-<O 9 9X--@<@%%<<@@%%%@ 9999999",
"9999999 O - 9 9 9 $o-<@2O=<@@@@- 9999999",
"99999999 9 9 999 9 9X-@; ,-OOOO 99999999",
"999999999 9999999 9 9 9 9O     999999999",
"9999999999999999999999999999999999999999",
"9999999999999999999999999999999999999999",
"9999999999999999999999999999999999999999",
"9999999999999999999999999999999999999999",
"9999999999999999999999999999999999999999",
"9999999999999999999999999999999999999999",
"9999999999999999999999999999999999999999",
"9999999999999999999999999999999999999999",
"9999999999999999999999999999999999999999",
"9999999999999999999999999999999999999999",
"9999999999999999999999999999999999999999",
"9999999999999999999999999999999999999999",
"9999999999999999999999999999999999999999",
"9999999999999999999999999999999999999999",
"9999999999999999999999999999999999999999"
};
