/* XPM */
static char *result[] = {
/* columns rows colors chars-per-pixel */
"40 40 27 1 ",
"  c black",
". c #020202",
"X c gray2",
"o c #080100",
"O c gray4",
"+ c #0B0B0B",
"@ c #151515",
"# c #300700",
"$ c #330700",
"% c gray14",
"& c #252525",
"* c #2F2F2F",
"= c #7B1100",
"- c #8A1501",
"; c #8D1400",
": c #B11F08",
"> c #9F2916",
", c #C62409",
"< c #E32607",
"1 c #DD4C35",
"2 c #EC4E35",
"3 c #F74E32",
"4 c #F95237",
"5 c #FC7A4C",
"6 c #EF8653",
"7 c #FE8D56",
"8 c None",
/* pixels */
"8888888888888888888888888888888888888888",
"8888888888888888888888888888888888888888",
"8888888888888888888888888888888888888888",
"8888888888888888888888888888888888888888",
"8888888888888888888888888888888888888888",
"8888888888888888888888888888888888888888",
"8888888888888888888888888888888888888888",
"8888888888888888888888888888888888888888",
"8888888888888888888888888888888888888888",
"8888888888888888888888888888888888888888",
"8888888888888888888888888888888888888888",
"8888888888888888888888888888888888888888",
"88888888888888888888888888 8888 88888888",
"88888888888888888888888888 8888 88888888",
"8888888888888888      88888 888 88888888",
"88888888888888  77**<7  888 888 88888888",
"888888888     ***4%%*<**    888 88888888",
"8888888 +**7**7%%<4%%<%*>6<O   888888888",
"888888 5%%*4%%4%%%<<%<@%&<<O*7O 88888888",
"88888 31%%<4%%4%@<;;@<@%%<<%O*O7 8888888",
"88888 <%%<<%%%<4@;#$o;<@%<<%%%%@ 8888888",
"88888 ;@@<;<@@;<O 8  .;@2<-@%%%@ 8888888",
"888888 ;O; ;OO ; 8 8   X:;,@@@@; 8888888",
"8888888 O 8 O 8 8 8888 8 O=OOOO 88888888",
"88888888 8 8 8 88888888 8 8    888888888",
"8888888888888888888888888888888888888888",
"8888888888888888888888888888888888888888",
"8888888888888888888888888888888888888888",
"8888888888888888888888888888888888888888",
"8888888888888888888888888888888888888888",
"8888888888888888888888888888888888888888",
"8888888888888888888888888888888888888888",
"8888888888888888888888888888888888888888",
"8888888888888888888888888888888888888888",
"8888888888888888888888888888888888888888",
"8888888888888888888888888888888888888888",
"8888888888888888888888888888888888888888",
"8888888888888888888888888888888888888888",
"8888888888888888888888888888888888888888",
"8888888888888888888888888888888888888888"
};
