/* XPM */
static char *result[] = {
/* columns rows colors chars-per-pixel */
"40 40 3 1 ",
"  c #282827",
". c #F2F7F6",
"X c None",
/* pixels */
"XXXXXXXXXXXXXXXXXXXXXXXXXXXXXXXXXXXXXXXX",
"XXXXXXXXXXXXXXXXXXXXXXXXXXXXXXXXXXXXXXXX",
"XXXXXXXXXXXXXXXXXXXXXXXXXXXXXXXXXXXXXXXX",
"XXXXXXXXXXXXXXXXXXXXXXXXXXXXXXXXXXXXXXXX",
"XXXXXXXXXXXXXXXXXXXXXXXXXXXXXXXXXXXXXXXX",
"XXXXXXXXXXXXXXXXXXXXXXXXXXXXXXXXXXXXXXXX",
"XXXXXXXXXXXXXXXXXXXXXXXXXXXXXXXXXXXXXXXX",
"XXXXXXXXXXXXXXXXXXXXXXXXXXXXXXXXXXXXXXXX",
"XXXXXXXXXXXXXXXXXXXXXXXXXXXXXXXXXXXXXXXX",
"XXXXXXXXXXXXXXXXXXXXXXXXXXXXXXXXXXXXXXXX",
"XXXXXXXXXXXXXXXXXXXXXXXXXXXXXXXXXXXXXXXX",
"XXXXXXXXXXXXXXXXXXXXXXXXXXXXXXXXXXXXXXXX",
"XXXXXXXXXXXXXXXXXXXXXXXXXXXXXXXXXXXXXXXX",
"XXXXXXXXXXXXXXXXXXXXXXXXXXXXXXXXXXXXXXXX",
"XXXXXXXXXXXXXXXXXXXXXXXXXXXXXXXXXXXXXXXX",
"XXXXXXXXXXXXXXXXXXXXXXXXXXXXXXXXXXXXXXXX",
"XXXXXXXXXXXXXXXXXX    XXXXXXXXXXXXXXXXXX",
"XXXXXXXXXXXXXXXX        XXXXXXXXXXXXXXXX",
"XXXXXXXXXXXXXXXX        XXXXXXXXXXXXXXXX",
"XXXXXXXXXXXXXXXX        XXXXXXXXXXXXXXXX",
"XXXXXXXXXXXXXXX          XXXXXXXXXXXXXXX",
"XXXXXXXXXXXXXX    .  .    XXXXXXXXXXXXXX",
"XXXXXXXXXXXXX   X      X   XXXXXXXXXXXXX",
"XXXXXXXXXXXX   XXX    XXX   XXXXXXXXXXXX",
"XXXXXXXXXXX   XXXXXXXXXXXX   XXXXXXXXXXX",
"XXXXXXXXXX   XXXXXXXXXXXXXX   XXXXXXXXXX",
"XXXXXXXXXX   XXXXXXXXXXXXXX   XXXXXXXXXX",
"XXXXXXXXXX   XXXXXXXXXXXXXX   XXXXXXXXXX",
"XXXXXXXXXX   XXXXXXXXXXXXXX   XXXXXXXXXX",
"XXXXXXXXXX   XXXXXXXXXXXXXX   XXXXXXXXXX",
"XXXXXXXXXXX   XXXXXXXXXXXX   XXXXXXXXXXX",
"XXXXXXXXXXX   XXXXXXXXXXXX   XXXXXXXXXXX",
"XXXXXXXXXXXX  XXXXXXXXXXXX  XXXXXXXXXXXX",
"XXXXXXXXXXXX  XXXXXXXXXXXX  XXXXXXXXXXXX",
"XXXXXXXXXXXXX XXXXXXXXXXXX XXXXXXXXXXXXX",
"XXXXXXXXXXXXXXXXXXXXXXXXXXXXXXXXXXXXXXXX",
"XXXXXXXXXXXXXXXXXXXXXXXXXXXXXXXXXXXXXXXX",
"XXXXXXXXXXXXXXXXXXXXXXXXXXXXXXXXXXXXXXXX",
"XXXXXXXXXXXXXXXXXXXXXXXXXXXXXXXXXXXXXXXX",
"XXXXXXXXXXXXXXXXXXXXXXXXXXXXXXXXXXXXXXXX"
};
