/* XPM */
static char *result[] = {
/* columns rows colors chars-per-pixel */
"40 40 3 1 ",
"  c #282827",
". c #F2F7F6",
"X c None",
/* pixels */
"XXXXXXXXXXXXXXXXXXXXXXXXXXXXXXXXXXXXXXXX",
"XXXXXXXXXXXXXXXXXXXXXXXXXXXXXXXXXXXXXXXX",
"XXXXXXXXXXXXXXXXXXXXXXXXXXXXXXXXXXXXXXXX",
"XXXXXXXXXXXXXXXXXXXXXXXXXXXXXXXXXXXXXXXX",
"XXXXXXXXXXXXXXXXXXXXXXXXXXXXXXXXXXXXXXXX",
"XXXXXXXXXXXXXXXXXXXXXXXXXXXXXXXXXXXXXXXX",
"XXXXXXXXXXXXXXXXXXXXXXXXXXXXXXXXXXXXXXXX",
"XXXXXXXXXXXXXXXXXXXXXXXXXXXXXXXXXXXXXXXX",
"XXXXXXXXXXXXXXXXXXXXXXXXXXXXXXXXXXXXXXXX",
"XXXXXXXXXXXXXXXXXXXXXXXXX   XXXXXXXXXXXX",
"XXXXXXXXXXXX   XXXXXXXXX     XXXXXXXXXXX",
"XXXXXXXXXXX     XXXXXXX       XXXXXXXXXX",
"XXXXXXXXXX       XXXXX   XXX XXXXXXXXXXX",
"XXXXXXXXXXX XXX   XXXX   XXXXXXXXXXXXXXX",
"XXXXXXXXXXXXXXXX   XX   XXXXXXXXXXXXXXXX",
"XXXXXXXXXXXXXXXXX   X   XXXXXXXXXXXXXXXX",
"XXXXXXXXXXXXXXXXX      XXXXXXXXXXXXXXXXX",
"XXXXXXXXXXXXXXXXX      XXXXXXXXXXXXXXXXX",
"XXXXXXXXXXXXXXXXX      XXXXXXXXXXXXXXXXX",
"XXXXXXXXXXXXXXXXX      XXXXXXXXXXXXXXXXX",
"XXXXXXXXXXXXXXXXX     XXXXXXXXXXXXXXXXXX",
"XXXXXXXXXXXXXXXX        XXXXXXXXXXXXXXXX",
"XXXXXXXXXXXXXXXX        XXXXXXXXXXXXXXXX",
"XXXXXXXXXXXXXXXX        XXXXXXXXXXXXXXXX",
"XXXXXXXXXXXXXXXX        XXXXXXXXXXXXXXXX",
"XXXXXXXXXXXXXXXX  .  .  XXXXXXXXXXXXXXXX",
"XXXXXXXXXXXXXXXXX      XXXXXXXXXXXXXXXXX",
"XXXXXXXXXXXXXXXXXX    XXXXXXXXXXXXXXXXXX",
"XXXXXXXXXXXXXXXXXXXXXXXXXXXXXXXXXXXXXXXX",
"XXXXXXXXXXXXXXXXXXXXXXXXXXXXXXXXXXXXXXXX",
"XXXXXXXXXXXXXXXXXXXXXXXXXXXXXXXXXXXXXXXX",
"XXXXXXXXXXXXXXXXXXXXXXXXXXXXXXXXXXXXXXXX",
"XXXXXXXXXXXXXXXXXXXXXXXXXXXXXXXXXXXXXXXX",
"XXXXXXXXXXXXXXXXXXXXXXXXXXXXXXXXXXXXXXXX",
"XXXXXXXXXXXXXXXXXXXXXXXXXXXXXXXXXXXXXXXX",
"XXXXXXXXXXXXXXXXXXXXXXXXXXXXXXXXXXXXXXXX",
"XXXXXXXXXXXXXXXXXXXXXXXXXXXXXXXXXXXXXXXX",
"XXXXXXXXXXXXXXXXXXXXXXXXXXXXXXXXXXXXXXXX",
"XXXXXXXXXXXXXXXXXXXXXXXXXXXXXXXXXXXXXXXX",
"XXXXXXXXXXXXXXXXXXXXXXXXXXXXXXXXXXXXXXXX"
};
