/* XPM */
static char *result[] = {
/* columns rows colors chars-per-pixel */
"40 40 3 1 ",
"  c #282827",
". c #F2F7F6",
"X c None",
/* pixels */
"XXXXXXXXXXXXXXXXXXXXXXXXXXXXXXXXXXXXXXXX",
"XXXXXXXXXXXXXXXXXXXXXXXXXXXXXXXXXXXXXXXX",
"XXXXXXXXXXXXXXXXXXXXXXXXXXXXXXXXXXXXXXXX",
"XXXXXXXXXXXXXXXXXXXXXXXXXXXXXXXXXXXXXXXX",
"XXXXXXXXXXXXXXXXXXXXXXXXXXXXXXXXXXXXXXXX",
"XXXXXXXXXXXXXXXXXXXXXXXXXXXXXXXXXXXXXXXX",
"XXXXXXXXXXXXXXXXXXXXXXXXXXXXXXXXXXXXXXXX",
"XXXXXXXXXXXXXXXXXXXXXXXXXXXXXXXXXXXXXXXX",
"XXXXXXXXXXXXXXXXXXXXXXXXXXXXXXXXXXXXXXXX",
"XXXXXXXXXXXXXXXXXXXXXXXXXXXXXXXXXXXXXXXX",
"XXXXXXXXXXXXXXXXXXXXXXXXXXXXXXXXXXXXXXXX",
"XXXXXXXXXXXXXXXXXXXXXXXXXXXXXXXXXXXXXXXX",
"XXXXXXXXXXXXXXXXXXXXXXXXXXXXXXXXXXXXXXXX",
"XXXXXXXXXXXXXXXXXXXXXXXXXXXXXXXXXXXXXXXX",
"XXXXXXXXXXXXXXXXXXXXXXXXXXXXXXXXXXXXXXXX",
"XXXXXXXXXXXXXXXXXXXXXXXXXXXXXXXXXXXXXXXX",
"XXXXXXXXXXXXXXXXXXXXXXXXXXXXXXXXXXXXXXXX",
"XXXXXXXXXXXXXXXXXX    XXXXXXXXXXXXXXXXXX",
"XXXXXXXXXXXXXXXX        XXXXXXXXXXXXXXXX",
"XXXXXXXXXXXXXXX          XXXXXXXXXXXXXXX",
"XXXXXXXXXXXXXX            XXXXXXXXXXXXXX",
"XXXXXXXXXXXXXX            XXXXXXXXXXXXXX",
"XXXXXXXXXXXXXX    .  .    XXXXXXXXXXXXXX",
"XXXXXXXXXXXXX              XXXXXXXXXXXXX",
"XXXXXXXXXXXXX              XXXXXXXXXXXXX",
"XXXXXXXXXXXXX     XXXXX    XXXXXXXXXXXXX",
"XXXXXXXXXXXXXX   XXXXXXX   XXXXXXXXXXXXX",
"XXXXXXXXXXXXXX   XXXXXXX   XXXXXXXXXXXXX",
"XXXXXXXXXXXXXX   XXXXXXX  XXXXXXXXXXXXXX",
"XXXXXXXXXXXXXX    XXXXX   XXXXXXXXXXXXXX",
"XXXXXXXXXXXXXXX    XXX    XXXXXXXXXXXXXX",
"XXXXXXXXXXXXXXX    XX    XXXXXXXXXXXXXXX",
"XXXXXXXXXXXXXXXX   XX   XXXXXXXXXXXXXXXX",
"XXXXXXXXXXXXXXXXX  XX  XXXXXXXXXXXXXXXXX",
"XXXXXXXXXXXXXXXXXX XX XXXXXXXXXXXXXXXXXX",
"XXXXXXXXXXXXXXXXXXXXXXXXXXXXXXXXXXXXXXXX",
"XXXXXXXXXXXXXXXXXXXXXXXXXXXXXXXXXXXXXXXX",
"XXXXXXXXXXXXXXXXXXXXXXXXXXXXXXXXXXXXXXXX",
"XXXXXXXXXXXXXXXXXXXXXXXXXXXXXXXXXXXXXXXX",
"XXXXXXXXXXXXXXXXXXXXXXXXXXXXXXXXXXXXXXXX"
};
