/* XPM */
static char *result[] = {
/* columns rows colors chars-per-pixel */
"40 40 3 1 ",
"  c #282827",
". c #F2F7F6",
"X c None",
/* pixels */
"XXXXXXXXXXXXXXXXXXXXXXXXXXXXXXXXXXXXXXXX",
"XXXXXXXXXXXXXXXXXXXXXXXXXXXXXXXXXXXXXXXX",
"XXXXXXXXXXXXXXXXXXXXXXXXXXXXXXXXXXXXXXXX",
"XXXXXXXXXXXXXXXXXXXXXXXXXXXXXXXXXXXXXXXX",
"XXXXXXXXXXXXXXXXXXXXXXXXXXXXXXXXXXXXXXXX",
"XXXXXXXXXXXXXXXXXXXXXXXXXXXXXXXXXXXXXXXX",
"XXXXXXXXXXXXXXXXXXXXXXXXXXXXXXXXXXXXXXXX",
"XXXXXXXXXXXXXXXXXXXXXXXXXXXXXXXXXXXXXXXX",
"XXXXXXXXXXXXXXXXXXXXXXXXXXXXXXXXXXXXXXXX",
"XXXXXXXXXXXXXXXXXXXXXXXXXXXXXXXXXXXXXXXX",
"XXXXXXXXXXXXXXXXXXXXXXXXXXXXXXXXXXXXXXXX",
"XXXXXXXXXXXXXXXXXXXXXXXXXXXXXXXXXXXXXXXX",
"XXXXXXXXXXXXXXXXXXXXXXXXXXX XXXXXXXXXXXX",
"XXXXXXXXXXXXXXXXXXXXXXXXXX   XXXXXXXXXXX",
"XXXXXXXXXXX  XXXXXXXXXXXX     XXXXXXXXXX",
"XXXXXXXXXX     XXXXXXXXX   X   XXXXXXXXX",
"XXXXXXXXX       XXXXXXX   XXX   XXXXXXXX",
"XXXXXXXX   XX    XXXXX   XXXXXX  XXXXXXX",
"XXXXXXX   XXXXX         XXXXXXXX XXXXXXX",
"XXXXXXX   XXXXXX        XXXXXXXXXXXXXXXX",
"XXXXXXXX XXXXXXX        XXXXXXXXXXXXXXXX",
"XXXXXXXXXXXXXXXX        XXXXXXXXXXXXXXXX",
"XXXXXXXXXXXXXXXX        XXXXXXXXXXXXXXXX",
"XXXXXXXXXXXXXXXX  .  .  XXXXXXXXXXXXXXXX",
"XXXXXXXXXXXXXXXXX      XXXXXXXXXXXXXXXXX",
"XXXXXXXXXXXXXXXXXX    XXXXXXXXXXXXXXXXXX",
"XXXXXXXXXXXXXXXXXXXXXXXXXXXXXXXXXXXXXXXX",
"XXXXXXXXXXXXXXXXXXXXXXXXXXXXXXXXXXXXXXXX",
"XXXXXXXXXXXXXXXXXXXXXXXXXXXXXXXXXXXXXXXX",
"XXXXXXXXXXXXXXXXXXXXXXXXXXXXXXXXXXXXXXXX",
"XXXXXXXXXXXXXXXXXXXXXXXXXXXXXXXXXXXXXXXX",
"XXXXXXXXXXXXXXXXXXXXXXXXXXXXXXXXXXXXXXXX",
"XXXXXXXXXXXXXXXXXXXXXXXXXXXXXXXXXXXXXXXX",
"XXXXXXXXXXXXXXXXXXXXXXXXXXXXXXXXXXXXXXXX",
"XXXXXXXXXXXXXXXXXXXXXXXXXXXXXXXXXXXXXXXX",
"XXXXXXXXXXXXXXXXXXXXXXXXXXXXXXXXXXXXXXXX",
"XXXXXXXXXXXXXXXXXXXXXXXXXXXXXXXXXXXXXXXX",
"XXXXXXXXXXXXXXXXXXXXXXXXXXXXXXXXXXXXXXXX",
"XXXXXXXXXXXXXXXXXXXXXXXXXXXXXXXXXXXXXXXX",
"XXXXXXXXXXXXXXXXXXXXXXXXXXXXXXXXXXXXXXXX"
};
