/* XPM */
static char *result[] = {
/* columns rows colors chars-per-pixel */
"40 40 22 1 ",
"  c #071821",
". c #142935",
"X c #1C4039",
"o c #1D423A",
"O c #1C3442",
"+ c #306850",
"@ c #366E52",
"# c #3D7554",
"$ c #477F57",
"% c #4B8459",
"& c #5A935E",
"* c #5D965F",
"= c #659F61",
"- c #6BA463",
"; c #85BF6C",
": c #86C06C",
"> c #87C06D",
", c #8AC270",
"< c #A7D590",
"1 c #B4DD9F",
"2 c #D3F0C1",
"3 c #E0F8CF",
/* pixels */
"::::::::::::::::::::::::::::::::::::::::",
"::::::::::::::::::::::::::::::::::::::::",
":::::::::::+:::::::3:::::::3:::::::::3::",
":::::::::::;::::::::::::::::::::::::3+3:",
"::::::::::::::::::::::::::::::::::::+3::",
"::+:::::::+:+:::::::::::::::+:+::::::++:",
"::+::::::++ ::::+++++++++:::: ++:::::+::",
"+:+:@::::+ +:+++++++++++++++:+ +::::::::",
":::::::::+  ++             ++  +::::::::",
":++:::++ +                     + +::::::",
":++::::         XXXXXXXXX        :::::::",
"::+:::+      XXXXXXXXXXXXXXX     +:::3::",
": +:::+    XXXXXXXXXXXXXXXXXXX   +:::+ :",
":: ++:+   XXXXXXXXXXXXXXXXXXXXX  +:++ ::",
"::: +++   XXXXXXXXXXXXXXXXXXXXX  +++ #+:",
":::     XXXXXXXXXXXXXXXXXXXXXXXX     $::",
":::::   XXXXX+++++++++++++++XXXX   :::::",
"::=:+   XXXX+++++++++++++++++XXX   +::::",
":+::+  oXXX+++++++++++++++++++XXX  +::+:",
":+: +  XXX+++++++++++++++++++++XX  + :::",
"::::   ++++++++++++++++++++++++++   ::::",
"::::+  ++++++++++++++++++++++++++  +::::",
"::::+  ++++++++++++++++++++++++++  +::::",
"::::+   ++++++++++++++++++++++++   +::::",
":::::+  ++++++++++++++++++++++++  +:::::",
":::+++    +++++++++++++++++++++   +++:::",
":::+      +++++++++++++++++++++     +:3:",
"::+  +    +++++++++++++++++++++   +  +::",
"::+ +:++  O+++++++++++++++++++.  +:+ +::",
"++ :::::     +++++++++++++++     :::: ++",
":3*:::++:        +++++++        :+::::::",
":+2::::::+  +               +  +::::::::",
"::+-::::::++  ++         ++  ++:::::::::",
"::+::::,:::+:+  +++++++++  +:+:::::<::::",
":::::&>::::::++ +++++++++ ++::::::133:::",
"::::::++:::::::+:::::::::+::::::::3:3:::",
"::::::+:::::::::::::::::::::::::::::::::",
"::::+:::::::%::::::::+::::::::::::::::3:",
":::::::::::+++:::::::+:::::::::::::::3::",
"::::::::::::::::::::::::::::::::::::::::"
};
