/* XPM */
static char *result[] = {
/* columns rows colors chars-per-pixel */
"40 40 27 1 ",
"  c #071821",
". c #142935",
"X c #1C3442",
"o c #284355",
"O c #294557",
"+ c #2A4658",
"@ c #2A485A",
"# c #2B495A",
"$ c #2B495B",
"% c #2C4B5C",
"& c #306850",
"* c #3C7454",
"= c #35586C",
"- c #3B5F74",
"; c #3D6278",
": c #488058",
"> c #58905D",
", c #5E975F",
"< c #6FA965",
"1 c #73AC66",
"2 c #79B368",
"3 c #7EB769",
"4 c #86C06C",
"5 c #92C879",
"6 c #9ECF86",
"7 c #C8E9B5",
"8 c #E0F8CF",
/* pixels */
"4444444444444444444444444444444444444444",
"4444444444444444444444444444444444444444",
"44444444444&4444444844444448444444444844",
"4444444444444444444444444444444444448&84",
"444444444444444444444444444444444444&844",
"44&4444444&4&444444444444444&4&444444&&4",
"44&444444&& 4444&&&&&&&&&4444 &&44444&44",
"&4&4*4444& &4&&&&&&&&&&&&&&&4& &44444444",
"444444444&  &&             &&  &44444444",
"4&&444&& &                     & &444444",
"4&&4444         ooooooooo        4444444",
"44&444&      ooooooooooooooo     &444844",
"4 &444&    ooooooooooooooooooo   &444& 4",
"44 &&4&   oo#;;;;;;;;;;;;;;;+oo  &4&& 44",
"444 &&&   o%;;;;;;;;;;;;;;;;;@o  &&& :&4",
"444     OO$;;;;;;;;;;;;;;;;;;;OO     >44",
"44444   ;;;;;;;;;;;;;;;;;;;;;;;;   44444",
"4424&   ;;;;;;;;;;;;;;;;;;;;;;;;   &4444",
"4&44&  ;;;;;;;;;;;;;;;;;;;;;;;;;;  &44&4",
"4&4 &  ;;;;;;;;;;;;;;;;;;;;;;;;;;  & 444",
"4444   ;;;;;;;;;;;;;;;;;;;;;;;;;;   4444",
"4444&  ;;;;;;;;;;;;;;;;;;;;;;;;;;  &4444",
"4444&  ;;;;;;;;;;;;;;;;;;;;;;;;;;  &4444",
"4444&   ;;;;;;;;;;;;;;;;;;;;;;;;   &4444",
"44444&  ;;;;;;;;;;;;;;;;;;;;;;;;  &44444",
"444&&&    ;;;;;;;;;;;;;;;;;;;;;   &&&444",
"444&      ;;;;;;;;;;;;;;;;;;;;;     &484",
"44&  &    -;;;;;;;;;;;;;;;;;;;=   &  &44",
"44& &4&&  X;;;;;;;;;;;;;;;;;;;.  &4& &44",
"&& 44444     ;;;;;;;;;;;;;;;     4444 &&",
"481444&&4        ;;;;;;;        4&444444",
"4&7444444&  &               &  &44444444",
"44&3444444&&  &&         &&  &&444444444",
"44&44444444&4&  &&&&&&&&&  &4&4444454444",
"44444<4444444&& &&&&&&&&& &&444444688444",
"444444&&4444444&444444444&44444444848444",
"444444&444444444444444444444444444444444",
"4444&4444444,44444444&444444444444444484",
"44444444444&&&4444444&444444444444444844",
"4444444444444444444444444444444444444444"
};
