/* XPM */
static char *result[] = {
/* columns rows colors chars-per-pixel */
"40 40 10 1 ",
"  c #17111A",
". c #574622",
"X c #B17855",
"o c #C09D53",
"O c #CF8B61",
"+ c #DEB662",
"@ c #F6AA7B",
"# c #F6CE7B",
"$ c #F8DA9C",
"% c None",
/* pixels */
"%%%%%%%%%%%%%%%%%%%%%%%%%%%%%%%%%%%%%%%%",
"%%%%%%%%%%%%%%%%%%%%%%%%%%%%%%%%%%%%%%%%",
"%%%%%%%%%%%%%%%%%%%%%%%%%%%%%%%%%%%%%%%%",
"%%%%%%%%%%%%%%%%%%%%%%%%%%%%%%%%%%%%%%%%",
"%%%%%%%%%%%%%%%%%%%%%%%%%%%%%%%%%%%%%%%%",
"%%%%%%%%%%  %%%%%%%%%%%%%%%  %%%%%%%%%%%",
"%%%%%%%%%% $ %%%%%%%%%%%%% $ %%%%%%%%%%%",
"%%%%%%%%%% #$ %%%%%%%%%%% +$ %%%%%%%%%%%",
"%%%%%%%%%%% $ %%%%%%%%%%% $ %%%%%%%%%%%%",
"%%%%%%%%%%% $ %%%%%%%%%%% $ %%%%%%%%%%%%",
"%%%%%%%%%%% $ %%%%%%%%%%% $ %%%%%%%%%%%%",
"%%%%%%%%%% o#$  %%%%%%%  +#$ %%%%%%%%%%%",
"%%%%%%%%%% o##$$ %%%%% +###$ %%%%%%%%%%%",
"%%%%%%%%%%% o@#$ %%%%% +### %%%%%%%%%%%%",
"%%%%%%%%%%% o##o+     +o#@@ %%%%%%%%%%%%",
"%%%%%%%%%%% o#o+++++++++oO %%%%%%%%%%%%%",
"%%%%%%%%%%%% o+@@+++++##++ %%%%%%%%%%%%%",
"%%%%%%%%%%% o#@OO@########$ %%%%%%%%%%%%",
"%%%%%%%%%%% o+@OO@####@###$ %%%%%%%%%%%%",
"%%%%%%%%%%% o+#@@#########$ %%%%%%%%%%%%",
"%%%%%%%%%%% o+############$ %%%%%%%%%%%%",
"%%%%%%%%%%% o+############$ %%%%%%%%%%%%",
"%%%%%%%%%%% o+############$ %%%%%%%%%%%%",
"%%%%%%%%%%% o+############$ %%%%%%%%%%%%",
"%%%%%%%%%%% o+##########@#$ %%%%%%%%%%%%",
"%%%%%%%%%%% O+#########@O@$ %%%%%%%%%%%%",
"%%%%%%%%%%% XO##########@#$ %%%%%%%%%%%%",
"%%%%%%%%%%%% X###########$ %%%%%%%%%%%%%",
"%%%%%%%%%%%  O###########$  %%%%%%%%%%%%",
"%%%%%%%%%% o.o############.+ %%%%%%%%%%%",
"%%%%%%%%%% oo.+#########+.o+ %%%%%%%%%%%",
"%%%%%%%%%% oo o+#.###.#+o o+ %%%%%%%%%%%",
"%%%%%%%%%% o % ooooooooo % + %%%%%%%%%%%",
"%%%%%%%%%% o %%         %% + %%%%%%%%%%%",
"%%%%%%%%%%% %%%%%%%%%%%%%%% %%%%%%%%%%%%",
"%%%%%%%%%%%%%%%%%%%%%%%%%%%%%%%%%%%%%%%%",
"%%%%%%%%%%%%%%%%%%%%%%%%%%%%%%%%%%%%%%%%",
"%%%%%%%%%%%%%%%%%%%%%%%%%%%%%%%%%%%%%%%%",
"%%%%%%%%%%%%%%%%%%%%%%%%%%%%%%%%%%%%%%%%",
"%%%%%%%%%%%%%%%%%%%%%%%%%%%%%%%%%%%%%%%%"
};
