/* XPM */
static char *result[] = {
/* columns rows colors chars-per-pixel */
"40 40 3 1 ",
"  c #071821",
". c #306850",
"X c #86C06C",
/* pixels */
"XXXXXXXXXXXXXXXXXXXXXXXXXXXXXXXXXXXXXXXX",
"XXXXXXXXXX XX XX   X X   X XXX XXXXXXXXX",
"XXXXXX  X .  .  ... . ... . X . X  XXXXX",
"XXXXX .. ... .. ... . ......  .. .. XXXX",
"XXX   .............................. XXX",
"XX .................................. XX",
"XX .................................. XX",
"XX  ................................. XX",
"X  ................................... X",
"X  ................................... X",
"X   ................................. XX",
"X .................................... X",
"X .................................... X",
"X  ................................... X",
"X  ................................... X",
"X  ................................... X",
"X   ................................. XX",
"X .................................... X",
"X .................................... X",
"X  ................................... X",
"X   ................................. XX",
"X   ................................. XX",
"X  ................................... X",
"X  ................................... X",
"X .................................... X",
"X  ................................... X",
"X  ................................... X",
"X  ..................................  X",
"X   .................................  X",
"X.    .............................    X",
"X.     ...........................    .X",
"X..    ...........................   ..X",
"XX..    .........................    .XX",
"XX..     . ............... . ...    ..XX",
"XXX...       .  ... . .    .  .    ..XXX",
"XXXX.....                       ....XXXX",
"XXXXXX...                       ...XXXXX",
"XXXXXXX...........................XXXXXX",
"XXXXXXXXX.......................XXXXXXXX",
"XXXXXXXXXXXXXXXXXXXXXXXXXXXXXXXXXXXXXXXX"
};
