/* XPM */
static char *collect_sprite_16[] = {
/* columns rows colors chars-per-pixel */
"32 32 7 1 ",
"  c gray3",
". c #730E0E",
"X c #D61414",
"o c #FA3A3A",
"O c #FF7A7A",
"+ c white",
"@ c None",
/* pixels */
"@@@@@@@@@@@@@@@@@@@@@@@@@@@@@@@@",
"@@@@@@@@@@@@@@@@@@@@@@@@@@@@@@@@",
"@@@@@@@@@@@@@@@@@@@@@@@@@@@@@@@@",
"@@@@@@@@@@@@@@@@@@@@@@@@@@@@@@@@",
"@@@@@@@@@@@@@@@@@@@@@@@@@@@@@@@@",
"@@@@@@@@@@@@@@@@@@@@@@@@@@@@@@@@",
"@@@@@@@@@@@@@@@@@@@@@@@@@@@@@@@@",
"@@@@@@@@@@@@@@@@@@@@@@@@@@@@@@@@",
"@@@@@@@@@@@@@      @@@@@@@@@@@@@",
"@@@@@@@@@@@@ OOOOOO @@@@@@@@@@@@",
"@@@@@@@@@@@ +OOOOOoo @@@@@@@@@@@",
"@@@@@@@@@@ +++OOOOooo @@@@@@@@@@",
"@@@@@@@@@ ++++OOOooooo @@@@@@@@@",
"@@@@@@@@ OO+++ooooXoo.. @@@@@@@@",
"@@@@@@@@ OOOOo++ooo.XX. @@@@@@@@",
"@@@@@@@@ OOOOo++oooXXX. @@@@@@@@",
"@@@@@@@@ OOOOooooooXXX. @@@@@@@@",
"@@@@@@@@ OOOooooooo.XX. @@@@@@@@",
"@@@@@@@@ OoooXoooo..... @@@@@@@@",
"@@@@@@@@@ ooooXXX..... @@@@@@@@@",
"@@@@@@@@@@ oooXXXX... @@@@@@@@@@",
"@@@@@@@@@@@ o.XXXX.. @@@@@@@@@@@",
"@@@@@@@@@@@@ ...... @@@@@@@@@@@@",
"@@@@@@@@@@@@@      @@@@@@@@@@@@@",
"@@@@@@@@@@@@@@@@@@@@@@@@@@@@@@@@",
"@@@@@@@@@@@@@@@@@@@@@@@@@@@@@@@@",
"@@@@@@@@@@@@@@@@@@@@@@@@@@@@@@@@",
"@@@@@@@@@@@@@@@@@@@@@@@@@@@@@@@@",
"@@@@@@@@@@@@@@@@@@@@@@@@@@@@@@@@",
"@@@@@@@@@@@@@@@@@@@@@@@@@@@@@@@@",
"@@@@@@@@@@@@@@@@@@@@@@@@@@@@@@@@",
"@@@@@@@@@@@@@@@@@@@@@@@@@@@@@@@@"
};
