/* XPM */
static char *collect_sprite[] = {
/* columns rows colors chars-per-pixel */
"32 32 7 1 ",
"  c #080606",
". c #9A0B0B",
"X c #FF1010",
"o c #FF2E2E",
"O c #FF6666",
"+ c #FFDCDC",
"@ c None",
/* pixels */
"@@@@@@@@@@            @@@@@@@@@@",
"@@@@@@@@@@            @@@@@@@@@@",
"@@@@@@@@  OOOOOOOOOOOO  @@@@@@@@",
"@@@@@@@@  OOOOOOOOOOOO  @@@@@@@@",
"@@@@@@  ++OOOOOOOOOOoooo  @@@@@@",
"@@@@@@  ++OOOOOOOOOOoooo  @@@@@@",
"@@@@  ++++++OOOOOOOOoooooo  @@@@",
"@@@@  ++++++OOOOOOOOoooooo  @@@@",
"@@  ++++++++OOOOOOoooooooooo  @@",
"@@  ++++++++OOOOOOoooooooooo  @@",
"  OOOO++++++ooooooooXXoooo....  ",
"  OOOO++++++ooooooooXXoooo....  ",
"  OOOOOOOOoo++++oooooo..XXXX..  ",
"  OOOOOOOOoo++++oooooo..XXXX..  ",
"  OOOOOOOOoo++++ooooooXXXXXX..  ",
"  OOOOOOOOoo++++ooooooXXXXXX..  ",
"  OOOOOOOOooooooooooooXXXXXX..  ",
"  OOOOOOOOooooooooooooXXXXXX..  ",
"  OOOOOOoooooooooooooo..XXXX..  ",
"  OOOOOOoooooooooooooo..XXXX..  ",
"  OOooooooXXoooooooo..........  ",
"  OOooooooXXoooooooo..........  ",
"@@  ooooooooXXXXXX..........  @@",
"@@  ooooooooXXXXXX..........  @@",
"@@@@  ooooooXXXXXXXX......  @@@@",
"@@@@  ooooooXXXXXXXX......  @@@@",
"@@@@@@  oo..XXXXXXXX....  @@@@@@",
"@@@@@@  oo..XXXXXXXX....  @@@@@@",
"@@@@@@@@  ............  @@@@@@@@",
"@@@@@@@@  ............  @@@@@@@@",
"@@@@@@@@@@            @@@@@@@@@@",
"@@@@@@@@@@            @@@@@@@@@@"
};
