/* XPM */
static char *result[] = {
/* columns rows colors chars-per-pixel */
"32 32 83 1 ",
"  c black",
". c #010101",
"X c #020202",
"o c #030202",
"O c #020203",
"+ c gray1",
"@ c #050404",
"# c #040504",
"$ c #040405",
"% c #050405",
"& c #040505",
"* c gray2",
"= c #060606",
"- c #070606",
"; c #060706",
": c #070607",
"> c #060707",
", c #070707",
"< c gray3",
"1 c #090808",
"2 c #080809",
"3 c #090909",
"4 c gray4",
"5 c #0B0B0B",
"6 c #0C0B0B",
"7 c #0B0C0B",
"8 c #0C0C0B",
"9 c #0B0B0C",
"0 c #0C0B0C",
"q c #0E0E0E",
"w c #101010",
"e c #111010",
"r c #101110",
"t c #111110",
"y c #101111",
"u c #111111",
"i c #121111",
"p c #111211",
"a c #111112",
"s c #121112",
"d c gray8",
"f c gray9",
"g c #181818",
"h c #1B1A1A",
"j c #1A1B1A",
"k c #1A1A1B",
"l c #1A1B1B",
"z c #1D1D1D",
"x c #1E1E1E",
"c c #212020",
"v c #212120",
"b c #202021",
"n c #212021",
"m c #202121",
"M c #222222",
"N c #232222",
"B c #222322",
"V c #222223",
"C c #232323",
"Z c #242525",
"A c #252525",
"S c gray15",
"D c #272727",
"F c #282727",
"G c #272827",
"H c #282827",
"J c #272728",
"K c #272828",
"L c #282828",
"P c gray16",
"I c #2A2929",
"U c #292A29",
"Y c #2A292A",
"T c #292A2A",
"R c #2B2B2A",
"E c #2B2A2B",
"W c gray17",
"Q c #2C2C2C",
"! c #414141",
"~ c #797979",
"^ c #868686",
"/ c #CDCDCD",
"( c #C0CBDC",
/* pixels */
"!!^3! ggg! ~!!!!!/ !!g!!!!^3! gg",
"gg!3!   ! ~!g!!!!/ ! ggggg!3!   ",
"gg^33!!!  ! gggg!~3 ! gggg^33!!!",
" ^3    3333!   g! zz3!   ^3    3",
"!3  33z^^^^^^^^^^^^^^^^^^3  33z/",
"3z//z3/^^^^^^^^^^^^^^^^^^z//z3/!",
"//!!/z!^^..(.....(.....^^/!!/z!g",
"!!!!!/3^^X(O(XXX(X(XXo(^^!!!!/3!",
"gggggg/^^(+++(+(+++(+(+^^ggggg/ ",
"!   g!!^^&#&%@(*@#*#($#^^   g!!3",
"zz!!!!3^^(-,=(>(,,:(;(:^^z!!!!3z",
"//z  z/^^<(<(<2<(<(<<1(^^/z  z//",
"^^/z /!^^44(44444(44444^^^/z /!!",
"!g^/3!g^^5(8(007(5(689(^^g^/3!gg",
"!!!^3! ^^(qqq(q(qqq(q(q^^!!^3! g",
"ggg!3! ^^uutww(tuwer(uy^^gg!3!  ",
"ggg!3 !^^(api(u(ais(s(p^^gg!3 !!",
"  !^ 33^^d(d(ddd(d(ddd(^^ !^ 33z",
"!!^ 3//^^ff(fffff(fffff^^!^ 3///",
"   3/^!^^g(g(ggg(g(ggg(^^  3/^!!",
"zz33^!g^^(ljj(l(hhj(h(k^^z33^!g!",
"//z3! !^^zzzzz(zzzzz(zz^^/z3! !!",
"!^/3! g^^(xxx(x(xxx(x(x^^^/3! g!",
"!!^3! g^^c(c(vnv(m(ncb(^^!^3! gg",
"!!^3! g^^MN(MVNBB(BCMMN^^!^3! gg",
"gg!3!  ^^A(A(AAZ(A(ZAA(^^g!3!   ",
"gg^33!!^^(SSS(S(SSS(S(S^^g^33!!!",
" ^3    ^^FHGLG(JLHDK(JF^^^3    3",
"!3  33z^^(IUY(I(PUY(U(T^^3  33z/",
"3z//z3/^^R(W(WWW(W(WWE(^^z//z3/!",
"//!!/z!^^QQ(QQQQQ(QQQQQ^^/!!/z!g",
"!!!!!/3^^Q(Q(QQQ(Q(QQQ(^^!!!!/3!"
};
