/* XPM */
static char *result[] = {
/* columns rows colors chars-per-pixel */
"32 32 104 2 ",
"   c #010101",
".  c #020202",
"X  c #030202",
"o  c #020203",
"O  c #030203",
"+  c gray1",
"@  c #050404",
"#  c #040504",
"$  c #040405",
"%  c #050405",
"&  c #040505",
"*  c gray2",
"=  c #060606",
"-  c #070606",
";  c #060706",
":  c #070706",
">  c #070607",
",  c #060707",
"<  c #070707",
"1  c gray3",
"2  c #090808",
"3  c #080809",
"4  c #080909",
"5  c gray4",
"6  c #0B0B0B",
"7  c #0C0B0B",
"8  c #0B0C0B",
"9  c #0C0C0B",
"0  c #0B0B0C",
"q  c #0C0B0C",
"w  c #0C0C0C",
"e  c #0E0E0E",
"r  c #101010",
"t  c #111010",
"y  c #101110",
"u  c #111110",
"i  c #101011",
"p  c #111011",
"a  c #101111",
"s  c #111111",
"d  c #121111",
"f  c #111211",
"g  c #121211",
"h  c #111112",
"j  c #121112",
"k  c gray7",
"l  c gray8",
"z  c gray9",
"x  c #181818",
"c  c gray10",
"v  c #1B1A1A",
"b  c #1A1B1A",
"n  c #1A1A1B",
"m  c #1A1B1B",
"M  c #1B1B1B",
"N  c gray11",
"B  c #1D1D1D",
"V  c #1E1E1E",
"C  c #202020",
"Z  c #212020",
"A  c #202120",
"S  c #212120",
"D  c #202021",
"F  c #212021",
"G  c #202121",
"H  c gray13",
"J  c #222222",
"K  c #232222",
"L  c #222322",
"P  c #232322",
"I  c #222223",
"U  c #232323",
"Y  c #252524",
"T  c #242525",
"R  c #252525",
"E  c gray15",
"W  c #272727",
"Q  c #282727",
"!  c #272827",
"~  c #282827",
"^  c #272728",
"/  c #282728",
"(  c #272828",
")  c #282828",
"_  c gray16",
"`  c #2A2929",
"'  c #292A29",
"]  c #2A2A29",
"[  c #29292A",
"{  c #2A292A",
"}  c #292A2A",
"|  c #2B2B2A",
" . c #2A2A2B",
".. c #2B2A2B",
"X. c gray17",
"o. c #2C2C2C",
"O. c gray22",
"+. c #505050",
"@. c #626262",
"#. c gray40",
"$. c #777777",
"%. c #868686",
"&. c #898989",
"*. c #989898",
/* pixels */
"$.$.&.+.$.O.@.@.@.$.O.%.$.$.$.$.$.*.O.$.$.@.$.$.$.$.&.+.$.O.@.@.",
"@.@.$.+.$.N O.O.$.O.%.$.@.$.$.$.$.*.O.$.O.@.@.@.@.@.$.+.$.N O.O.",
"@.@.&.+.+.$.$.$.O.O.$.O.@.@.@.@.$.%.+.O.$.N @.@.@.@.&.+.+.$.$.$.",
"O.&.+.O.O.O.O.+.+.+.+.$.O.N O.@.$.O.#.#.+.$.N O.O.&.+.O.O.O.O.+.",
"$.+.O.O.+.+.#.*.*.*.*.#.$.$.$.$.O.#.*.*.+.O.$.$.$.+.O.O.+.+.#.*.",
"+.#.*.*.#.+.*.$.$.$.$.*.#.O.O.O.#.*.$.&.*.+.+.#.+.#.*.*.#.+.*.$.",
"*.*.$.$.*.#.$.@.$.                            +.*.*.$.$.*.#.$.@.",
"$.$.$.$.$.*.+.$.@.. . o O . . . X . . . . X . +.$.$.$.$.$.*.+.$.",
"@.@.@.@.@.@.*.O.$.+ + + + + + + + + + + + + + O.@.@.@.@.@.@.*.O.",
"$.O.N O.@.$.$.+.+.& # & % @ % * @ # * # @ $ # O.$.O.N O.@.$.$.+.",
"#.#.$.$.$.$.+.#.#.; - < = ; , : < < > : ; < > #.#.#.$.$.$.$.+.#.",
"*.*.#.O.O.#.*.*.*.1 1 1 1 1 3 1 1 1 4 1 1 2 1 *.*.*.#.O.O.#.*.*.",
"&.&.*.#.O.*.$.$.$.5 5 5 5 5 5 5 5 5 5 5 5 5 5 &.&.&.*.#.O.*.$.$.",
"$.@.&.*.+.$.@.@.@.6 q 9 8 q q 8 0 6 9 7 9 0 w @.$.@.&.*.+.$.@.@.",
"$.$.$.&.+.$.O.@.@.e e e e e e e e e e e e e e @.$.$.$.&.+.$.O.@.",
"@.@.@.$.+.$.N N O.s s u r r p u s r t y i s a @.@.@.@.$.+.$.N N ",
"@.@.@.$.+.O.$.$.$.k h f d h s f h d j j j g f @.@.@.@.$.+.O.$.$.",
"N O.$.&.O.+.+.#.#.l l l l l l l l l l l l l l O.N O.$.&.O.+.+.#.",
"$.$.&.O.+.*.*.*.*.z z z z z z z z z z z z z z $.$.$.&.O.+.*.*.*.",
"O.O.O.+.*.&.$.$.&.x x x x x x x x x x x x x x O.O.O.O.+.*.&.$.$.",
"#.#.+.+.&.$.@.$.$.M m b b c m b v v b m v v n #.#.#.+.+.&.$.@.$.",
"*.*.#.+.$.O.$.$.$.B B B B B B B B B B B B B B *.*.*.#.+.$.O.$.$.",
"$.&.*.+.$.O.@.$.@.V V V V V V V V V V V V V V $.$.&.*.+.$.O.@.$.",
"$.$.&.+.$.O.@.@.@.Z C Z H S F S D G A F Z D S @.$.$.&.+.$.O.@.@.",
"$.$.&.+.$.O.@.@.@.J K U J I K L L P L U J J K $.$.$.&.+.$.O.@.@.",
"@.@.$.+.$.N O.O.$.R R R R R R T Y R R T R R T @.@.@.$.+.$.N O.O.",
"@.@.&.+.+.$.$.$.O.E E E E E E E E E E E E E E @.@.@.&.+.+.$.$.$.",
"O.&.+.O.O.O.O.+.+.Q ~ ! ) ! / ^ ) ~ W ( W ^ Q O.O.&.+.O.O.O.O.+.",
"$.+.O.O.+.+.#.*.*.[ ` ' { ] ` ' _ ' { [ ' { } $.$.+.O.O.+.+.#.*.",
"+.#.*.*.#.+.*.$.$.| | X. .X.X.X.X.X.| X.X...X.#.+.#.*.*.#.+.*.$.",
"*.*.$.$.*.#.$.@.$.o.o.o.o.o.o.o.o.o.o.o.o.o.o.+.*.*.$.$.*.#.$.@.",
"$.$.$.$.$.*.+.$.@.o.o.o.o.o.o.o.o.o.o.o.o.o.o.+.$.$.$.$.$.*.+.$."
};
