/* XPM */
static char *result[] = {
/* columns rows colors chars-per-pixel */
"32 32 86 1 ",
"  c #010101",
". c #020202",
"X c #030202",
"o c #020203",
"O c gray1",
"+ c #050404",
"@ c #040504",
"# c #040405",
"$ c #050405",
"% c #040505",
"& c gray2",
"* c #060606",
"= c #070606",
"- c #060706",
"; c #070607",
": c #060707",
"> c #070707",
", c gray3",
"< c #090808",
"1 c #080809",
"2 c gray4",
"3 c #0B0B0B",
"4 c #0C0B0B",
"5 c #0B0C0B",
"6 c #0C0C0B",
"7 c #0B0B0C",
"8 c #0C0B0C",
"9 c #0E0E0E",
"0 c #101010",
"q c #111010",
"w c #101110",
"e c #111110",
"r c #101111",
"t c #111111",
"y c #121111",
"u c #111211",
"i c #111112",
"p c #121112",
"a c gray8",
"s c gray9",
"d c #181818",
"f c #1B1A1A",
"g c #1A1B1A",
"h c #1A1A1B",
"j c #1A1B1B",
"k c gray11",
"l c #1D1D1D",
"z c #1E1E1E",
"x c #212020",
"c c #212120",
"v c #202021",
"b c #212021",
"n c #202121",
"m c #222222",
"M c #232222",
"N c #222322",
"B c #222223",
"V c #232323",
"C c #242525",
"Z c #252525",
"A c gray15",
"S c #272727",
"D c #282727",
"F c #272827",
"G c #282827",
"H c #272728",
"J c #272828",
"K c #282828",
"L c gray16",
"P c #2A2929",
"I c #292A29",
"U c #2A292A",
"Y c #292A2A",
"T c #2B2B2A",
"R c #2B2A2B",
"E c gray17",
"W c #2C2C2C",
"Q c gray22",
"! c #505050",
"~ c #626262",
"^ c gray40",
"/ c #777777",
"( c #868686",
") c #898989",
"_ c #989898",
"` c #C0CBDC",
/* pixels */
"//)!/Q~~~/Q(/////_Q//~////)!/Q~~",
"~~/!/kQQ/Q(/~////_Q/Q~~~~~/!/kQQ",
"~~)!!///QQ/Q~~~~/(!Q/k~~~~)!!///",
"Q)!QQQQ!!!!/QkQ~/Q^^!/kQQ)!QQQQ!",
"/!QQ!!^____^////Q^__!Q///!QQ!!^_",
"!^__^!_////_^QQQ^_/)_!!^!^__^!_/",
"__//_^/~/  `     `     !__//_^/~",
"/////_!/~.`o`...`.`..X`!/////_!/",
"~~~~~~_Q/`OOO`O`OOO`O`OQ~~~~~~_Q",
"/QkQ~//!!%@%$+`&+@&@`#@Q/QkQ~//!",
"^^////!^^`=>*`:`>>;`-`;^^^////!^",
"__^QQ^___,`,`,1,`,`,,<`___^QQ^__",
"))_^Q_///22`22222`22222)))_^Q_//",
"/~)_!/~~~3`6`885`3`467`~/~)_!/~~",
"///)!/Q~~`999`9`999`9`9~///)!/Q~",
"~~~/!/kkQtte00`et0qw`tr~~~~/!/kk",
"~~~/!Q///`iuy`t`iyp`p`u~~~~/!Q//",
"kQ/)Q!!^^a`a`aaa`a`aaa`QkQ/)Q!!^",
"//)Q!____ss`sssss`sssss///)Q!___",
"QQQ!_)//)d`d`ddd`d`ddd`QQQQ!_)//",
"^^!!)/~//`jgg`j`ffg`f`h^^^!!)/~/",
"__^!/Q///lllll`lllll`ll___^!/Q//",
"/)_!/Q~/~`zzz`z`zzz`z`z//)_!/Q~/",
"//)!/Q~~~x`x`cbc`n`bxv`~//)!/Q~~",
"//)!/Q~~~mM`mBMNN`NVmmM///)!/Q~~",
"~~/!/kQQ/Z`Z`ZZC`Z`CZZ`~~~/!/kQQ",
"~~)!!///Q`AAA`A`AAA`A`A~~~)!!///",
"Q)!QQQQ!!DGFKF`HKGSJ`HDQQ)!QQQQ!",
"/!QQ!!^__`PIU`P`LIU`I`Y//!QQ!!^_",
"!^__^!_//T`E`EEE`E`EER`^!^__^!_/",
"__//_^/~/WW`WWWWW`WWWWW!__//_^/~",
"/////_!/~W`W`WWW`W`WWW`!/////_!/"
};
