/* XPM */
static char *result[] = {
/* columns rows colors chars-per-pixel */
"32 32 101 2 ",
"   c black",
".  c #010101",
"X  c #020202",
"o  c #030202",
"O  c #020203",
"+  c #030203",
"@  c gray1",
"#  c #050404",
"$  c #040504",
"%  c #040405",
"&  c #050405",
"*  c #040505",
"=  c gray2",
"-  c #060606",
";  c #070606",
":  c #060706",
">  c #070706",
",  c #070607",
"<  c #060707",
"1  c #070707",
"2  c gray3",
"3  c #090808",
"4  c #080809",
"5  c #080909",
"6  c #090909",
"7  c gray4",
"8  c #0B0B0B",
"9  c #0C0B0B",
"0  c #0B0C0B",
"q  c #0C0C0B",
"w  c #0B0B0C",
"e  c #0C0B0C",
"r  c #0C0C0C",
"t  c #0E0E0E",
"y  c #101010",
"u  c #111010",
"i  c #101110",
"p  c #111110",
"a  c #101011",
"s  c #111011",
"d  c #101111",
"f  c #111111",
"g  c #121111",
"h  c #111211",
"j  c #121211",
"k  c #111112",
"l  c #121112",
"z  c gray7",
"x  c gray8",
"c  c gray9",
"v  c #181818",
"b  c gray10",
"n  c #1B1A1A",
"m  c #1A1B1A",
"M  c #1A1A1B",
"N  c #1A1B1B",
"B  c #1B1B1B",
"V  c #1D1D1D",
"C  c #1E1E1E",
"Z  c #202020",
"A  c #212020",
"S  c #202120",
"D  c #212120",
"F  c #202021",
"G  c #212021",
"H  c #202121",
"J  c gray13",
"K  c #222222",
"L  c #232222",
"P  c #222322",
"I  c #232322",
"U  c #222223",
"Y  c #232323",
"T  c #252524",
"R  c #242525",
"E  c #252525",
"W  c gray15",
"Q  c #272727",
"!  c #282727",
"~  c #272827",
"^  c #282827",
"/  c #272728",
"(  c #282728",
")  c #272828",
"_  c #282828",
"`  c gray16",
"'  c #2A2929",
"]  c #292A29",
"[  c #2A2A29",
"{  c #29292A",
"}  c #2A292A",
"|  c #292A2A",
" . c #2B2B2A",
".. c #2A2A2B",
"X. c #2B2A2B",
"o. c gray17",
"O. c #2C2C2C",
"+. c #414141",
"@. c #797979",
"#. c #868686",
"$. c #CDCDCD",
/* pixels */
"+.+.#.6 +.  v v v +.  @.+.+.+.+.+.$.  +.+.v +.+.+.+.#.6 +.  v v ",
"v v +.6 +.      +.  @.+.v +.+.+.+.$.  +.  v v v v v +.6 +.      ",
"v v #.6 6 +.+.+.    +.  v v v v +.@.6   +.  v v v v #.6 6 +.+.+.",
"  #.6         6 6 6 6 +.      v +.  V V 6 +.      #.6         6 ",
"+.6     6 6 V #.#.#.#.#.#.#.#.#.#.#.#.#.#.#.#.#.#.6     6 6 V $.",
"6 V $.$.V 6 $.#.#.#.#.#.#.#.#.#.#.#.#.#.#.#.#.#.#.V $.$.V 6 $.+.",
"$.$.+.+.$.V +.#.#.. . . . . . . . . . . . . . #.#.$.+.+.$.V +.v ",
"+.+.+.+.+.$.6 #.#.X X O + X X X o X X X X o X #.#.+.+.+.+.$.6 +.",
"v v v v v v $.#.#.@ @ @ @ @ @ @ @ @ @ @ @ @ @ #.#.v v v v v $.  ",
"+.      v +.+.#.#.* $ * & # & = # $ = $ # % $ #.#.      v +.+.6 ",
"V V +.+.+.+.6 #.#.: ; 1 - : < > 1 1 , > : 1 , #.#.V +.+.+.+.6 V ",
"$.$.V     V $.#.#.2 2 2 2 2 4 2 2 2 5 2 2 3 2 #.#.$.V     V $.$.",
"#.#.$.V   $.+.#.#.7 7 7 7 7 7 7 7 7 7 7 7 7 7 #.#.#.$.V   $.+.+.",
"+.v #.$.6 +.v #.#.8 e q 0 e e 0 w 8 q 9 q w r #.#.v #.$.6 +.v v ",
"+.+.+.#.6 +.  #.#.t t t t t t t t t t t t t t #.#.+.+.#.6 +.  v ",
"v v v +.6 +.  #.#.f f p y y s p f y u i a f d #.#.v v +.6 +.    ",
"v v v +.6   +.#.#.z k h g k f h k g l l l j h #.#.v v +.6   +.+.",
"    +.#.  6 6 #.#.x x x x x x x x x x x x x x #.#.  +.#.  6 6 V ",
"+.+.#.  6 $.$.#.#.c c c c c c c c c c c c c c #.#.+.#.  6 $.$.$.",
"      6 $.#.+.#.#.v v v v v v v v v v v v v v #.#.    6 $.#.+.+.",
"V V 6 6 #.+.v #.#.B N m m b N m n n m N n n M #.#.V 6 6 #.+.v +.",
"$.$.V 6 +.  +.#.#.V V V V V V V V V V V V V V #.#.$.V 6 +.  +.+.",
"+.#.$.6 +.  v #.#.C C C C C C C C C C C C C C #.#.#.$.6 +.  v +.",
"+.+.#.6 +.  v #.#.A Z A J D G D F H S G A F D #.#.+.#.6 +.  v v ",
"+.+.#.6 +.  v #.#.K L Y K U L P P I P Y K K L #.#.+.#.6 +.  v v ",
"v v +.6 +.    #.#.E E E E E E R T E E R E E R #.#.v +.6 +.      ",
"v v #.6 6 +.+.#.#.W W W W W W W W W W W W W W #.#.v #.6 6 +.+.+.",
"  #.6         #.#.! ^ ~ _ ~ ( / _ ^ Q ) Q / ! #.#.#.6         6 ",
"+.6     6 6 V #.#.{ ' ] } [ ' ] ` ] } { ] } | #.#.6     6 6 V $.",
"6 V $.$.V 6 $.#.#. . .o...o.o.o.o.o. .o.o.X.o.#.#.V $.$.V 6 $.+.",
"$.$.+.+.$.V +.#.#.O.O.O.O.O.O.O.O.O.O.O.O.O.O.#.#.$.+.+.$.V +.v ",
"+.+.+.+.+.$.6 #.#.O.O.O.O.O.O.O.O.O.O.O.O.O.O.#.#.+.+.+.+.$.6 +."
};
