/* XPM */
static char *result[] = {
/* columns rows colors chars-per-pixel */
"32 32 40 1 ",
"  c #626262",
". c #646464",
"X c #656565",
"o c #676767",
"O c DimGray",
"+ c gray42",
"@ c #6D6D6D",
"# c #6F6F6F",
"$ c #717171",
"% c gray45",
"& c gray46",
"* c #767676",
"= c gray47",
"- c gray48",
"; c #7C7C7C",
": c #7E7E7E",
"> c gray50",
", c #818181",
"< c #838383",
"1 c gray52",
"2 c #888888",
"3 c gray54",
"4 c #8B8B8B",
"5 c gray56",
"6 c #909090",
"7 c #929292",
"8 c #959595",
"9 c #979797",
"0 c #989898",
"q c #9A9A9A",
"w c gray61",
"e c #9D9D9D",
"r c #9F9F9F",
"t c #A0A0A0",
"y c #A2A2A2",
"u c gray64",
"i c #A4A4A4",
"p c gray65",
"a c #A7A7A7",
"s c #AAAAAA",
/* pixels */
"@@@@@@@@@o:rr:o@@@@@@@@@@@@@@@@@",
"o+@@@@@@@o>uu>o@@@@@@@@@@@@@@@@@",
":$o@@@@@@O=55=O@@OO@@@@@@@@@@@@@",
"r<+@@@@@@@+oo+@@@$$@@@@@@@@@@@@@",
"rt3O@@@@@@@@@@@@O55O@@@@@OoO@@@@",
":<;+@oo@@@@@@@@@+;;+@@@@X>72$+@@",
"ooO@o=-+@@@@@@@@@oo@@@+#-8ae%O@@",
"@@@@#87O@@@@@@@@@@@@@@O%qtw7%O@@",
"@@O%8i5O@@@@@@@@@@@@@@O%0p6#@@@@",
"@@+#><=+@@+oo+@@@@@@@@+#;<*o@@@@",
"@@@@oXO@@+%,<&O@@@@@@@@@o.XO@@@@",
"@@@@@@@@@o>yr:o@@@@@@@@@@$&$@@@@",
"@@@@@@@@@o<e=+@@@@@@@@@@O4y8%O@@",
"@@@@@@@@@+&:+O@@@@+oo+@@+-1>#+@@",
"OO+@@@+OO@+o@@@@@+%>>%+@@OXo@@@@",
"%%#@@@#%%#@@@@@@@o>uu>o@@@@@@@@@",
"9w3O@o;qq;o@@@@@@o>uu>o@@@@@@OoO",
"ua6O@X,aa,X@@@@@@+%>>%+@oO@@+,54",
"45,+@O=55=O@@+OOOOooo+@#,*O@O6au",
"OoO@@@+oo+@@@#%%%%#@@@O%0,o@O3w9",
"@@@@@@@@@@@@O3w99w3O@@@@%#@@@#%%",
"@@@@@@@@@@@@O6auua6O@@@@O+@@@+OO",
"@@@@Oo+@@@@@+,5445,+@@@@@@@@Oo+@",
"@@@@$&$@@@@@@OoOooO@@@@@@@@@$%#@",
"@@O%8y4O@@@@@@@+OoO@@@@@@@O%7e3@",
"@@+#>1-+@@@@@@+$26,+@@@@@@O%es6@",
"@@@+X o@@@@@@@O%es6O@+oO@@+$26,@",
"@@@@$%#@@@@@@@O%7e3O@#%$@@@@OoO@",
"@@O%7e3O@@+oo+@@$%#@O3e7%O@@@@@@",
"@@O%es6O@O=55=O@Oo+@O6se%O@@@@@@",
"@@+$26,+@o>uu>o@@@@@+,62$+@@@@@@",
"@@@@@@@@@o:rr:o@@@@@@@@@@@@@@@@@"
};
