/* XPM */
static char *result[] = {
/* columns rows colors chars-per-pixel */
"32 32 45 1 ",
"  c black",
". c #010101",
"X c #020202",
"o c gray1",
"O c gray2",
"+ c #060606",
"@ c gray3",
"# c gray4",
"$ c #0B0B0B",
"% c gray5",
"& c gray6",
"* c #111111",
"= c #131313",
"- c #151515",
"; c gray9",
": c #191919",
"> c #1B1B1B",
", c #1D1D1D",
"< c #202020",
"1 c #222222",
"2 c gray14",
"3 c gray15",
"4 c gray17",
"5 c gray18",
"6 c gray19",
"7 c gray20",
"8 c gray22",
"9 c #3A3A3A",
"0 c gray24",
"q c #3F3F3F",
"w c gray27",
"e c gray28",
"r c gray29",
"t c #4C4C4C",
"y c gray31",
"u c gray32",
"i c gray33",
"p c gray34",
"a c gray35",
"s c gray36",
"d c #5F5F5F",
"f c gray38",
"g c #646464",
"h c DimGray",
"j c gray42",
/* pixels */
"XXXXXXXXX :uu: XXXXXXXXXXXXXXXXX",
" .XXXXXXX >dd> XXXXXXXXXXXXXXXXX",
":O XXXXXX =55= XX..XXXXXXXXXXXXX",
"u2 XXXXXXX.  .XXXOOXXXXXXXXXXXXX",
"ua4 XXXXXXXXXXXX 77 XXXXX.  XXXX",
":,* X  XXXXXXXXX ;; XXXX :72@.XX",
"   X &* XXXXXXXXX  XXX o$wgy& XX",
"XXXXow9 XXXXXXXXXXXXXX #wai7# XX",
"XX #0a8 XXXXXXXXXXXXXX #rf6 XXXX",
"XX o>,& XX.  .XXXXXXXX o;,% XXXX",
"XXXX   XX.#>,$.XXXXXXXXX   .XXXX",
"XXXXXXXXX >sr= XXXXXXXXXX@+#XXXX",
"XXXXXXXXX <y= XXXXXXXXXX 3i0# XX",
"XXXXXXXXX.$=..XXXX.  .XX *<-o XX",
"  .XXX   X. XXXXX.+>>+.XX   XXXX",
"##@XXXo##oXXXXXXX >pp> XXXXXXXXX",
"qt2 X ;ww; XXXXXX >pp> XXXXXX.  ",
"pj8 X 1gg1 XXXXXX.+>>+.X .XX.>85",
"58>.X =55= XX.       . o>%.X 8jp",
"  .XXX.  .XXX@####@XXX #e, X 2tq",
"XXXXXXXXXXXX 2tqqt2 XXXX#oXXX@##",
"XXXXXXXXXXXX 8jppj8 XXXX .XXX.  ",
"XXXX. .XXXXX.>8558>.XXXXXXXX. .X",
"XXXX#+@XXXXXX.    .XXXXXXXXXO+@X",
"XX #0i3 XXXXXXXX  .XXXXXXX #9y2X",
"XX o-<* XXXXXX.@28>.XXXXXX &yh8X",
"XXX    XXXXXXX &yh8 X. .XX.@28>X",
"XXXXO+@XXXXXXX #9y2 X@+OXXXX  .X",
"XX #9y2 XX.  .XXO+@X 2y9# XXXXXX",
"XX &yh8 X =55= X. .X 8hy& XXXXXX",
"XX.@28>.X >dd> XXXXX.>82@.XXXXXX",
"XXXXXXXXX :uu: XXXXXXXXXXXXXXXXX"
};
