/* XPM */
static char *player_dark[] = {
/* columns rows colors chars-per-pixel */
"32 32 8 1 ",
"  c #181425",
". c #3F2832",
"X c #262B44",
"o c #3A4466",
"O c #9E2835",
"+ c #5A6988",
"@ c #C0CBDC",
"# c None",
/* pixels */
"################################",
"################################",
"################################",
"################################",
"################################",
"###########+#######+############",
"###########+#######+@###########",
"##########X+######oX+###########",
"#########X+######oooX+##########",
"######## X+######oooX+##########",
"########  +#XXXXX+oXX+##########",
"########  XX XXXXX+XX+##########",
"#########  X  XXXXX+X###########",
"##########    XXXXX+@###########",
"##########    XXXXX+@###########",
"##########          @###########",
"##########    XXXXX+@###########",
"########   XXXoXXXX+@###########",
"########   XXXoXXXX+@.O#########",
"########   XXXo    X..O#########",
"########   XXXoXXX+X.O##########",
"########   XXXo    X############",
"########   XXXoXXX+X############",
"#########  XXoXXXX+@############",
"########## Xo####  X############",
"##########  ####################",
"########## #####################",
"################################",
"################################",
"################################",
"################################",
"################################"
};
