/* XPM */
static char *player_light[] = {
/* columns rows colors chars-per-pixel */
"32 32 8 1 ",
"  c #181425",
". c #262B44",
"X c #3A4466",
"o c #124E89",
"O c #5A6988",
"+ c #8B9BB4",
"@ c #C0CBDC",
"# c None",
/* pixels */
"################################",
"################################",
"################################",
"################################",
"################################",
"##################O@############",
"##################O@############",
"##################OO@###########",
"##################OO@###########",
"#############OOOOO@O@###########",
"############XXOOOOO@@###########",
"############XXXOOOOO@###########",
"###########XXXXXOOOO@###########",
"###########XXXXXOOOO@###########",
"###########XXXX   O  ###########",
"############XXXOOOOO@###########",
"#########......+OOOO@###########",
"#########.@@oo.+OOO@@###########",
"#########.@@oo.+XXXX@###########",
"#########.@@oo.+OOO@OO@#########",
"#########.oo@@.+XXXXO###########",
"#########.oo@@.+OOO@O###########",
"##########.o@.+OOOO@@###########",
"###########..+####XXO###########",
"###########XX###################",
"###########X####################",
"################################",
"################################",
"################################",
"################################",
"################################",
"################################"
};
