/* XPM */
static char *result[] = {
/* columns rows colors chars-per-pixel */
"32 32 6 1 ",
"  c #101010",
". c #1B1B1B",
"X c #2D2D2D",
"o c #343434",
"O c #515151",
"+ c #868686",
/* pixels */
".XXO....OO.O.X.X..oo..X.oooo....",
"XXO.oO.OOX..X...XXoo.X.X.ooo....",
".O.oO.O.+.......ooX.X...X.oO...O",
"X.Oo.X..O.....Xo...XOO.oo.O...O ",
"..O.X..+.X...X.o..OO.oo.OO....O.",
"...O..O....XX...O..o.o+O.....X+.",
"..X.O...O....+O+....o+......X+.o",
".........OO+.....Xoo.....O..+.oo",
".X........O.....o.XX...X.XXXOoo.",
"X....X....O....oooo.XX..OX.OO.XX",
"....XXX..X.O..XoOo..OX.O..OOXX..",
"....X.O.....OOXOo.....XO.XOXX.oX",
"...XX+.....XXXOXo..O.XO.XOOX..Xo",
"..XX+......XXXXOX.+XXOoOXXX.XX..",
"...X...XooXoXXX.XX...ooXXo.X.X..",
"..X...OO.X.X.X.XXOX.ooOX...XX...",
".X...X..OO..o..XOo.oO.X...XOX.XX",
"....X..oX.OOO.X+Xo...Xo.ooOX.X..",
".XXooX..X..o.O+X....O....oXXX...",
"X...XX.O.....XXO.o.X.ooo.OX...X.",
"OX.X..O.X...X.....X.o.X.o..X.X..",
".XOXXOXX...XO...XX.o.....XX.X...",
"...OX+XXO.XO...OX...XO..XXX+.X..",
".X.oXXXO..+...OXXXXX..O..XX.X.o.",
"XXo.XOOX..O..OX.XX.o...XX+X...o.",
".XooXOXX++..XX...X...........o..",
"XoXoX+O+XXOO.X..X.o...XX...O..oX",
"oo..+O....X.X...Xo...XXXX...O.X.",
"X..O....oo.X.X.oX.X..+.X..O.oO..",
"..O....oo.X.X.XXXX..+..XXoooX.OO",
"......OXXOXXXXXoX..X.X..oOoo....",
".O..OOXOOXX.XoXo..X+X..oooo....."
};
