/* XPM */
static char *result[] = {
/* columns rows colors chars-per-pixel */
"64 64 24 1 ",
"  c #FD8F00",
". c #F3961D",
"X c #FDB300",
"o c #F3B41D",
"O c #FDD801",
"+ c #F2D320",
"@ c #FEEA79",
"# c #BCBCBC",
"$ c #FEC780",
"% c #FEEC80",
"& c #FEDCB0",
"* c #FEF1A1",
"= c #FEF3B0",
"- c gray81",
"; c #DADADA",
": c gainsboro",
"> c #DDDDDD",
", c #FFECD4",
"< c #FFF8D4",
"1 c #F4F4F4",
"2 c gray96",
"3 c #FEFEFE",
"4 c white",
"5 c None",
/* pixels */
"5555555555555555555555555555555555555555555555555555555555555555",
"5555555555555555555555555555555555555555555555555555555555555555",
"5555555555555555555555555555555555555555555555555555555555555555",
"5555555555555555555555555555555555555555555555555555555555555555",
"5555555555555555555555555555555555555555555555555555555555555555",
"5555555555555555555555555555555555555555555555555555555555555555",
"5555555555555555555554455555555445555554455555555555555555555555",
"5555555555555555555554455555554445555554455555555555555555555555",
"5555555555555555555555554455445544444555555455555555555555555555",
"5555555555555555555555554455445544444555555555555555555555555555",
"5555555555555555455444454444555444444444445555555555555555555555",
"5555555555555555455444444444444444444444445555555555555555555555",
"5555555555555555555444444444444444444444444455445555555555555555",
"5555555555555555555444444444444444444444444455555555555555555555",
"5555555555555555554444444444444444444444444444555555555555555555",
"5555555555555555444444444444444444444444444444555555555555555555",
"5555555555555555444444444444444444444444444444555555555555555555",
"5555555555555555544444444444444444444444444444455555555555555555",
"5555555555555555544444444444444444444444444444455555555555555555",
"555555555555555544434444444444444444*444444444454555555555555555",
"555555555555555544434444444444444444*444444444444555555555555555",
"5555555555555555554344444<****<44<***44**4-444455555555555555555",
"5555555555555555554244444<OOOO<44<OOO44X 44444455555555555555555",
"5555555555555555455#14<OOOOOOOOO<<OOOXXX  ->44455555555555555555",
"5555555555555555455#14<OO@@@OOOO<<OOOXXX .->4#455555555555555555",
"5555555555555555455#14< $%4%$ OO<, OOXXX .###>>55555555555555555",
"5555555555555555455#1OO $%4%$ OO=& OOXXX .->##>>5555555555555555",
"5555555555555555555##OO $%4%$ OOO  OOXXX .->5##>>555555555555555",
"5555555555555555555##OO $%4%$ OOO  OOXXX .->55##>>55555555555555",
"5555555555555555555##OO $%4%$ OOO  OOXXX .#:555##>>5555555555555",
"5555555555555555555##OO $%4%$ OOO  OOXXX .#:5555#->5555555555555",
"5555555555555555555##OO $%4%$ OOO  OOXXX .#:55555#>5555555555555",
"5555555555555555555##OO $%4%$ OOO  OOXXX .#:55555#>5555555555555",
"5555555555555555555##OO $%4%$ OOO  OOXXX .#:55555#>5555555555555",
"5555555555555555555##OO $%4%$ OOO  OOXXX .#:55555#>5555555555555",
"5555555555555555555##OO $%4%$ OOO  OOXXX .#:55555#>5555555555555",
"5555555555555555555##OO $%4%$ OOO  OOXXX .#:55555#>5555555555555",
"5555555555555555555##OO $%4%$ OOO  OOXXX .#:5555##>5555555555555",
"5555555555555555555##OO  @@@  OOO  OOXXX .#:555###>5555555555555",
"5555555555555555555##OO  O@O  OOO  OOXXX .#:55####55555555555555",
"5555555555555555555##OO  OOO  OOO  OOXXX .#:5####555555555555555",
"5555555555555555555##OO  OOO  OOO  OOXXX .#:####5555555555555555",
"5555555555555555555##OO  OOO  OOO  OOXXX .#:###55555555555555555",
"5555555555555555555##OO  OOO  OOO  OOXXX .#:##555555555555555555",
"5555555555555555555##OO  OOO  OOO  OOXXX .#:#5555555555555555555",
"5555555555555555555##OOOOOOOOOOOOOOOOXXX .#:55555555555555555555",
"5555555555555555555##++++++++++++++++ooo..#:55555555555555555555",
"5555555555555555555########################:55555555555555555555",
"5555555555555555555########################:55555555555555555555",
"5555555555555555555##;;;;;;;;;;;;;;;;;;;;;#:55555555555555555555",
"5555555555555555555##;;;;;;;;;;;;;;;;;;;;;#:55555555555555555555",
"5555555555555555555########################:55555555555555555555",
"5555555555555555555#########################55555555555555555555",
"5555555555555555555555555555555555555555555555555555555555555555",
"5555555555555555555555555555555555555555555555555555555555555555",
"5555555555555555555555555555555555555555555555555555555555555555",
"5555555555555555555555555555555555555555555555555555555555555555",
"5555555555555555555555555555555555555555555555555555555555555555",
"5555555555555555555555555555555555555555555555555555555555555555",
"5555555555555555555555555555555555555555555555555555555555555555",
"5555555555555555555555555555555555555555555555555555555555555555",
"5555555555555555555555555555555555555555555555555555555555555555",
"5555555555555555555555555555555555555555555555555555555555555555",
"5555555555555555555555555555555555555555555555555555555555555555"
};
