/* XPM */
static char *result[] = {
/* columns rows colors chars-per-pixel */
"64 64 19 1 ",
"  c #FD8F00",
". c #F3961D",
"X c #FDB300",
"o c #F3B41D",
"O c #FDD801",
"+ c #F2D320",
"@ c #FEEA79",
"# c #BCBCBC",
"$ c #FEC780",
"% c #FEEC80",
"& c #FEF1A1",
"* c gray81",
"= c #DADADA",
"- c gainsboro",
"; c #DDDDDD",
": c #FFF9D9",
"> c #FFFCEB",
", c white",
"< c None",
/* pixels */
"<<<<<<<<<<<<<<<<<<<<<<<<<<<<<<<<<<<<<<<<<<<<<<<<<<<<<<<<<<<<<<<<",
"<<<<<<<<<<<<<<<<<<<<<<<<<<<<<<<<<<<<<<<<<<<<<<<<<<<<<<<<<<<<<<<<",
"<<<<<<<<<<<<<<<<<<<<<<<<<<<<<<<<<<<<<<<<<<<<<<<<<<<<<<<<<<<<<<<<",
"<<<<<<<<<<<<<<<<<<<<<<<<<<<<<<<<<<<<<<<<<<<<<<<<<<<<<<<<<<<<<<<<",
"<<<<<<<<<<<<<<<<<<<<<<<<<<<<<<<<<<<<<<<<<<<<<<<<<<<<<<<<<<<<<<<<",
"<<<<<<<<<<<<<<<<<<<<<<<<<<<<<<<<<<<<<<<<<<<<<<<<<<<<<<<<<<<<<<<<",
"<<<<<<<<<<<<<<<<<<<<<<<<<<<<<<<<<<<<<<<<<<<<<<<<<<<<<<<<<<<<<<<<",
"<<<<<<<<<<<<<<<<<<<<<<<<<<<<<<<<<<<<<<<<<<<<<<<<<<<<<<<<<<<<<<<<",
"<<<<<<<<<<<<<<<<<<<<<<<<<<<<<<<<<<<<<<<<<<<<<<<<<<<<<<<<<<<<<<<<",
"<<<<<<<<<<<<<<<<<<<<<<<<<<<<<<<<<<<<<<<<<<<<<<<<<<<<<<<<<<<<<<<<",
"<<<<<<<<<<<<<<<<<<<<<<<<<<<<<<<<<<<<<<<<<<<<<<<<<<<<<<<<<<<<<<<<",
"<<<<<<<<<<<<<<<<<<<<<<<<<<<<<<<<<<<<<<<<<<<<<<<<<<<<<<<<<<<<<<<<",
"<<<<<<<<<<<<<<<<<<<<<<<<<<<<<<<<<<<<<<<<<<<<<<<<<<<<<<<<<<<<<<<<",
"<<<<<<<<<<<<<<<<<<<<<<<<<<<<<<<<<<<<<<<<<<<<<<<<<<<<<<<<<<<<<<<<",
"<<<<<<<<<<<<<<<<<<<<<<<<<<<<<<<<<<<<<<<<<<<<<<<<<<<<<<<<<<<<<<<<",
"<<<<<<<<<<<<<<<<<<<<<<<<<<<<<<<<<<<<<<<<<<<<<<<<<<<<<<<<<<<<<<<<",
"<<<<<<<<<<<<<<<<<<<,,,,,,,,,,,,,,,,,,,,,,,,,<<<<<<<<<<<<<<<<<<<<",
"<<<<<<<<<<<<<<<<<<<,,,,,,,,,,,,,,,,,,,,,,,,,<<<<<<<<<<<<<<<<<<<<",
"<<<<<<<<<<<<<<<<<<<##>::::::::::::::::::::##<<<<<<<<<<<<<<<<<<<<",
"<<<<<<<<<<<<<<<<<<<##:::::::::::::::::::::##<<<<<<<<<<<<<<<<<<<<",
"<<<<<<<<<<<<<<<<<<<##&&&&&&&&&&&&&&&&&&&&&##<<<<<<<<<<<<<<<<<<<<",
"<<<<<<<<<<<<<<<<<<<##&&&&&&&&&&&&&&&&&&&&&##<<<<<<<<<<<<<<<<<<<<",
"<<<<<<<<<<<<<<<<<<<##&&&&&&&&&&&&&&&&&&&&&##<<<<<<<<<<<<<<<<<<<<",
"<<<<<<<<<<<<<<<<<<<##&&&&&&&&&&&&&&&&&&&&&###<<<<<<<<<<<<<<<<<<<",
"<<<<<<<<<<<<<<<<<<<##OOOO@@@OOOOOOOOOXXX .####<<<<<<<<<<<<<<<<<<",
"<<<<<<<<<<<<<<<<<<<##OO $%,%$ OOO  OOXXX .###;;<<<<<<<<<<<<<<<<<",
"<<<<<<<<<<<<<<<<<<<##OO $%,%$ OOO  OOXXX .*;##;;<<<<<<<<<<<<<<<<",
"<<<<<<<<<<<<<<<<<<<##OO $%,%$ OOO  OOXXX .*;<##;;<<<<<<<<<<<<<<<",
"<<<<<<<<<<<<<<<<<<<##OO $%,%$ OOO  OOXXX .*;<<##;;<<<<<<<<<<<<<<",
"<<<<<<<<<<<<<<<<<<<##OO $%,%$ OOO  OOXXX .#-<<<##;;<<<<<<<<<<<<<",
"<<<<<<<<<<<<<<<<<<<##OO $%,%$ OOO  OOXXX .#-<<<<#*;<<<<<<<<<<<<<",
"<<<<<<<<<<<<<<<<<<<##OO $%,%$ OOO  OOXXX .#-<<<<<#;<<<<<<<<<<<<<",
"<<<<<<<<<<<<<<<<<<<##OO $%,%$ OOO  OOXXX .#-<<<<<#;<<<<<<<<<<<<<",
"<<<<<<<<<<<<<<<<<<<##OO $%,%$ OOO  OOXXX .#-<<<<<#;<<<<<<<<<<<<<",
"<<<<<<<<<<<<<<<<<<<##OO $%,%$ OOO  OOXXX .#-<<<<<#;<<<<<<<<<<<<<",
"<<<<<<<<<<<<<<<<<<<##OO $%,%$ OOO  OOXXX .#-<<<<<#;<<<<<<<<<<<<<",
"<<<<<<<<<<<<<<<<<<<##OO $%,%$ OOO  OOXXX .#-<<<<<#;<<<<<<<<<<<<<",
"<<<<<<<<<<<<<<<<<<<##OO $%,%$ OOO  OOXXX .#-<<<<##;<<<<<<<<<<<<<",
"<<<<<<<<<<<<<<<<<<<##OO  @@@  OOO  OOXXX .#-<<<###;<<<<<<<<<<<<<",
"<<<<<<<<<<<<<<<<<<<##OO  O@O  OOO  OOXXX .#-<<####<<<<<<<<<<<<<<",
"<<<<<<<<<<<<<<<<<<<##OO  OOO  OOO  OOXXX .#-<####<<<<<<<<<<<<<<<",
"<<<<<<<<<<<<<<<<<<<##OO  OOO  OOO  OOXXX .#-####<<<<<<<<<<<<<<<<",
"<<<<<<<<<<<<<<<<<<<##OO  OOO  OOO  OOXXX .#-###<<<<<<<<<<<<<<<<<",
"<<<<<<<<<<<<<<<<<<<##OO  OOO  OOO  OOXXX .#-##<<<<<<<<<<<<<<<<<<",
"<<<<<<<<<<<<<<<<<<<##OO  OOO  OOO  OOXXX .#-#<<<<<<<<<<<<<<<<<<<",
"<<<<<<<<<<<<<<<<<<<##OOOOOOOOOOOOOOOOXXX .#-<<<<<<<<<<<<<<<<<<<<",
"<<<<<<<<<<<<<<<<<<<##++++++++++++++++ooo..#-<<<<<<<<<<<<<<<<<<<<",
"<<<<<<<<<<<<<<<<<<<########################-<<<<<<<<<<<<<<<<<<<<",
"<<<<<<<<<<<<<<<<<<<########################-<<<<<<<<<<<<<<<<<<<<",
"<<<<<<<<<<<<<<<<<<<##=====================#-<<<<<<<<<<<<<<<<<<<<",
"<<<<<<<<<<<<<<<<<<<##=====================#-<<<<<<<<<<<<<<<<<<<<",
"<<<<<<<<<<<<<<<<<<<########################-<<<<<<<<<<<<<<<<<<<<",
"<<<<<<<<<<<<<<<<<<<#########################<<<<<<<<<<<<<<<<<<<<",
"<<<<<<<<<<<<<<<<<<<<<<<<<<<<<<<<<<<<<<<<<<<<<<<<<<<<<<<<<<<<<<<<",
"<<<<<<<<<<<<<<<<<<<<<<<<<<<<<<<<<<<<<<<<<<<<<<<<<<<<<<<<<<<<<<<<",
"<<<<<<<<<<<<<<<<<<<<<<<<<<<<<<<<<<<<<<<<<<<<<<<<<<<<<<<<<<<<<<<<",
"<<<<<<<<<<<<<<<<<<<<<<<<<<<<<<<<<<<<<<<<<<<<<<<<<<<<<<<<<<<<<<<<",
"<<<<<<<<<<<<<<<<<<<<<<<<<<<<<<<<<<<<<<<<<<<<<<<<<<<<<<<<<<<<<<<<",
"<<<<<<<<<<<<<<<<<<<<<<<<<<<<<<<<<<<<<<<<<<<<<<<<<<<<<<<<<<<<<<<<",
"<<<<<<<<<<<<<<<<<<<<<<<<<<<<<<<<<<<<<<<<<<<<<<<<<<<<<<<<<<<<<<<<",
"<<<<<<<<<<<<<<<<<<<<<<<<<<<<<<<<<<<<<<<<<<<<<<<<<<<<<<<<<<<<<<<<",
"<<<<<<<<<<<<<<<<<<<<<<<<<<<<<<<<<<<<<<<<<<<<<<<<<<<<<<<<<<<<<<<<",
"<<<<<<<<<<<<<<<<<<<<<<<<<<<<<<<<<<<<<<<<<<<<<<<<<<<<<<<<<<<<<<<<",
"<<<<<<<<<<<<<<<<<<<<<<<<<<<<<<<<<<<<<<<<<<<<<<<<<<<<<<<<<<<<<<<<"
};
