/* XPM */
static char *result[] = {
/* columns rows colors chars-per-pixel */
"64 64 22 1 ",
"  c #1F2D68",
". c #1F2F72",
"X c #20327E",
"o c red",
"O c #E6616D",
"+ c #6CFF00",
"@ c #2E448C",
"# c #344482",
"$ c #34478D",
"% c #3F5B9E",
"& c #46599A",
"* c #4766A7",
"= c #5669A5",
"- c #6377AF",
"; c #87A1BF",
": c #87A9CC",
"> c #91B0D3",
", c #96B3D6",
"< c #A6C2E1",
"1 c #B4CDEB",
"2 c #C7DDF8",
"3 c None",
/* pixels */
"3333333333333333333333333333333333333333333333333333333333333333",
"3333333333333333333333333333333333333333333333333333333333333333",
"3333333333333333333333333333333333333333333333333333333333333333",
"3333333333333333333333333333333333333333333333333333333333333333",
"3333333333333333333333333333333333333333333333333333333333333333",
"3333333**********22222222222222222222222222222222222222222233333",
"3333333**********22222222222222222222222222222222222222222233333",
"3333333**********22222,,,,,,,,,,,,,,,,,,,,,,,,,,,,,,,,,>12233333",
"3333333**********22222,,,,,,,,,,,,,,,,,,,,,,,,,,,,,,,,,>12233333",
"3333333**********22222XXXXXXXXXXXXXXXXXXXXXXXXXXXXXX,,,>12233333",
"3333333**********22222XXXXXXXXXXXXXXXXXXXXXXXXXXXXXX,,,>12233333",
"3333333**********22222XXXXXXXXXXXXXXXXXXXXXXXXXXXXXX,,,>12233333",
"33333************22222XXXXXXXXXXXXXXXXXXXXXXXXXXXX.. .,>12233333",
"33333************22222XXXXXXXXXXXXXXXXXXXXXXXXXX$&#. .,>12233333",
"33333************22222XXXXXXXXXXXXXXXXXXXXXXXXXX$&#. .,>12233333",
"33***************22222XX+++XXXX+++++XXX++XXXXXXX$=#. .,>12233333",
"33***************22222XX+++XXXX+++++XXX++XXXXXXX$=#. .,>12233333",
"33***************22222XXXXXXXXXXXXXXXXXXXXXXXXXX$-#. .,>12233333",
"33***************22222XXXXXXXXXXXXXXXXXXXXXXXXXX$-#. .,>12233333",
"33*@@@@**********22222XXXXXXXXXXXXXXXXXXXXXXXXXX$-#. .,>12233333",
"33*XXXX**********22222XX+++++++XXXX++XXXXXXXXXXX$-#. .,>12233333",
"33*@@@@**********22222XX+++++++XXXX++XXXXXXXXXXX$-#. .,>12233333",
"33***************22222XXXXXXXXXXXXXXXXXXXXXXXXXX$-#. .,>12233333",
"33***************22222XXXXXXXXXXXXXXXXXXXXXXXXXX$-#. .,>12233333",
"33*@@@@**********22222XXXXXXXXXXXXXXXXXXXXXXXXXX$=#. .,>12233333",
"33*XXXX**********22222XX+++++++++++XXX++++++XXXX$&#. .,>12233333",
"33*@@@@**********22222XX+++++++++++XXX++++++XXXX$&#. .,>12233333",
"33***************22222XXXXXXXXXXXXXXXXXXXXXXXXXX$&#. .,>12233333",
"33***************22222XXXXXXXXXXXXXXXXXXXXXXXXXXXX.. .,>12233333",
"33*@@@@**********22222XXXXXXXXXXXXXXXXXXXXXXXXXXXX.. .,>12233333",
"33*XXXX**********22222XXXXXXXXXXXXXXXXXXXXXXXXXXXX.. .,>12233333",
"33*@@@@**********22222XXXXXXXXXXXXXXXXXXXXXXXXXXXX.. .,>12233333",
"33***************22222XXXXXXXXXXXXXXXXXXXXXXXXXXXX.. .,>12233333",
"33***************22222XXXXXXXXXXXXXXXXXXXXXXXXXXXX.. .,>12233333",
"33*@@@@**********22222XXXXXXXXXXXXXXXXXXXXXXXXXXXX.. .,>12233333",
"33*XXXX**********22222XXXXXXXXXXXXXXXXXXXXXXXXXXXX.. .,>12233333",
"33*@@@@**********22222............................   .,>12233333",
"33***************22222                              ;,,>12233333",
"33***************22222                             .,,,>12233333",
"333333***********22222222222222222222222222222222222222222233333",
"333333***********22222222222222222222222222222222222222222233333",
"3333333%%%%******22222222222222222222222222222222222222222233333",
"3333333%%%%%%%%%%%%::::::::::::::::::::::::::::::::::33333333333",
"3333333%%%%%%%%%%%%::::::::::::::::::::::::::::::::::33333333333",
"33*************2222222222222222222222222222222222222222222222333",
"33*************2222222222222222222222222222222222222222222223333",
"33*************2222222222222222222222222222222222222222222223333",
"33*************2<::22<::22<::22222222222222222222222222222223333",
"33*************2<::22<::22<::22222222222221111111111111112223333",
"33*************2222<::22<::222222222222222::::::::::::::12223333",
"33*************2222<::22<::222222222222222::::::::::::::12223333",
"33*************2222222222222222222222222222222222222222222223333",
"33*************2<::22<::22<::22222222222222222222222222222223333",
"33*************2<::22<::22<::2222222222222222222222222Oo22223333",
"33*************2222<::22<::222222222222222222222222222OO22223333",
"33*************2222<::22<::2222222222222222222222222222222223333",
"33*************2222222222222222222222222222222222222222222223333",
"33*************2222222222222222222222222222222222222222222223333",
"33*************2222222222222222222222222222222222222222222222333",
"3333333333333333333333333333333333333333333333333333333333333333",
"3333333333333333333333333333333333333333333333333333333333333333",
"3333333333333333333333333333333333333333333333333333333333333333",
"3333333333333333333333333333333333333333333333333333333333333333",
"3333333333333333333333333333333333333333333333333333333333333333"
};
