/* XPM */
static char *result[] = {
/* columns rows colors chars-per-pixel */
"64 64 23 1 ",
"  c #590F10",
". c #7B161D",
"X c #20327E",
"o c #88141E",
"O c #96131E",
"+ c #952933",
"@ c #A32632",
"# c red",
"$ c #AD3946",
"% c #B64955",
"& c #BF5565",
"* c #E6616D",
"= c #2E448C",
"- c #3F5B9E",
"; c #4766A7",
": c #87A1BF",
"> c #87A9CC",
", c #91B0D3",
"< c #96B3D6",
"1 c #A6C2E1",
"2 c #B4CDEB",
"3 c #C7DDF8",
"4 c None",
/* pixels */
"4444444444444444444444444444444444444444444444444444444444444444",
"4444444444444444444444444444444444444444444444444444444444444444",
"4444444444444444444444444444444444444444444444444444444444444444",
"4444444444444444444444444444444444444444444444444444444444444444",
"4444444444444444444444444444444444444444444444444444444444444444",
"4444444;;;;;;;;;;33333333333333333333333333333333333333333344444",
"4444444;;;;;;;;;;33333333333333333333333333333333333333333344444",
"4444444;;;;;;;;;;33333<<<<<<<<<<<<<<<<<<<<<<<<<<<<<<<<<,23344444",
"4444444;;;;;;;;;;33333<<<<<<<<<<<<<<<<<<<<<<<<<<<<<<<<<,23344444",
"4444444;;;;;;;;;;33333OOOOOOOOOOOOOOOOOOOOOOOOOOOOOO<<<,23344444",
"4444444;;;;;;;;;;33333OOOOOOOOOOOOOOOOOOOOOOOOOOOOOO<<<,23344444",
"4444444;;;;;;;;;;33333OOOOOOOOOOOOOOOOOOOOOOOOOOOOOO<<<,23344444",
"44444;;;;;;;;;;;;33333OOOOOOOOOOOOOOOOOOOOOOOOOOOOoo.o<,23344444",
"44444;;;;;;;;;;;;33333OOOOOOOOOOOOOOOOOOOOOOOOOO@$+o.o<,23344444",
"44444;;;;;;;;;;;;33333OOOOOOOOOOOOOOOOOOOOOOOOOO@$+o.o<,23344444",
"44;;;;;;;;;;;;;;;33333OO   OOOO     OOO  OOOOOOO@%+o.o<,23344444",
"44;;;;;;;;;;;;;;;33333OO   OOOO     OOO  OOOOOOO@%+o.o<,23344444",
"44;;;;;;;;;;;;;;;33333OOOOOOOOOOOOOOOOOOOOOOOOOO@&+o.o<,23344444",
"44;;;;;;;;;;;;;;;33333OOOOOOOOOOOOOOOOOOOOOOOOOO@&+o.o<,23344444",
"44;====;;;;;;;;;;33333OOOOOOOOOOOOOOOOOOOOOOOOOO@&+o.o<,23344444",
"44;XXXX;;;;;;;;;;33333OO       OOOO  OOOOOOOOOOO@&+o.o<,23344444",
"44;====;;;;;;;;;;33333OO       OOOO  OOOOOOOOOOO@&+o.o<,23344444",
"44;;;;;;;;;;;;;;;33333OOOOOOOOOOOOOOOOOOOOOOOOOO@&+o.o<,23344444",
"44;;;;;;;;;;;;;;;33333OOOOOOOOOOOOOOOOOOOOOOOOOO@&+o.o<,23344444",
"44;====;;;;;;;;;;33333OOOOOOOOOOOOOOOOOOOOOOOOOO@%+o.o<,23344444",
"44;XXXX;;;;;;;;;;33333OO           OOO      OOOO@$+o.o<,23344444",
"44;====;;;;;;;;;;33333OO           OOO      OOOO@$+o.o<,23344444",
"44;;;;;;;;;;;;;;;33333OOOOOOOOOOOOOOOOOOOOOOOOOO@$+o.o<,23344444",
"44;;;;;;;;;;;;;;;33333OOOOOOOOOOOOOOOOOOOOOOOOOOOOoo.o<,23344444",
"44;====;;;;;;;;;;33333OOOOOOOOOOOOOOOOOOOOOOOOOOOOoo.o<,23344444",
"44;XXXX;;;;;;;;;;33333OO      OO   OOOOOO   OOOOOOoo.o<,23344444",
"44;====;;;;;;;;;;33333OO      OO   OOOOOO   OOOOOOoo.o<,23344444",
"44;;;;;;;;;;;;;;;33333OOOOOOOOOOOOOOOOOOOOOOOOOOOOoo.o<,23344444",
"44;;;;;;;;;;;;;;;33333OOOOOOOOOOOOOOOOOOOOOOOOOOOOoo.o<,23344444",
"44;====;;;;;;;;;;33333OOOOOOOOOOOOOOOOOOOOOOOOOOOOoo.o<,23344444",
"44;XXXX;;;;;;;;;;33333OOOOOOOOOOOOOOOOOOOOOOOOOOOOoo.o<,23344444",
"44;====;;;;;;;;;;33333oooooooooooooooooooooooooooo...o<,23344444",
"44;;;;;;;;;;;;;;;33333..............................:<<,23344444",
"44;;;;;;;;;;;;;;;33333.............................o<<<,23344444",
"444444;;;;;;;;;;;33333333333333333333333333333333333333333344444",
"444444;;;;;;;;;;;33333333333333333333333333333333333333333344444",
"4444444----;;;;;;33333333333333333333333333333333333333333344444",
"4444444------------>>>>>>>>>>>>>>>>>>>>>>>>>>>>>>>>>>44444444444",
"4444444------------>>>>>>>>>>>>>>>>>>>>>>>>>>>>>>>>>>44444444444",
"44;;;;;;;;;;;;;3333333333333333333333333333333333333333333333444",
"44;;;;;;;;;;;;;3333333333333333333333333333333333333333333334444",
"44;;;;;;;;;;;;;3333333333333333333333333333333333333333333334444",
"44;;;;;;;;;;;;;31>>331>>331>>33333333333333333333333333333334444",
"44;;;;;;;;;;;;;31>>331>>331>>33333333333332222222222222223334444",
"44;;;;;;;;;;;;;33331>>331>>333333333333333>>>>>>>>>>>>>>23334444",
"44;;;;;;;;;;;;;33331>>331>>333333333333333>>>>>>>>>>>>>>23334444",
"44;;;;;;;;;;;;;3333333333333333333333333333333333333333333334444",
"44;;;;;;;;;;;;;31>>331>>331>>33333333333333333333333333333334444",
"44;;;;;;;;;;;;;31>>331>>331>>3333333333333333333333333*#33334444",
"44;;;;;;;;;;;;;33331>>331>>333333333333333333333333333**33334444",
"44;;;;;;;;;;;;;33331>>331>>3333333333333333333333333333333334444",
"44;;;;;;;;;;;;;3333333333333333333333333333333333333333333334444",
"44;;;;;;;;;;;;;3333333333333333333333333333333333333333333334444",
"44;;;;;;;;;;;;;3333333333333333333333333333333333333333333333444",
"4444444444444444444444444444444444444444444444444444444444444444",
"4444444444444444444444444444444444444444444444444444444444444444",
"4444444444444444444444444444444444444444444444444444444444444444",
"4444444444444444444444444444444444444444444444444444444444444444",
"4444444444444444444444444444444444444444444444444444444444444444"
};
