/* XPM */
static char *result[] = {
/* columns rows colors chars-per-pixel */
"64 64 134 2 ",
"   c #1C1B23",
".  c #1D202D",
"X  c #23232E",
"o  c #2B2934",
"O  c #2B263B",
"+  c #2D283E",
"@  c #33313C",
"#  c #2E2A41",
"$  c #322E44",
"%  c #373640",
"&  c #373841",
"*  c #3C3A44",
"=  c #373449",
"-  c #383349",
";  c #3D3B4A",
":  c #3F3E50",
">  c #403E4D",
",  c #423F51",
"<  c #3F4051",
"1  c #43414E",
"2  c #444251",
"3  c #484655",
"4  c #474A57",
"5  c #4D4D56",
"6  c #464358",
"7  c #484658",
"8  c #504F56",
"9  c #6A6675",
"0  c #6B6A76",
"q  c #6A667C",
"w  c #67697B",
"e  c #6E6F78",
"r  c #706F76",
"t  c #716E78",
"y  c #6F7177",
"u  c #6E7079",
"i  c #717075",
"p  c #74727F",
"a  c #716F84",
"s  c #6F7182",
"d  c #737585",
"f  c #7C7D87",
"g  c #77738A",
"h  c #777988",
"j  c #7D7C8D",
"k  c #7F7B91",
"l  c #827E88",
"z  c #817E93",
"x  c #7F818F",
"c  c #7F8191",
"v  c #83838E",
"b  c #89888F",
"n  c #828491",
"m  c #8B8792",
"M  c #858992",
"N  c #8D8C95",
"B  c #888798",
"V  c #85899A",
"C  c #8C8D9B",
"Z  c #908D96",
"A  c #938D9B",
"S  c #8D9196",
"D  c #849198",
"F  c #8B919B",
"G  c #94919C",
"H  c #98929D",
"J  c #8A8DA1",
"K  c #948FA1",
"L  c #8D91A2",
"P  c #9393A5",
"I  c #9B94A1",
"U  c #9C9BA5",
"Y  c #9494AA",
"T  c #9A96A9",
"R  c #979AA8",
"E  c #9A9BA9",
"W  c #939DB1",
"Q  c #9FA6B1",
"!  c #9FA9BB",
"~  c #A0A4A7",
"^  c #A3A3AC",
"/  c #A6A7B3",
"(  c #A9A7B1",
")  c #A2AEB7",
"_  c #ACABB6",
"`  c #A3ABB9",
"'  c #ADACBA",
"]  c #ABB2BD",
"[  c #B2B3BE",
"{  c #ABB5C6",
"}  c #BCBDC3",
"|  c #C1BFCA",
" . c #B7C1C9",
".. c #BDC2CB",
"X. c #C1C2C7",
"o. c #C2C1CB",
"O. c #CAC5CF",
"+. c #C6CACF",
"@. c #CACACF",
"#. c #D0CBCF",
"$. c #C5C4D2",
"%. c #CAC4D2",
"&. c #C5CBD2",
"*. c #CCCBD3",
"=. c #CECDD9",
"-. c #D1CBD2",
";. c #D2CED9",
":. c #CCD1D6",
">. c #C6D0D8",
",. c #CDD3DB",
"<. c #C6D8DB",
"1. c #CBDADE",
"2. c #D3D0D6",
"3. c #D4D3DB",
"4. c #D8D2DD",
"5. c #D5D9DD",
"6. c #CED9E5",
"7. c #D3D6E0",
"8. c #D8D3E0",
"9. c #D3DAE3",
"0. c #DBDDE2",
"q. c #D6E1E8",
"w. c #DEE4EB",
"e. c #DEECEE",
"r. c #E1E4EB",
"t. c #E3EDF0",
"y. c #E8EAF7",
"u. c #ECEEFB",
"i. c #E7F3FB",
"p. c #EDF4FC",
"a. c #EDFAFF",
"s. c #F0F5FF",
"d. c #F3FCFF",
"f. c #F8FEFF",
/* pixels */
"{ x x x x x x d x x w w w w x 1 { x w w d d d w w w w d d d w * { c x x x x x d x x w w w w x 2 { x w w d d d w w w w d d d w ; ",
"{ x x x x v x x x x w w x x v 2 { x w w x d x x x x x c d x x ; { x x x x x x x x x w w x x x 1 { x w w v d c x x x x x d x c * ",
"W d d d w w w w w w d d x x x ; o o o o o o o o o o o o o o o o o o o o o o o o o o o o o o o ; W w w w d d x x x d x v d x x 2 ",
"* 2 * ; 2 1 1 1 2 ; 1 ; < < @ @ o o o o o o o o o o o o o o o o o o o o o o o o o o o o o o o @ @ > ; 1 2 1 2 2 2 1 2 2 ; 1 * * ",
"{ { W W x % x { { W W W R R ! W o o o o o o o o o o o o o o o o o o o o o o o o o o o o o o o W Q W W { d * x { { { { { Q { { { ",
"w w w d x 2 { x x w d w w w w w o o o o o o o o o o o o o o o o o o o o o o o o o o o o o o o w w w s x c 2 { c d w w w w w w w ",
"c d w d d 1 ! w w w w w x x c c o o o o o o o o o o o o o o o o o o o o o o o o o o o o o o o x c w d d w * W w w w w w c c s s ",
"d d w x d < ! w w d d w d c x x o o o o o o o o o o o o o o o o o o o o o o o o o o o o o o o x x w x x w ; W w x c w w w w d d ",
"* ; ; * ; @ ; @ @ & @ @ < = = = o o o o o o o o o o o o o o o o o o o o o o o o o o o o o o o * 1 ; 2 1 ; * - # # $ = # # = @ @ ",
"! ! W W W W { { w @ w ! Q ! W W o o o o o o o o o o o o o o o o o o o o o o o o o o o o o o o W W W ` ! W { { W w $ x { { { { { ",
"c x w x w d c c d < ! d d d w x o o o o o o o o o o o o o o o o o o o o o o o o o o o o o o o x c x w w w w w w w # { c x x x s ",
"x x w w w d d d d $ ! w w w w d d d d j v c x x w ; ! d x x x x x x w w w d d d d > ! w w w w d d d d x x x x x w # ! d x x x x ",
"x x w w w s d d x $ { x x x x x d d d z x k d v w 2 { d c c x c x x w w w d d d c > { c x x v c d d d x j x d x w = { d x x x x ",
"# # = = # = = $ $ = - - = = - - & & & * * * * * @ & @ @ $ $ $ # # # = = # % * % & @ * * * * * * % % & * = = - - $ = # # = # $ # ",
"x W ! ! R ! { ! { { { { { { x - + p.a.a.a.a.a.a.a.a.a.a.a.a.a.a.a.a.a.a.a.a.a.a.a.a.d.d.d.f.v * x { ! { { { { { ! ! W W W W w # ",
"W w w w w w x w x x x x x x x - $ q.r.r.q.w.q.w.w.w.w.r.r.w.w.w.w.w.w.w.w.w.w.w.w.w.r.0.} _ $ 1 { x w w w w d d d d w x c w w # ",
"{ x w w w w w w x d d x x x x O $ *.@.*.@.$.:.*.*.*.*.*.*.&.*.&.&.*.&.*.&.*.%.*.&.%.&...1 5 $ > ! x w x j w n x w w w c x w d - ",
"{ x d w d c x d x x x d x x c O # *.2.*.X...} ..| | ..| | | | o.| | $.o.| o.o.o.| O.-.O.i 1 $ > ! x w x n w w w w d w d d w x 2 ",
"* = $ # $ $ $ $ - - - - - - - O O :.3.Z 1 0 e w w 0 0 0 q q 0 9 q 0 6 6 7 q 0 9 , A ;.o.r 1 O = - = $ # # # $ $ = # # $ $ # $ & ",
"! ! ! W d = c ! ! W W W W W W = # :.2.G < 2 < 2 , , ; 2 2 , , 2 , , 2 < : 2 2 2 , A 8.X.i > = ! ! ! ! W w # w W W W W ! W W W W ",
"x x x x d - { d d w c c w d x $ o 2.2.Z ; x .. ..... ................. .....&.x > A 4.| y > = x d d x w x - { x x x x d v c c x ",
"x x d x d = { d d w w w w d x $ + 2.4.H 1 M f.f.d.d.d.d.d.d.d.d.d.d.a.a.a.a.d.M > m 4.| y > $ x w w w w x - { x x x x w j d x x ",
"x x c c w - { w w d w w w w w $ + 2.2.S < x p.t.t.t.t.t.t.t.t.t.t.t.t.t.e.q.q.n > b 3.X.y > $ w w w c c x - { x x x n d x x x x ",
"- - - - # # # # # # # # @ @ $ O O :.2.S < x d.i.,.+.*.*.*.*.*.@.@.:.@.+.} C L u , Z 3.| e ; O $ - $ - $ - - - # # # $ $ - * * * ",
"{ { { { ! ! W W w - x { { { ! = @ *.3.G < x a.p.2.+.#.#.-.%.=.*.@.@.@.#.o.P P d , Z 3.X.t > = ! { ! { { { { { W d $ w W { ! { { ",
"x x x x d x x d w - { d x x w $ + *.3.G < x a.t.5.+.@.#.-.-.*.-.-.@.#.2.O.P P s , Z 3.| t > $ w w w w w w w w w d = { x w w w w ",
"w w d d d c c d w - { x x x d $ + :.3.A ; x p.p.,.+.#.:.-.*.*.*.@.@.@.#.| Y Y a 2 Z 3.o.t > $ d w d w x d x x w w 2 { x w w d d ",
"d w d d d d w w w - { x x c d $ + *.3.A 1 v p.p.3.@.*.#.-.-.-.%.-.-.-.2.| L Y a , Z 2.| e > $ d w w w c d d w w w ; W w x x x d ",
"$ # $ - $ % # $ # # # $ $ $ = O O *.3.A > v a.p.5.@.-.-.-.-.-.-.-.@.#.2.| P Y a , Z 3.X.e > O - - - # * - - $ # # - * @ & * * @ ",
"w W W W W W W W W W W ! ! ` c O + :.2.A > x p.s.3.@.-.-.-.-.-.-.-.-.-.-.| P P s , Z 3.| e > $ = d { W { { { W W W W W W W W w @ ",
"{ x x x c x x x x x w d d d c O $ *.2.A ; x a.p.,.&.-.-.-.-.-.-.#.-.-.-.| Y Y s 2 N 4.| e > $ = { x w x x x w x x x j c x w d ; ",
"{ c x x x x x x x x w w w w c O # :.3.A , n d.p.5.@.-.-.-.-.%.-.#.-.-.-.| P Y s , Z 3.X.e > % 2 { x w w w w w x x x x x x w v ; ",
"{ v x x x x x d c c w w w w j O $ :.2.G ; c d.s.4.%.-.-.-.-.*.-.-.#.*.-.o.P P s , Z 3.| t > = 1 { v w w d d d e w w w d d d u * ",
"* 2 1 - - - - = - - # # - - - O O *.2.G < v p.s.,.%.| %.%.%.%.$.%.$.%.*.| K I a 2 Z 3.X.i > O * & 2 * ; 2 < 2 2 2 1 2 2 < 1 * @ ",
"W ! ! ! w # w W W W ! ! { { { = + *.2.Z ; n a.i./ F H K K T P P Y Y L L P P K a 2 N 3.o.i 1 - W W W W W d @ x { { ! { { ! { { { ",
"x c w w x - { x x w d d d d w # + :.2.G < n a.a.) P P P P K P K P P Y R P P Y a , S ,.o.u , $ w d d w c x < { x x x x x w x x x ",
"x x w w x $ { x x w w w w w d $ + *.2.G 2 d F L d d h d d d d d d d d d g g g q 6 N 3.o.t > % w w w w x d 1 { x x x x c w x x x ",
"w w w d c = { c x w d w w w w @ + :.2.N ; > ; < : : , , , , > , , , ; ; : , , , ; b 3.X.t > # w w w d x x 2 { c s w w w w w w w ",
"1 1 ; ; ; = $ # # # # # = * ; O O :.*._ M F F D D B C C A C C C C C C C C C J L N ~ 3.X.i , + * 2 ; ; 1 ; + ; @ @ @ @ @ * * & @ ",
"! ! W { ! ! ` W w $ d W ! { { = % 3.@.r.f.d.d.d.d.d.d.f.d.d.d.d.d.d.d.d.f.d.f.d.d.t.X...u > - { { W { { R Q W W c * w W W Q ! ! ",
"w w w w w w w w w $ W d c x x $ O ,.@.r.u.y.p.p.i.u.i.p.p.p.p.p.p.p.u.u.s.s.s.u.s.r.*.X.e > @ j x w x x w x x w w < ! d w d w w ",
"d d w w w w x x w # W d d d w $ + > 1 1 4 1 2 1 ] 7.;.,.=.=.,.,.=.,.,.=.;.;.;.=.*.*.:.X.e > $ w w w d d w x x w w < { x x x x x ",
"x x w x w d x x d $ ! d d d w $ # &   X . . X   ( 3.*.,.=.=.=.-.-.=.=.=.;.;.;.*.*.#.*.o.i > $ n x x w w w w w w w * { x x x x d ",
"* * @ @ @ % % % $ $ = + # # # O O H N d 0 e w 7 U [ _ ` _ _ _ _ ' ' / ' ' ' ' _ ( } 2.o.t > O @ @ & & * * * * * @ @ @ & * * * * ",
"x { W W W ! ! ! { ! { { { { x O + 9.0.[ R E E E Y L F L L L J L J J J J J L J P G / =.X.e , $ & d ! ! { { { ! { Q { { ! { { x * ",
"W w x x w d c d d d x x x x x + # *.O./ n B M V J V V J J J C J J J J J J J J J B / ,...u ; = 2 ! d d c c c x x s s w w d d d ; ",
"{ w d d w d x d x x x x x x x O $ ,.3.C 2 6 4 < < 6 6 6 2 6 6 2 6 2 6 6 6 6 6 7 1 C 4.o.i ; = 1 { x d c c c c c d d w w w w w * ",
"W w w w w w x w x x x x x x x + $ :.2.F < 2 < 6 6 < 6 < 2 < 2 2 2 2 < 6 6 , 6 6 , N 7.| u 2 $ 2 { x w w w w s d d d w x x w w ; ",
"* 2 * # # # # # - $ $ - 2 2 * + O *.3.H 2 x 5.<.<.1.1.,.,.1.<.<.,.<.1.6.6.1.9.j , C 8.| e > O % & 1 ; 1 1 ; 2 < * = ; 1 2 & & * ",
"{ { ! W d - c ! { { { ! { { { = # *.3.S < x d.a.a.d.d.d.d.d.d.d.d.d.d.a.a.d.d.V ; A 8.X.t 1 - ! ! { Q { c @ w Q W ! W ! ! Q { { ",
"c c d w d $ ` d c c x x c j x % + :.3.N < M a.i.e.w.w.w.r.r.r.r.r.r.w.w.q.>.&.k , A 4...t > $ x c c s w w = ! d x w w d d w d d ",
"d d d w d 2 { d d w w w w w w $ + *.3.H < x p.p.3.O.#.#.-.-.@.#.2.@.*.*.$.P T d > N 4.X.e > $ d d d s w w * Q w w w w d w w w w ",
"x x x x d 2 { d d w x x w d x $ + *.3.P > n s.p.,.@.-.-.-.-.#.#.@.#.#.*.$.L Y a , N 3...e ; = v d d c w x < { x c c c s c c x x ",
"1 2 1 1 1 & 1 & @ @ @ @ @ % * O O *.3.A > n s.p.,.@.*.-.-.%.*.*.-.-.*.=.| K Y a 2 B 3.X.y < O & ; ; * ; 2 * = = = = = # * & * * ",
"{ { { { W { { W w & w W W W W = # *.4.I ; n p.p.] R E T T T T R R R R T T Y K a 1 N 3...u ; = Y W W { { { { { { x - c ! { { { { ",
"n x x x w w w w w ; W w w d d $ $ *.3.A , n d.a.) V T P T P P Y Y P P P Y T T d , Z 3.X.u 1 # d x d x d x x x w w # ! s x x x x ",
"x x x x d s w w w 2 { c c x d $ + *.3.H , d ] ) V h l l j j j j j j j j j z z q 2 N 3...e > $ d c s x x x x x w d 1 W w c s c c ",
"x c x x d c c s e 1 { d x x w # + *.3.N > 2 , , < , , , , , , , : 2 , 6 , , , 6 , m 3.| e > $ q w w w w w w w w d 1 { j w w w w ",
"@ @ & & & * * % @ * * * * * & O O &.2.H t p p d d d d d g d d d d d a d d g d t e P -.O.0 > o $ # & @ * % * * @ @ * * * @ @ & & ",
"s W ! ! ! ! W Q W { { { { { d O + ,.-.-.O.-.-.-.*.*.*.*.*.*.*.*.*.*.%.%.%.%.=.-.*.=.;.o.e > $ $ w W W { ! ! W Q Q W W W { { c @ ",
"! w d c d d w d w w w d d d x O @ 4.2.3.3.2.4.4.4.4.4.3.8.4.4.4.4.4.4.;.4.4.4.4.8.4.3.&.e 2 = = { x w x x x d w w x x w x x x ; ",
"W w w w w w w w w w w d d d c O $ Z f l v m v v n v n n n l n v v v v l v v b f l n v v 3 ; # = ! x w x x x w w w w w w w w w * ",
"{ x x x v x x v x x w d d d x O $ 3 5 > > > > > > > > ; > > > > ; ; > > > > ; ; ; > > ; 2 8 % 2 { x w x c x w v x x c x x w d ; ",
"; 1 2 2 2 1 2 2 2 1 ; # # # - - - ^ I U U U U U U U U E U U T E U E U T T U E E U U U I U G O * * 1 ; = * ; * 2 2 2 1 2 1 ; * @ "
};
