/* XPM */
static char *result[] = {
/* columns rows colors chars-per-pixel */
"64 64 148 2 ",
"   c #191925",
".  c #201F26",
"X  c #202330",
"o  c #2B2836",
"O  c #2B263C",
"+  c #2D293C",
"@  c #322F3D",
"#  c #33313C",
"$  c #2E2A41",
"%  c #332E45",
"&  c #373640",
"*  c #383543",
"=  c #3C3A44",
"-  c #373449",
";  c #383349",
":  c #3C3A48",
">  c #403F4C",
",  c #454350",
"<  c #494653",
"1  c #444855",
"2  c #4D4B56",
"3  c #514F5E",
"4  c #4E535D",
"5  c #54545D",
"6  c #56585F",
"7  c #4F5162",
"8  c #555562",
"9  c #595664",
"0  c #555963",
"q  c #5B5B64",
"w  c #58566A",
"e  c #5C5B6A",
"r  c #615E6A",
"t  c #605D70",
"y  c #5F636F",
"u  c #5E6271",
"i  c #5F6874",
"p  c #69686F",
"a  c #636372",
"s  c #6A6B75",
"d  c #656679",
"f  c #67697B",
"g  c #6D6C7C",
"h  c #736E7D",
"j  c #6C747E",
"k  c #74727F",
"l  c #6CFF00",
"z  c #ADFF70",
"x  c #706E80",
"c  c #6E7480",
"v  c #737585",
"b  c #797685",
"n  c #7B7B85",
"m  c #767A8A",
"M  c #7D7C8B",
"N  c #7B7C92",
"B  c #807E89",
"V  c #7F818F",
"C  c #82808B",
"Z  c #868492",
"A  c #898791",
"S  c #8A8893",
"D  c #858499",
"F  c #86899A",
"G  c #8B8B9B",
"H  c #918D9E",
"J  c #8A909C",
"K  c #95939D",
"L  c #8C8EA2",
"P  c #908EA1",
"I  c #8E91A4",
"U  c #9394A3",
"Y  c #9896A0",
"T  c #9C9AA4",
"R  c #9493A8",
"E  c #9996A9",
"W  c #959DAB",
"Q  c #9B9CAA",
"!  c #939DB1",
"~  c #A19EAC",
"^  c #A29FB0",
"/  c #9BA1AB",
"(  c #9FA9BB",
")  c #A4A2AD",
"_  c #A9A2AB",
"`  c #A5A2B1",
"'  c #A9A6B3",
"]  c #A6A8B6",
"[  c #ACAAB4",
"{  c #AEACBB",
"}  c #B1AFBD",
"|  c #A8B0B9",
" . c #B1B2B6",
".. c #B5B5BD",
"X. c #B9B7BF",
"o. c #B4B8BE",
"O. c #BBB9BE",
"+. c #D1FFAF",
"@. c #B0AFC3",
"#. c #ABB5C6",
"$. c #BCB6C4",
"%. c #B2B8C1",
"&. c #BCB9C2",
"*. c #BCBBC9",
"=. c #C1BECA",
"-. c #B8C0C7",
";. c #BEC2CC",
":. c #C4C4CD",
">. c #C9C0CF",
",. c #C5C9CE",
"<. c #CBCACD",
"1. c #D1C9CF",
"2. c #C6C4D1",
"3. c #C9C7D2",
"4. c #C7CFD7",
"5. c #CCCBD3",
"6. c #CCCED9",
"7. c #D1CCD2",
"8. c #D2CFD9",
"9. c #CED1D6",
"0. c #CCD4DA",
"q. c #CDDADF",
"w. c #D4D4DC",
"e. c #D9D7DE",
"r. c #D4D8DE",
"t. c #D9D8DF",
"y. c #D3D4E2",
"u. c #D8D7E1",
"i. c #D7D9E1",
"p. c #DBDBE3",
"a. c #D9DBE8",
"s. c #E0DCE5",
"d. c #D7E0E2",
"f. c #DCE2E6",
"g. c #DCE4EA",
"h. c #DFE9EE",
"j. c #E2E5EB",
"k. c #E2E9ED",
"l. c #E5EDF3",
"z. c #EAEFF3",
"x. c #E5F1F5",
"c. c #EBF2F6",
"v. c #E6F7F8",
"b. c #ECF4FB",
"n. c #EDFBFE",
"m. c #F4F7FB",
"M. c #F4FDFF",
"N. c #FCFFFF",
/* pixels */
"#.V V V V V V v V V f f f f V , | C f f v v v f f f f v b v s : #.V V V V V V j V V s f f f V , #.V f f v v v f f f f v v v f : ",
"#.V V V V V V V V V f f V V V , o.B f f V v V V V V V V k C V = #.V V V V V V C C n s f V V V , #.V f f V v V V V V V V v V V : ",
"! v v v f f f f f f v v V V V : o o o o o o o o o o o o o o o o o o o o o o o o o o o o o o o = ! f f f v v V V V v V V v V V , ",
"= , : : , , , , , : > > > > # # o o z z z l z z o o z o o o o o z o o o z o o l z z +.z l z o # & > = , , , , , , , , , : , = = ",
"#.#.! ! V & V #.#.! ! ! ! ! ( ! . o z o o o o o o o o +.o o o l o o o o z o o o o o z o o o o / ! ! ! #.v = V #.#.#.#.#.! #.#.#.",
"f f f v V , #.V V f v f f f f f o o z o o o o o o o o o +.o l o o o o o z o o o o o z o o o o s f f v V V , #.V v f f f f f f f ",
"V v f v v > ( f f f f f V V V V o o z z z z z l o o o o o z o o o o o o z . o o o o z o o o o V V f v v f : ! f f f f f V V v v ",
"v v f V v > ( f f v v f v V V V o o z o o o o o . o o o l o z o o o o o z o o o o X z o o o o V V f V V f : ! f V V f f f f v v ",
": : : : : # : # # & # & = ; ; ; o o z o o o o o o o o l o o o z o o o o l o o o o o z o o o o # , : , , = = - $ $ - % % $ % # # ",
"( ( ! ! ! ! #.#.f # f ( ( ( ! ! o o z l l l l l o o l o o o o o z . o o z o o o o o l o o o o / ! ! ( ( ! #.#.! f $ V #.#.#.#.#.",
"V V f V f v Z V v > ( v v v f V o o o o o o o o o o o o o o o o o o o o o o o o o o o o o o o V V V f f f f f f f $ #.V V V V v ",
"V V f f f v v v v % ( f f f f v v v v V V V V V s = ] j V V V V C A s p f v v v v > ( s f f s v v v v V V V V V f $ ( v V V V V ",
"V V f f f v v v V % #.V V V V V v v v V V V v V f 1 #.v B B Z V C V f f f c v v V > #.V V V V V v v v V M V v Z f - #.v V V V V ",
"$ $ - - $ % ; % % % ; ; ; ; ; ; & * & = = = = = # & # # % % % $ @ # - * $ * = * # # = = = s O.= & & & = - - - ; % - $ $ % % % $ ",
"M ! ( ( ! ( #.( #.#.#.#.#.#.V ; o o o o o o o o o o o o o o O o o o o o o o o o o o # q o.c.r.= V #.( #.#.#.#.#.( ( ! ! ! ! f $ ",
"! f f f f f V f V V V V V V V ; o o o o o o o o o o o o o o o o o o o o o o o o , / v.x.j.,.s , #.V f f f f v v v v f V V f f $ ",
"#.V f f f f f f V m c N V V C O o o O o o o o o o O o o o o o o o o o o o * F l.l.j.u.8.5. .5 > ( V f V V f V V f f f V V f v ; ",
"#.V v f v V V v V V V m V V N O o o o o o o o o o o o o o o o o o o & n g.l.f.i.6.3.5.3.5.O.q , ( V f V V f f f f v f v v f V , ",
"= - % $ % % % % - - - - ; ; ; O o o o o o o o O o o o o o o o o f 4.h.a.q.5.3.5.3.} Y h %...e - - - % $ $ $ % % ; $ $ % % $ % & ",
"( ( ( ! m - V ] ( ! ! / ! ! ! - o o o o o o o o o o o o o O o o i.0.6.5.5.*.) Z f 9 5 9 $...q ( ( ( ( ! f $ f ! ! ! ! ( ! ! ! ! ",
"V V V V m - #.v v f C V f v V % o o o o o o o O o o o O o o o o 5.<.[ K v q 5 8 y m U q $...q V v v V f V - #.V V V V v C V V V ",
"V V v M c - #.v v f f f f v V % o o o o o o o o o o o o o O o o e.q 8 3 e n U %.0.h.h.6 O...q C f f f f V ; #.V V V V f V v V V ",
"V V N Z f ; #.f f v f f f f f % o O o o o o o o o o o o o o o o t.5 W %.r.h.v.M.M.n.f.0 X...q f f f N Z V ; #.V V V V v V V V V ",
"; - ; ; $ $ $ $ $ $ $ $ # # % O o o o O o o o o o O o o o o o o t.6 m.M.M.n.c.h.d.-.I q O...q % ; % - % ; ; ; $ $ $ % % - = = = ",
"#.#.#.#.( ( ! ! f ; V #.#.#.( - o o o o o o o o o o o o o o o o t.6 M.f.r.0.<.<.<.] L e &...q ( #.( #.#.#.#.#.! v % f ! #.( #.#.",
"V V V V v V V v f - #.v V V f $ o o o o o o o o o o o o o o O o e.6 N.,.5.5.<.5.7...I w O...8 f f f f f f f f f m ; #.V f f f f ",
"f f v v v C N m f ; #.V V V v % o o o o o O o o o o o o o o O o t.6 N.5.7.7.5.<.7.{ I e =...6 b f v f V v V M f f , #.C f f v v ",
"v f v v v v f f f ; #.V V V v % o O o o o o o o o o o o o o o o t.6 N.3.5.5.7.5.7.{ I q O...q b f f f V v v f f f - ! f V V V v ",
"% $ % ; % & $ % $ $ $ % % % - O o o o o o o o o o o o o o o o o e.8 N.5.7.7.7.7.7.} L w O...q - - - $ = - - % $ $ - = # = = = # ",
"f ! ! ! ! ! ! ! ! ! ! ( ( ] V O o o o o o o o o o o o o o o o o e.8 N.5.7.3.7.7.7.} R w O...q - v #.! #.#.#.! ! ! ! ! ! ! ! f # ",
"#.V V V V V V V V V f v m m N O o o o o o o o o o o o o o o o o e.8 N.5.7.7.5.1.7.} P e $...q - #.V f Z V V f V Z V V V V f v : ",
"#.V V V V V V V V V f f d f V O o o o O o o O o o o O o o O o o e.8 N.3.1.7.7.7.7.} I 9 O...q , #.V f f f f f V V V V V V f V : ",
"#.V Z M V Z M m V V f f f f V O o o o o o o o O o O o o o o o o r.9 N.5.7.7.7.7.7.@.P 9 =...q , #.C f f v v v f f f f v v v f : ",
"= , , - - - - - * - $ $ - - - O o o o o o o o o o o o o O o o o e.8 N.5.>.=.*.*.$.^ H e O...q = = , : : , : , , , , , , : , = # ",
"! ( ( ( f $ f ! ! ! ( ( #.#.#.- o o o O o o o o o o o o o o o o e.8 N.J H P L L L R R w X...q ! ! ! / ! v & V #.#.( #.#.( #.#.#.",
"V V f f V - #.V N f v v v v f - o o o o o o o o o o o o o o o o e.6 j.G G G F F D L B r O...q f c m f V V , #.V Z V V V f V V V ",
"V V f f V % #.V C f f f f f v $ o o o o o o o o o o o o o o O o r.4 a w r e e e w e e 7 ....q d f f f N v , #.V V V V V f V V V ",
"f f f v M - #.V V f v f f f f $ o O o o o o o o o o o o o o o o r.s c c x b v j j v v g &...q s f f m V V , #.V v f f f f f f f ",
", , : : , % % $ $ $ $ $ - = = $ O o o o O o o o o o O o o o o o <.m.b.b.z.z.l.k.l.j.k.f.9.o.q = , : : , : # : # # # @ @ : : & & ",
"( ( ! #.( ( ( ! f % v ! ( #.#.- o o o o o o o o o o o o o o o o  .i.a.l.b.b.b.m.b.m.N.M.r.o.q #.#.! #.#.! ! ! ! V = f ! ! / ( ( ",
"f f f f f f f f x $ ! v N V V $ o o o o o o o O o O o o o o o o   X   5.6.6.6.6.6.y.y.w.9.O.q V V f V V f V V f f > ( v f v f f ",
"v v f f f f V V x $ ! v v v x $ o o o o o o o o o o o o o o o o s 1 = :.:.:.3.3.5.8.8.5.5.X.q f f f v v f V V f f > #.V V V V V ",
"V V f V f v V V v % ( v v v f $ o o o o o o o o o o o o o o o o p.U U W W Q Q / ` ' [ [ <.X.q V V V f f f f f f f : #.V V V V v ",
"= = # # # & & & % % % $ $ $ $ O o o o O o o o o o o o o o o o o 5.M F L I I I L L L I H ;.o.q & & & & = = = = = # # & & = = = = ",
"V #.! ! ! ( ( ( #.( #.#.#.#.B O o o o o O o o o o o O o o o o o i.0 q u f f c m N D F D :.%.q = v ( ( #.#.#.( #.! #.#.( #.#.V = ",
"! f V V f v V v v v V V B B B O o o O o o o o o o o o o o o o o t.q F j a 0 7 8 7 w e 0 $...q , ( v v V V V V V v v f f v v v : ",
"#.f v v f v V v V V V V D N B $ o o o o o o o o o o o o o o o o t.0 M.v.h.q.;.| W F v w $...q , #.V v V V V V V v v f f f f f : ",
"! f f f f f V f V V V V V Z B O o o o o o O o o o o o o o O o o t.8 N.v.M.M.n.n.n.b.h.9 *...q , #.V f f f f v v v v f V V f f : ",
"= , : $ $ $ $ $ - % % - , , = O o o o o o o o o o o o O o o o O t.8 N.9.w.t.j.k.x.x.g.8 =...q # & , : , , : , , : : : , , : & = ",
"#.#.( ! v - N ( #.#.#.( #.#.#.- o O o o o o o o o o o o o o o o t.8 N.5.1.1.<.<.0.*.] 9 &.X.q ( ( #./ #.V # f ! ! ( ! ( ( ! #.#.",
"V V v f v % ( v V V V V V V V % o o o o o O o o o o o o o o o O t.3 N.:.7.w.7.7.5.{ G w O...q V V V v i f : ( v V f f v v f v v ",
"v v v f v , #.v v f f f f f f % o o o o o o o o o o o o o o o o t.9 N.U E ) ..*.6.@.U q &...q v v v v x f : ! f f f f v f f f f ",
"V V V V v , #.v v f V V f v V - o o o o o o o o o o o o o o o o t.9 5.F P E E L U E P w o...q V v v V f V 1 #.V V V V v V V V V ",
", , : , > = , - & # # # # & = O O o o o o o o o o o o o o O o o e.9 0 u g M Z L L E R 9 O...q = : - : : , * - - - - - $ = & = = ",
"#.#.#.#./ #.#.! f & f ! ! ! W - o o o o o O O o O o o o o o o o 9._ S f r w r t x N D e &...q ! ! ! #.#.#.#.#.#.Z - V ( #.#.#.#.",
"V V V V x i x i f : ! f f v v $ o o o o o o o o o o o o o o o o <.s.s.0...E b t r r t 9 O...q v V v V v V V V f f $ ( v V V V V ",
"V V V V v v f f f , #.V V V v % o O o o o o o o o o O o o o o o T _ [ :.p.j.w.*.~ Z s q ....q v V v V V V V V f v : ! f V v Z V ",
"V V V V v V V v f , #.v V V f $ o o o o o o o o o o o o O o o o : < B T _ ` :.u.s.t.2.' =.$.6 f f f f f f f f f v , #.V f f f f ",
"# # & & & = = & # = = = = = & O o o o o o o o o o o o o o o o o o o + < n Y T K ' ;.e.s.u.&.6 % $ & # = & = = # # = = = # # & & ",
"v ! ( ( ( ( ! ! ! #.#.#.#.#.v O o o o o o O o o o o o o o o o o o o o o o * 5 B B Z U ' $.&.q - f ! ! #.( ( ! ! ! ! ! ! #.#.V & ",
"( f v V v v f v f f f v v v V O o o o O o o o o o o o o o o o O o o o o o o o o , C C B A K q - #.V f V V V v f f V V f V V V : ",
"! f f f f f f f f f f v v v V O o o o o o O o o o O o o o o o o o o o o o o o o o o @ B C C 2 - ( V f V V V f f f f f f f f f : ",
"#.V V V V V V V Z V f v v v V O o o o o o o o o o O o o o o O o o o o O o o o o o o o @ # < n , #.V f V V V f V V V V V V f v : ",
"= , , , , , , , , , : $ $ $ - - o O o o o o o o o o o o o o o o o o o o o o o o o o o o o o o = = , : : : : : , , , , , , : = # "
};
