/* XPM */
static char *result[] = {
/* columns rows colors chars-per-pixel */
"64 64 16 1 ",
"  c #3C3C48",
". c #45424F",
"X c #4F4A57",
"o c #524F5B",
"O c #54505D",
"+ c #5B5A68",
"@ c #59606F",
"# c #636674",
"$ c #6F7987",
"% c #707D8C",
"& c #758290",
"* c #768492",
"= c #778493",
"- c #8F96A5",
"; c #96A2B1",
": c #AFB9C9",
/* pixels */
"=:::::::::::::::=:::::::::::::::=:::::::::::::::=:::::::::::::::",
":=========@@==# :=@@=$======$=O :=========@@==# :=@@=$======$=O ",
":$$$@@@@@@$$==# :@@@$$===$==$=O :$$$@@@@@@$$==# :@@@$$===$==$=O ",
":=@@=====@$$$$. :$@=========@=O :=@@=====@$$$$. :$@=========@=O ",
":=@@=$===@@@@@+ :@@=$=======@=O :=@@=$===@@@@@+ :@@=$=======@=O ",
":@@$=====@$@@@. :@$=====$@@@@@X :@@$=====@$@@@. :@$=====$@@@@@X ",
":$@$$$$@@@@@==# :@$$@@@@@@@@==o :$@$$$$@@@@@==# :@$$@@@@@@@@==o ",
":$@=$$$@@$$@$=# :@==@@@@==@@@@o :$@=$$$@@$$@$=# :@==@@@@==@@@@o ",
":@@@@@@@@$@$==# :@==@==@@$$$@$X :@@@@@@@@$@$==# :@==@==@@$$$@$X ",
":$@@@@==@@@$$$. :@$$@==@@$====O :$@@@@==@@@$$$. :@$$@==@@$====O ",
":=@=@$==$$$$$$. :=@@@@@@@@====O :=@=@$==$$$$$$. :=@@@@@@@@====O ",
":=@@@$$$$$$@@@. :$$=====@@$$==O :=@@@$$$$$$@@@. :$$=====@@$$==O ",
":=@@@$$$=$====# :$$===$=@==$==O :=@@@$$$=$====# :$$===$=@==$==O ",
":@==@$=$$$====# :$$=====$$@@$$o :@==@$=$$$====# :$$=====$$@@$$o ",
":@$$@$=$======# :=$=====$$@@@@X :@$$@$=$======# :=$=====$$@@@@X ",
":               :               :               :               ",
"=:::::::::::::::$:::::::::::::::=:::::::::::::::$:::::::::::::::",
":=$@$==$===$==# :=@==@@@@$@$$@O :=$@$==$===$==# :=@==@@@@$@$$@O ",
":=$@$$$$======# :=$@@@$$=@@$$@o :=$@$$$$======# :=$@@@$$=@@$$@o ",
":$$@$==$$@@@@@. :$$@@@@@@@@$@@X :$$@$==$$@@@@@. :$$@@@@@@@@$@@X ",
":===$==$$@==@$# :$=@=======$==O :===$==$$@==@$# :$=@=======$==O ",
":=$=$==$$@@@@$# :@@@=======@=$O :=$=$==$$@@@@$# :@@@=======@=$O ",
":===@==@@$@@@@. :@=========$==O :===@==@@$@@@@. :@=========$==O ",
":===@@@@@@@@@$+ :$=$===@@@$$==O :===@@@@@@@@@$+ :$=$===@@@$$==O ",
":===$$@@@=====+ :$=====@$$@@=$O :===$$@@@=====+ :$=====@$$@@=$O ",
":===$==$@==$==. :@@@@@@@$===@@X :===$==$@==$==. :@@@@@@@$===@@X ",
":@$$$==$@=====+ :$@=$==@@===@@o :@$$$==$@=====+ :$@=$==@@===@@o ",
":@$$$$@@@=====+ :@@=$$@@@@@@==O :@$$$$@@@=====+ :@@=$$@@@@@@==O ",
":@$=$$@$@@@$$$# :=@===$@@==@==O :@$=$$@$@@@$$$# :=@===$@@==@==O ",
":@@@@@@@@@@$$$# :=@===@@@@@@@@X :@@@@@@@@@@$$$# :=@===@@@@@@@@X ",
":=========@$$$# :=@===@======@o :=========@$$$# :=@===@======@o ",
":               :               :               :               ",
"*::::::::::::::;*::::::::::::::;*::::::::::::::;*::::::::::::::;",
":*=$======$=@@# :===@@========# :*=$======$=@@# :===@@========# ",
":*=$==$===$$@@. :===$$@@@@@@$$+ :*=$==$===$$@@. :===$$@@@@@@$$+ ",
":*=@=========@+ :@$$$$@=====@@# :*=@=========@+ :@$$$$@=====@@# ",
":*=@=======$=@. :$@@@@@===$=@@# :*=@=======$=@. :$@@@@@===$=@@# ",
":%@@@@@$=====$. :@@@@$@=====$@. :%@@@@@$=====$. :@@@@$@=====$@. ",
":&==@@@@@@@@$$. :===@@@@@$$$$@+ :&==@@@@@@@@$$. :===@@@@@$$$$@+ ",
":&@@@@==@@@@==. :==$@$$@@$$$=@+ :&@@@@==@@@@==. :==$@$$@@$$$=@+ ",
":%$@$$$@@==@==. :===$@$@@@@@@@. :%$@$$$@@==@==. :===$@$@@@@@@@. ",
":*====$@@==@$$. :@$$$@@@==@@@@+ :*====$@@==@$$. :@$$$@@@==@@@@+ ",
":*====@@@@@@@@# :@$$$$$$==$@=@# :*====@@@@@@@@# :@$$$$$$==$@=@# ",
":*==$$@@=====$+ :@@@@$$$$$$@@@# :*==$$@@=====$+ :@@@@$$$$$$@@@# ",
":*==$==@=$===$+ :=====$=$$$@@@# :*==$==@=$===$+ :=====$=$$$@@@# ",
":&$$@@$$=====$+ :=====$$$=$@==. :&$$@@$$=====$+ :=====$$$=$@==. ",
":%@@@@$$=====$# :=======$=$@$$. :%@@@@$$=====$# :=======$=$@$$. ",
":               :               :               :               ",
"*::::::::::::::-*::::::::::::::;*::::::::::::::-*::::::::::::::;",
":*@$$@$@@@@==@# :===$===$==$@$# :*@$$@$@@@@==@# :===$===$==$@$# ",
":&@$$@@=$$@@@$# :=======$$$$@$# :&@$$@@=$$@@@$# :=======$$$$@$# ",
":%@@$@@@@@@@@$+ :@@@@@@$$==$@$+ :%@@$@@@@@@@@$+ :@@@@@@$$==$@$+ ",
":*==$=======@=+ :=$@==@$$==$==# :*==$=======@=+ :=$@==@$$==$==# ",
":*$=@=======@@. :=$@@@@$$==$=$# :*$=@=======@@. :=$@@@@$$==$=$# ",
":*==$=========. :@@@@@$@@==@==# :*==$=========. :@@@@@$@@==@==# ",
":*==$$@@@===$=+ :$$@@@@@@@@@==# :*==$$@@@===$=+ :$$@@@@@@@@@==# ",
":*$=@@$$@=====+ :$=====@@@$$==# :*$=@@$$@=====+ :$=====@@@$$==# ",
":%@@===$@@@@@@. :@==$==@$==$==# :%@@===$@@@@@@. :@==$==@$==$==# ",
":&@@===@@==$=@+ :$=====@$==$$$. :&@@===@@==$=@+ :$=====@$==$$$. ",
":*==@@@@@@$$=@. :$=====@@@$$$$. :*==@@@@@@$$=@. :$=====@@@$$$$. ",
":*==@==@@$===@# :=$$$@@@$@$$=$. :*==@==@@$===@# :=$$$@@@$@$$=$. ",
":%@@@@@@@@===@# :=$$$@@@@@@@@@. :%@@@@@@@@===@# :=$$$@@@@@@@@@. ",
":&@======@===@# :=$$$@========# :&@======@===@# :=$$$@========# ",
":               :               :               :               "
};
