/* XPM */
static char *result[] = {
/* columns rows colors chars-per-pixel */
"64 64 223 2 ",
"   c #010002",
".  c #0C0204",
"X  c #050209",
"o  c #0B040C",
"O  c #0E090D",
"+  c #05090A",
"@  c #12060B",
"#  c #19060A",
"$  c #140B0D",
"%  c #1A0D0E",
"&  c #140806",
"*  c #1C100F",
"=  c #17100C",
"-  c #0E0812",
";  c #0D0713",
":  c #150C12",
">  c #1A0E12",
",  c #190E19",
"<  c #140C16",
"1  c #161115",
"2  c #1C1214",
"3  c #1F1815",
"4  c #1D131A",
"5  c #1F191A",
"6  c #200E0E",
"7  c #22110F",
"8  c #28130E",
"9  c #210F12",
"0  c #221415",
"q  c #2A1615",
"w  c #241816",
"e  c #2A1A15",
"r  c #23151A",
"t  c #251A1B",
"y  c #2A1C1C",
"u  c #29151B",
"i  c #311E1C",
"p  c #2E211E",
"a  c #33221C",
"s  c #3A231D",
"d  c #1E1620",
"f  c #261B22",
"g  c #2B1E22",
"h  c #271F28",
"j  c #321E21",
"k  c #2D2123",
"l  c #2F2529",
"z  c #262023",
"x  c #332424",
"c  c #3A2625",
"v  c #342925",
"b  c #3B2925",
"n  c #342529",
"m  c #3A2629",
"M  c #35292B",
"N  c #3B2B2C",
"B  c #3C302E",
"V  c #3C2E32",
"C  c #3D3133",
"Z  c #412B25",
"A  c #432E2C",
"S  c #492A28",
"D  c #43302B",
"F  c #4A342D",
"G  c #4D392E",
"H  c #52322C",
"J  c #432D32",
"K  c #433333",
"L  c #4A3432",
"P  c #4B3932",
"I  c #453939",
"U  c #4C3B3A",
"Y  c #44343A",
"T  c #543B34",
"R  c #5B3C34",
"E  c #543D3C",
"W  c #563837",
"Q  c #653F3D",
"!  c #4B413E",
"~  c #55413B",
"^  c #5C443D",
"/  c #594236",
"(  c #63453C",
")  c #674438",
"_  c #7B4F3F",
"`  c #543D40",
"'  c #554343",
"]  c #5A4746",
"[  c #594E4D",
"{  c #664B44",
"}  c #6A4C45",
"|  c #6B4C49",
" . c #624846",
".. c #754C44",
"X. c #704F4F",
"o. c #6C5349",
"O. c #675249",
"+. c #74534B",
"@. c #7A544B",
"#. c #795B4C",
"$. c #665656",
"%. c #7B5B51",
"&. c #785753",
"*. c #7B6159",
"=. c #6E6163",
"-. c #776A69",
";. c #7E7477",
":. c #863B3C",
">. c #814043",
",. c #83594B",
"<. c #835D55",
"1. c #8A5F58",
"2. c #875D58",
"3. c #964A4B",
"4. c #A8504F",
"5. c #AF4C51",
"6. c #A84D4F",
"7. c #8B6454",
"8. c #84645C",
"9. c #8C655A",
"0. c #876657",
"q. c #93655B",
"w. c #9A6B5C",
"e. c #96665A",
"r. c #97725E",
"t. c #A1695B",
"y. c #896B61",
"u. c #946B63",
"i. c #9A6D63",
"p. c #946D68",
"a. c #9C7166",
"s. c #9B7569",
"d. c #9A786A",
"f. c #8A7260",
"g. c #AA6B64",
"h. c #A37465",
"j. c #AA7365",
"k. c #A47569",
"l. c #A37A6C",
"z. c #AC7C6D",
"x. c #AB7868",
"c. c #B37D6C",
"v. c #B5716A",
"b. c #A67C73",
"n. c #AD7C72",
"m. c #B27D72",
"M. c #B27270",
"N. c #B36C64",
"B. c #D27175",
"V. c #AA816F",
"C. c #B4816E",
"Z. c #BA8A6F",
"A. c #AD8475",
"S. c #AF8579",
"D. c #B38373",
"F. c #BB8574",
"G. c #BB8A74",
"H. c #B5857A",
"J. c #BB8B7B",
"K. c #B78878",
"L. c #BE937B",
"P. c #C28C7B",
"I. c #C98E78",
"U. c #C38977",
"Y. c #D28B7C",
"T. c #C4917C",
"R. c #CB947D",
"E. c #C69174",
"W. c #D0947E",
"Q. c #D19B7E",
"!. c #917E84",
"~. c #D97980",
"^. c #8F8481",
"/. c #93868B",
"(. c #AB8C81",
"). c #BB8C83",
"_. c #B38680",
"`. c #BB9689",
"'. c #C48E84",
"]. c #C49384",
"[. c #CB9585",
"{. c #CB9987",
"}. c #D49B85",
"|. c #D39C8A",
" X c #DB9F8D",
".X c #D69886",
"XX c #DB9E93",
"oX c #D69E95",
"OX c #C79E92",
"+X c #E29B91",
"@X c #D4A08D",
"#X c #DBA28E",
"$X c #CDA293",
"%X c #D4A193",
"&X c #DBA393",
"*X c #DDA69C",
"=X c #D5AB9B",
"-X c #DBAB99",
";X c #E3A595",
":X c #E4AC9C",
">X c #EBAD9C",
",X c #E1A897",
"<X c #EDB39B",
"1X c #F4AE9D",
"2X c #DDB2A2",
"3X c #E2ABA3",
"4X c #E7ABA2",
"5X c #F0AFA0",
"6X c #EBB2A4",
"7X c #EDB4AB",
"8X c #EAB5A8",
"9X c #F5BBAD",
"0X c #FCBCAC",
"qX c #F6B9A6",
"wX c #F5BDB6",
"eX c #FBBEB7",
"rX c #FFC3AC",
"tX c #F8C1B4",
"yX c #FBC4BC",
"uX c #F9C4B8",
"iX c #FFDFCE",
"pX c #FFC7C1",
"aX c None",
/* pixels */
"aXaXaXaXaXaXaXaXaXaXaXaXaXaXaXaXaXaXaXaXaXaXaXaXaXaXaXaXaXaXaXaXaXaXaXaXaXaXaXaXaXaXaXaXaXaXaXaXaXaXaXaXaXaXaXaXaXaXaXaXaXaXaXaX",
"aXaXaXaXaXaXaXaXaXaXaXaXaXaXaXaXaXaXaXaXaXaXaXaXaXaXaXaXaXaXaXaXaXaXaXaXaXaXaXaXaXaXaXaXaXaXaXaXaXaXaXaXaXaXaXaXaXaXaXaXaXaXaXaX",
"aXaXaXaXaXaXaXaXaXaXaXaXaXaXaXaXaXaXaXaXaXaXaXaXaXaXaXaXaXaXaXx K U V V x aXaXaXaXaXaXaXaXaXaXaXaXaXaXaXaXaXaXaXaXaXaXaXaXaXaXaX",
"aXaXaXaXaXaXaXaXaXaXaXaXaXaXaXaXaXaXaXaXaXaXaXaXaXaXaXaXO.b , < @ @ @ > r 0 r m aXaXaXaXaXaXaXaXaXaXaXaXaXaXaXaXaXaXaXaXaXaXaXaX",
"aXaXaXaXaXaXaXaXaXaXaXaXaXaXaXaXaXaXaXaXaXaXaXaXaXaXaXc $ O , 4 2 , , 5 4 2 @ - : > 2 aXaXaXaXaXaXaXaXaXaXaXaXaXaXaXaXaXaXaXaXaX",
"aXaXaXaXaXaXaXaXaXaXaXaXaXaXaXaXaXaXaXaXaXaXaXaXaXaXN , : 2 1 1 4 0 r 2 2 , > , , , 0 f t r aXaXaXaXaXaXaXaXaXaXaXaXaXaXaXaXaXaX",
"aXaXaXaXaXaXaXaXaXaXaXaXaXaXaXaXaXaXaXaXaXaXaXaXc r 4 2 2 1 1 1 1 2 3 4 , 1 : , 3 f r r 4 r t aXaXaXaXaXaXaXaXaXaXaXaXaXaXaXaXaX",
"aXaXaXaXaXaXaXaXaXaXaXaXaXaXaXaXaXaXaXaXaXaXaXk 3 3 2 2 4 , , 2 : : 1 1 $ $ : 1 , , < > < , 3 t aXaXaXaXaXaXaXaXaXaXaXaXaXaXaXaX",
"aXaXaXaXaXaXaXaXaXaXaXaXaXaXaXaXaXaXaXaXaXaXt , 2 4 4 : , > > , 2 , : : : : : 1 : : 1 : : > 4 p x aXaXaXaXaXaXaXaXaXaXaXaXaXaXaX",
"aXaXaXaXaXaXaXaXaXaXaXaXaXaXaXaXaXaXaXaXaXx > 4 3 t k 5 @ > % > r : 2 , , , 1 : : : 1 2 > , < r v L aXaXaXaXaXaXaXaXaXaXaXaXaXaX",
"aXaXaXaXaXaXaXaXaXaXaXaXaXaXaXaXaXaXaXaXb 0 2 0 w t n M t $ : , 5 f f 3 0 < : - , 4 , , , 4 4 , 0 j m aXaXaXaXaXaXaXaXaXaXaXaXaX",
"aXaXaXaXaXaXaXaXaXaXaXaXaXaXaXaXaXaXaXaXt 0 0 0 4 3 y l l y 0 f k M M g f , 4 f l l 5 4 4 4 r t 0 3 0 aXaXaXaXaXaXaXaXaXaXaXaXaX",
"aXaXaXaXaXaXaXaXaXaXaXaXaXaXaXaXaXaXaXe 0 w 2 * 4 r 0 2 r y j g M V V V r r M n f M M k f 0 r t f t 0 > $.aXaXaXaXaXaXaXaXaXaXaX",
"aXaXaXaXaXaXaXaXaXaXaXaXaXaXaXaXaXaXx 0 4 0 2 4 y r t r 0 4 2 > 1 z M V j g M k y l M n g f u 4 3 g l > x aXaXaXaXaXaXaXaXaXaXaX",
"aXaXaXaXaXaXaXaXaXaXaXaXaXaXaXaXaXP 2 2 * 2 r p y u y g J T R R U m k j j V g g l y 4 2 4 y g t 2 g x r 0 A aXaXaXaXaXaXaXaXaXaX",
"aXaXaXaXaXaXaXaXaXaXaXaXaXaXaXaXE p 0 2 2 3 y r w w 2 x +.k.M.m.K.m.u.` ` ` m L { { G c x r w t 5 r v x % x $.aXaXaXaXaXaXaXaXaX",
"aXaXaXaXaXaXaXaXaXaXaXaXaXaXaXaXc y r 0 > 2 0 0 2 $ 2 ) w.c.G.U.I.W..X[.n.u.#.e.k.j.q.+.] x * 4 4 2 y M 2 9 ` aXaXaXaXaXaXaXaXaX",
"aXaXaXaXaXaXaXaXaXaXaXaXaXaXaX~ y y 4 2 > % % % $ > Z 2.h.c.R.R.I.I.W.|.&X[.J.D.C.V.h.w.@.Z 2 2 = * 4 l M > x aXaXaXaXaXaXaXaXaX",
"aXaXaXaXaXaXaXaXaXaXaXaXaXaXaX` 2 4 > % : : : $ # b +.h.D.T.W..X}..X XoX&XXX{.T.Z.c.k.w.,.F % r 2 4 w p x t % aXaXaXaXaXaXaXaXaX",
"aXaXaXaXaXaXaXaXaXaXaXaXaXaXaXE $ 4 > % : : > $ 0 / a.U.T.R.}.#X>XqX6X7X6X&X|.R.U.U.c.w.0.~ 0 f t 4 5 t y y $ aXaXaXaXaXaXaXaXaX",
"aXaXaXaXaXaXaXaXaXaXaXaXaXaXaXE > y > - $ O 1 X a <.c.J.R.R..XXX>XeXyXeXwX:X|.{.I.I.D.h.2.~ w 0 g 3 4 t t y w aXaXaXaXaXaXaXaXaX",
"aXaXaXaXaXaXaXaXaXaXaXaXaXaXaXi x c $ O O : o w @.j.F.I.R.Q. XXX>XwXpXwX7X-X#X|.|.].F.j.0.~ t , g r 2 f t , k aXaXaXaXaXaXaXaXaX",
"aXaXaXaXaXaXaXaXaXaXaXaXaXaXaXy n j > t $ o 2 | k.D.E.W..X#X;X;X>X7XuXwX8X8X-XoX|.].F.s.0.~ t : M y 1 y y : t aXaXaXaXaXaXaXaXaX",
"aXaXaXaXaXaXaXaXaXaXaXaXaXaXF x x m y b : X b 9.h.n.C.v.U.;X0X0X9XwXyXyXwX8X:XoX[.P.D.b.9.{ 3 : M 4 $ t f 2 0 aXaXaXaXaXaXaXaXaX",
"aXaXaXaXaXaXaXaXaXaXaXaXaXaXA y v N g Z g @ L h.i.u.7.2.&.2.H.7XpXyXwXwX7X7X3XoX[.'.J.n.p.| 2 2 k 2 3 f l 0 2 t aXaXaXaXaXaXaXaX",
"aXaXaXaXaXaXaXaXaXaXaXaXaX] y b B b g { H 9 J s.h.u.n.'._.%.H W u.XX7X:X3X8X3XoXoX*X'.b.2.U X 4 x t t z g r 2 0 n aXaXaXaXaXaXaX",
"aXaXaXaXaXaXaXaXaXaXaXaXaXi j b n j r &.e.S t ] '.h.h.'.XX>X%X9.H ) '.3X3X*X X[.i.X.E L ` g X , k 2 t t k x r 0 r Y aXaXaXaXaXaX",
"aXaXaXaXaXaXaXaXaXaXaXaXs y y y u g 0 ( U.) G k p.P.,...9.'.*X|.J.a.v.%X3XXXJ.2.W R { %.&.4 X : l t 2 2 g C f t y l aXaXaXaXaXaX",
"aXaXaXaXaXaXaXaXaXaXaXaXp e q 2 4 t r ] G...+.^ ; J y @ : f , u T s.XX4X7X).<.i.=X%Xm.8.I 4 d 1 l p 1 2 r V z t x l aXaXaXaXaXaX",
"aXaXaXaXaXaXaXaXaXaXaXaXq w 0 2 2 w r U T.t._ V.@   + $ X X X X   & ] 0XiXh.%.p. .M 4 : O 1 4 2 3 w t t r M n 2 4 l aXaXaXaXaXaX",
"aXaXaXaXaXaXaXaXaXaXaXP i y 0 * 3 r 5 i ].}...A.n.2 X , , : < 2 2 o   I 8.W j 4       X o o o - % 0 f M n n C y & p aXaXaXaXaXaX",
"aXaXaXaXaXaXaXaXaXaXaXL c y w r t 1 f $ O.].7.e.>X..  r 4 2 , , , 4 -       X o : : ; ; o ; o $ > 0 u x x g K n % w ;.aXaXaXaXaX",
"aXaXaXaXaXaXaXaXaXaXaXS N v y l t , r $ @ j +.k.[.P.@ X f r 3 , % % . 1.4XN   , : : - - O X < 3 2 4 2 0 0 q c K t 2 M aXaXaXaXaX",
"aXaXaXaXaXaXaXaXaXaXaXZ J M v v r f t % @ . { m.G.<Xk..   @ @ .     R 1XrX..  o , : : - o O 2 * k f = * > > y K x w O =.aXaXaXaX",
"aXaXaXaXaXaXaXaXaXaXi c N k x p 0 g r : $ o | z.G.[.qX.Xo.M m m m ) Y.+XY.h.L         1 4 3 l M k : $ t 0 9 x v ] ' 5 l Y aXaXaX",
"aXaXaXaXaXaXaXaXaXb i j i x y a k l 2 % > X ( m.F.[. X0XyX7X,X6X|.j.U.>X+Xw.D.p.T L U f 1 z C M t 2 2 k b g g i A $.' [ C aXaXaX",
"aXaXaXaXaXaXaXaXT Z s e y x w k y w 0 0 2   H m.P.[.|.:X1XqXrX0X>XT.c.z.n.i.[.5X#X].*.2 O 2 p k l t 2 p K x y g % V ! ^./.aXaXaX",
"aXaXaXaXaXaXaX^ o.s y 0 y a 0 y 0 0 g t % @ y a.F.U.}. X#X,X1X>X<XqX,XG.s.H.%X].J.f.M + = : 2 0 x p w p p 2 w 0 : f $.=./.$.aXaX",
"aXaXaXaXaXaXaX/ O.s 7 2 w 0 0 x t 3 t j x t O } G.G.R.}.}.@X&X>X<XtX>X<XOXH.J.S.p.O.5 $ : 2 2 2 0 * w 4 : > r 2 > > U ' -.-.aXaX",
"aXaXaXaXaXaXR / O.a > 0 0 * % x j 2 t j P v $ t q.E.L.R.Q.Z.t.c.j.t.v.j.i.d.V.p.*.N k v 4 y u % 0 2 2 * : 1 0 w 0 0 g N U aXaXaX",
"aXaXaXaXaXaXaXG T 8 0 0 % % $ 0 g , k e y 0 l 1 a z.G.Z.E.R.N.5.4.6.:.:...u.a.*.~ g M g w x x y p M t $ > 2 2 w x b x aXaXaXaXaX",
"aXaXaXaXaXaXaXP 8 e % 0 % $ > $ 2 > l x r > t 3   B b.G.G.R.[.v.B..XB.5.3.x.r.' g w 2 > 2 0 0 r t x t $ 1 0 y N x x aXaXaXaXaXaX",
"aXaXaXaXaXaXaXF q e 6 > $ $ % % 2 4 r e 2 2 2 $ $ $ ^ z.L.G.L.J.n.M.N.4.a.f.P l l w $ @ % > % 0 2 p c > t e b x * aXaXaXaXaXaXaX",
"aXaXaXaXaXaXaX~ ~ q % : $ 2 = : r 2 > e w f 2 $ * * G #.l.%X%X-X%X].K.D.d.U z M e > : : % 2 i x t t x k b b n aXaXaXaXaXaXaXaXaX",
"aXaXaXaXaXaX^ o.P 8 & @ 2 p w $ r 5 $ y v k t 1 % * b %.*.A.2X7X4X*X=X$X+.# k v 2 O = > 9 2 y x 4 2 2 k i y i aXaXaXaXaXaXaXaXaX",
"aXaXaXaXaXaX^ o.a w % 0 t M p % w t $ t B k t p $ * % T d.9.s._.).].).*.t $ 2 0 t $ 0 y 9 2 0 > * 0 t e u y aXaXaXaXaXaXaXaXaXaX",
"aXaXaXaXaXaX{ ^ s b 0 4 k x * 2 t y $ t I x 2 t 2 0 t y o.C.e.,.f.p.O.w 2 3 $ t g % c v 0 y 7 2 0 0 v b w y aXaXaXaXaXaXaXaXaXaX",
"aXaXaXaXaXaXG F L c * y n t * 0 4 g $ 5 D k = $ 4 0 k b i ,.F.x.V.9.~ p > 2 $ M k y I t p B e 0 0 y x x b aXaXaXaXaXaXaXaXaXaXaX",
"aXaXaXaXaX&.D s b 2 2 x x w 0 0 0 b r 5 K t $ $ $ w v w w ( x.[.R.7./ y t = w N x K N y V ' j u y v K e y aXaXaXaXaXaXaXaXaXaXaX",
"aXaXaXaXaX^ e e a 0 q x g 0 t 2 2 x n 0 v k $ $ $ * ! w . ( z.{.L.7.T y k * t k N N y x C I a y b k b 2 aXaXaXaXaXaXaXaXaXaXaXaX",
"aXaXaXaXaXG = 0 w w e g t t y q t # y w p g % $ > $ x 4 & ) D.{.h.9.b t g l p k M g k K I k 0 r r u % > aXaXaXaXaXaXaXaXaXaXaXaX",
"aXaXaXaXaXH & * 2 w r u w y y b y $ 2 w x c $ $ @ > $ & s ,.V.$Xd./ $ 2 f k 4 0 l c N ] I z > > r 9 # 0 aXaXaXaXaXaXaXaXaXaXaXaX",
"aXaXaXaXaXG s a w y u > u 0 i N w * % 7 w B 4 O @ 2 2 & ) G.z.=Xy.q 6 % > $ $ 0 N w K [ K a 0 % > % # aXaXaXaXaXaXaXaXaXaXaXaXaX",
"aXaXaXaXaXaXZ y u t 2 0 r % y x % 2 * 0 % p p O @ 2 0 & ( =XA.=Xo.0 f & $ > 0 x x % N U N N N 0 2 % % aXaXaXaXaXaXaXaXaXaXaXaXaX",
"aXaXaXaXaXaXa 7 q 2 % w 0 % y y % 0 0 t * % y 1 : > % 7 r d.K.$X#.6 @ : $ 2 y v v r a n w x b 0 2 $ aXaXaXaXaXaXaXaXaXaXaXaXaXaX",
"aXaXaXaXaXaXp 7 9 $ > w > % e y 9 0 0 v y # w 0 > r % 0 > b 8.$X8.. > > = 2 l v x v e % 0 w p 0 c aXaXaXaXaXaXaXaXaXaXaXaXaXaXaX",
"aXaXaXaXaXaXaXe % $ y y 0 # p x > 9 j N v 2 > t % t f 0 g & F 2X(.> > 4 2 * v N k B v * = w t p aXaXaXaXaXaXaXaXaXaXaXaXaXaXaXaX",
"aXaXaXaXaXaXaX0 % * y x 0 % b v 2 2 m k l g 2 p j g g g m w A =X`.t , 3 4 = a B x B M * $ 0 aXaXaXaXaXaXaXaXaXaXaXaXaXaXaXaXaXaX",
"aXaXaXaXaXaXaXaX* * y i > 0 aXaXaXaXN y y y 2 k m k k l V V s (.aX& r t 2 2 v N M B B aXaXaXaXaXaXaXaXaXaXaXaXaXaXaXaXaXaXaXaXaX",
"aXaXaXaXaXaXaXaXaXaXe w > aXaXaXaXaXaXaXaXaXaXaXaX% M n n r . aXaXaXaXaXaXaXaXaXaXB aXaXaXaXaXaXaXaXaXaXaXaXaXaXaXaXaXaXaXaXaXaX",
"aXaXaXaXaXaXaXaXaXaXaXaXaXaXaXaXaXaXaXaXaXaXaXaXaXaXaXaXaXaXaXaXaXaXaXaXaXaXaXaXaXaXaXaXaXaXaXaXaXaXaXaXaXaXaXaXaXaXaXaXaXaXaXaX",
"aXaXaXaXaXaXaXaXaXaXaXaXaXaXaXaXaXaXaXaXaXaXaXaXaXaXaXaXaXaXaXaXaXaXaXaXaXaXaXaXaXaXaXaXaXaXaXaXaXaXaXaXaXaXaXaXaXaXaXaXaXaXaXaX",
"aXaXaXaXaXaXaXaXaXaXaXaXaXaXaXaXaXaXaXaXaXaXaXaXaXaXaXaXaXaXaXaXaXaXaXaXaXaXaXaXaXaXaXaXaXaXaXaXaXaXaXaXaXaXaXaXaXaXaXaXaXaXaXaX",
"aXaXaXaXaXaXaXaXaXaXaXaXaXaXaXaXaXaXaXaXaXaXaXaXaXaXaXaXaXaXaXaXaXaXaXaXaXaXaXaXaXaXaXaXaXaXaXaXaXaXaXaXaXaXaXaXaXaXaXaXaXaXaXaX"
};
