/* XPM */
static char *result[] = {
/* columns rows colors chars-per-pixel */
"64 64 222 2 ",
"   c #010003",
".  c #0A0204",
"X  c #050208",
"o  c #0C050B",
"O  c #0D090D",
"+  c #130405",
"@  c #12060C",
"#  c #140B0D",
"$  c #1A0D0E",
"%  c #18070A",
"&  c #1B100F",
"*  c #17100F",
"=  c #0E0711",
"-  c #0D0812",
";  c #150C12",
":  c #1A0E13",
">  c #1A0F19",
",  c #140B14",
"<  c #161114",
"1  c #1D1214",
"2  c #1D1319",
"3  c #210E0E",
"4  c #21120E",
"5  c #210F12",
"6  c #221415",
"7  c #291515",
"8  c #251917",
"9  c #2C1A16",
"0  c #23151A",
"q  c #291619",
"w  c #251A1B",
"e  c #2A1C1C",
"r  c #311E1C",
"t  c #2D211E",
"y  c #34221D",
"u  c #38241E",
"i  c #251C21",
"p  c #2B1E22",
"a  c #251724",
"s  c #311E22",
"d  c #301F2A",
"f  c #2D2223",
"g  c #2B2126",
"h  c #332424",
"j  c #3A2624",
"k  c #352926",
"l  c #3B2A26",
"z  c #33262A",
"x  c #3A2629",
"c  c #352A2B",
"v  c #3B2C2B",
"b  c #3D312E",
"n  c #3D2D32",
"m  c #3D3132",
"M  c #42241D",
"N  c #422B23",
"B  c #432D2B",
"V  c #48282B",
"C  c #4C342D",
"Z  c #49342A",
"A  c #433333",
"S  c #4D3432",
"D  c #4E3935",
"F  c #4A3A3A",
"G  c #473939",
"H  c #523634",
"J  c #533C35",
"K  c #533C3B",
"L  c #5C3D3B",
"P  c #5B3A35",
"I  c #54372D",
"U  c #623C32",
"Y  c #53413D",
"T  c #5C423D",
"R  c #61443C",
"E  c #694A3D",
"W  c #714A3C",
"Q  c #483C42",
"!  c #7D3D40",
"~  c #524242",
"^  c #5D4C4D",
"/  c #584846",
"(  c #614743",
")  c #634B44",
"_  c #654949",
"`  c #6A4D4A",
"'  c #694C44",
"]  c #645142",
"[  c #6C554B",
"{  c #6A5349",
"}  c #755244",
"|  c #73534A",
" . c #74574C",
".. c #675657",
"X. c #7C5A53",
"o. c #7A5A57",
"O. c #7E4E48",
"+. c #7F6152",
"@. c #6E5E63",
"#. c #756869",
"$. c #7C706F",
"%. c #843C3D",
"&. c #9A423F",
"*. c #964547",
"=. c #805548",
"-. c #845D54",
";. c #8A5D54",
":. c #845E5E",
">. c #915F57",
",. c #A85859",
"<. c #AF4F51",
"1. c #84645B",
"2. c #8C655B",
"3. c #8C6A5D",
"4. c #876256",
"5. c #936B5C",
"6. c #9A6D5C",
"7. c #946459",
"8. c #91604D",
"9. c #8D6C63",
"0. c #8B6562",
"q. c #956C61",
"w. c #9C6D63",
"e. c #976B64",
"r. c #937366",
"t. c #9D7365",
"y. c #967369",
"u. c #9C756C",
"i. c #9C7C6E",
"p. c #9E7B66",
"a. c #94766C",
"s. c #A26E64",
"d. c #AF6E63",
"f. c #A47364",
"g. c #AA7965",
"h. c #A4756A",
"j. c #AC766A",
"k. c #A47B6B",
"l. c #AB7B6C",
"z. c #A87764",
"x. c #B37D6D",
"c. c #B37568",
"v. c #A67B72",
"b. c #AD7E73",
"n. c #B47D71",
"m. c #B67571",
"M. c #B46B6A",
"N. c #CD7273",
"B. c #AA826D",
"V. c #B6826F",
"C. c #AD8373",
"Z. c #A8867A",
"A. c #B58373",
"S. c #BB8573",
"D. c #BC8973",
"F. c #B68579",
"G. c #BB857B",
"H. c #BC8C7A",
"J. c #B68D7D",
"K. c #BD917C",
"L. c #C38C7B",
"P. c #CA8D78",
"I. c #C18A75",
"U. c #C6937D",
"Y. c #CB937D",
"T. c #C59375",
"R. c #D09A7D",
"E. c #9A898F",
"W. c #BB8D84",
"Q. c #BD9388",
"!. c #C48D82",
"~. c #C49281",
"^. c #CA9483",
"/. c #CD9B86",
"(. c #C6968A",
"). c #CB968C",
"_. c #C3998C",
"`. c #CA9C8C",
"'. c #D39784",
"]. c #D39A84",
"[. c #D1978C",
"{. c #D39B8B",
"}. c #DB9D8C",
"|. c #D89881",
" X c #D49C92",
".X c #DA9F91",
"XX c #D3958A",
"oX c #E79E8E",
"OX c #CEA18E",
"+X c #D4A18C",
"@X c #DAA28D",
"#X c #DEA187",
"$X c #CCA595",
"%X c #D5A393",
"&X c #DCA392",
"*X c #DCA599",
"=X c #D7A799",
"-X c #E2A695",
";X c #E3A99B",
":X c #EBAB9C",
">X c #E6A89A",
",X c #F0AE9E",
"<X c #EDB29B",
"1X c #EAB49E",
"2X c #F3B19F",
"3X c #DCB5A4",
"4X c #E3ADA3",
"5X c #F0AFA0",
"6X c #ECB3A4",
"7X c #EDB5AB",
"8X c #EBB6A6",
"9X c #F7B7A6",
"0X c #F4BBB3",
"qX c #F7BEB5",
"wX c #EFB9B0",
"eX c #FFC1AC",
"rX c #FAC3BB",
"tX c #FAC4B6",
"yX c #FFD1B8",
"uX c #FFC7C1",
"iX c #FFE3D1",
"pX c None",
/* pixels */
"pXpXpXpXpXpXpXpXpXpXpXpXpXpXpXpXpXpXpXpXpXpXpXpXpXpXpXpXpXpXpXpXpXpXpXpXpXpXpXpXpXpXpXpXpXpXpXpXpXpXpXpXpXpXpXpXpXpXpXpXpXpXpXpX",
"pXpXpXpXpXpXpXpXpXpXpXpXpXpXpXpXpXpXpXpXpXpXpXpXpXpXpXpXpXpXpXpXpXpXpXpXpXpXpXpXpXpXpXpXpXpXpXpXpXpXpXpXpXpXpXpXpXpXpXpXpXpXpXpX",
"pXpXpXpXpXpXpXpXpXpXpXpXpXpXpXpXpXpXpXpXpXpXpXpXpXpXpXpXpXpXpXpXpXpXpXpXpXpXpXpXpXpXpXpXpXpXpXpXpXpXpXpXpXpXpXpXpXpXpXpXpXpXpXpX",
"pXpXpXpXpXpXpXpXpXpXpXpXpXpXpXpXpXpXpXpXpXpXpXpXpX$.#./ #.pXpXpXpXpXpXpXpXpXpXpXpXpXpXpXpXpXpXpXpXpXpXpXpXpXpXpXpXpXpXpXpXpXpXpX",
"pXpXpXpXpXpXpXpXpXpXpXpXpXpXpXpXpXpXpXpXpXpXpXpXY $.E.E.k Q pXpXpXpXpXpXpXpXpXpXpXpXpXpXpXpXpXpXpXpXpXpXpXpXpXpXpXpXpXpXpXpXpXpX",
"pXpXpXpXpXpXpXpXpXpXpXpXpXpXpXpXpXpXpXpXpXpXpXpXh ~ ..#./ w / pXpXpXpXpXpXpXpXpXpXpXpXpXpXpXpXpXpXpXpXpXpXpXpXpXpXpXpXpXpXpXpXpX",
"pXpXpXpXpXpXpXpXpXpXpXpXpXpXpXpXpXpXpXpXpXpXpXk e A ^ G / i O f #.pXpXpXpXpXpXpXpXpXpXpXpXpXpXpXpXpXpXpXpXpXpXpXpXpXpXpXpXpXpXpX",
"pXpXpXpXpXpXpXpXpXpXpXpXpXpXpXpXpXpXpXpXpXpXk c 6 : 0 z ../ w 1 # # w h g n pXpXpXpXpXpXpXpXpXpXpXpXpXpXpXpXpXpXpXpXpXpXpXpXpXpX",
"pXpXpXpXpXpXpXpXpXpXpXpXpXpXpXpXpXpXpXpXpX6 l e 6 : : 5 h Y l p 1 : 8 h w 6 p pXpXpXpXpXpXpXpXpXpXpXpXpXpXpXpXpXpXpXpXpXpXpXpXpX",
"pXpXpXpXpXpXpXpXpXpXpXpXpXpXpXpXpXpXpXpXt v j 6 6 6 6 s f h A v v p 6 1 8 6 1 q pXpXpXF @.....pXpXpXpXpXpXpXpXpXpXpXpXpXpXpXpXpX",
"pXpXpXpXpXpXpXpXpXpXpXpXpXpXpXpXpXpXs e c h 6 1 6 0 6 e g e e h n m c c g w 1 1 6 1 w 6 + + 6 G _ pXpXpXpXpXpXpXpXpXpXpXpXpXpXpX",
"pXpXpXpXpXpXpXpXpXpXpXpXpXpXpXpXpXq q e l q 6 < ; : 0 k s 6 4 6 p g z c m g w 2 2 < 1 q p q 6 1 q l ^ pXpXpXpXpXpXpXpXpXpXpXpXpX",
"pXpXpXpXpXpXpXpXpXpXpXpXpXj 6 9 k 9 6 y k 8 < 1 # , g A h 0 1 6 x c 0 1 w f g f g f p w q k c w 1 1 q ~ pXpXpXpXpXpXpXpXpXpXpXpX",
"pXpXpXpXpXpXpXpXpXpXpXpX: % q t k v e h h & # # 1 8 e q e 6 & 6 s z 0 1 0 w t t 1 w a w q i f c k w 0 # f pXpXpXpXpXpXpXpXpXpXpX",
"pXpXpXpXpXpXpXpXpXpX$ % % 6 v b t f 1 1 h h e w 1 8 8 1 < ; < 8 6 q 0 2 1 2 w & # $ 1 1 2 8 1 w z k g 8 6 x pXpXpXpXpXpXpXpXpXpX",
"pXpXpXpXpXpXpXpXpX: $ 1 5 7 t h q 6 1 1 w q h k 1 6 h w & 1 g 1 6 6 w f g 1 w 1 w f w 2 2 1 < 1 2 w e w 0 p B pXpXpXpXpXpXpXpXpX",
"pXpXpXpXpXpXpXpXe 1 : : 0 h c 9 6 1 : 0 e 6 q w 1 6 h f f f w 1 : < 1 i g p z s z z i g p w 1 1 w 1 2 t 0 0 h h pXpXpXpXpXpXpXpX",
"pXpXpXpXpXpXpX6 7 9 7 $ 1 q q 0 6 1 6 h e 6 e e $ * 2 f m k 1 2 @ - < > , = = @ o o 2 1 0 1 1 1 w w 1 w w < 2 p w pXpXpXpXpXpXpX",
"pXpXpXpXpXpXpXe t v v 6 : w v k e 6 1 e 8 $ 7 h w 1 1 t m t - - X O 0 2   o : i h f f 9 6 1 2 : 1 p w 0 2 2 > : 1 0 pXpXpXpXpXpX",
"pXpXpXpXpX1 1 8 8 h l h f c G Y l 9 1 1 1 1 8 h 6 1 * 1 t * O X = o < w z v / o.| ] ` ) R L H l e w i 0 2 2 , : < 0 w pXpXpXpXpX",
"pXpXpXpXpX# # & 1 e A G G G m z 8 6 7 & $ : $ q w # O O < 2 o o = o - ^ :.K 9.u.5.3.2.7.4.;.-.) h 0 g w 2 2 : , > > w pXpXpXpXpX",
"pXpXpXpXpX1 1 & 4 v ~ ^ ~ z e q k v e $ # o < c k O X f g O = , -   1 q.| K F.b.v.k.l.l.f.6.6. .j 1 c g 2 : < < > 0 0 pXpXpXpXpX",
"pXpXpXpXb b b b e 9 h l v y h A m 9 & * < * q z e f Y y.A   ; ; =   e H.T ` ).H.F.H.H.S.n.g.f.6.D 8 c c i > > < , 0 > 6 pXpXpXpX",
"pXpXpXpXc v b k h 8 $ f z h A c 6 < ; # 1 8 q d G o.Z.~.j   , ; @   ~ =XS 0.*X^.L.~.^.P.I.x.x.f.( g g k g 2 , ; : a 2 < pXpXpXpX",
"pXpXpXpXpXc h f k y k c p c c h z h q 2 f p z ] +.u.W.@XB   > , #   0.(.H b. X[.`.{.].Y.L.S.A.f.T g a p f , ; < 2 2 2 , pXpXpXpX",
"pXpXpXpXpXv v m k k t 1 8 f p v f 1 8 c z z [ 9.a.W./.1Xv.  X , o g u.;.e.[..X*X%X@X+X/.^.U.A.;.B p g z i @ ; < < , : @ x pXpXpX",
"pXpXpXpXpXh t t p w 1 # t f 6 & O * 1 q d ] h.u.Z.J.+XF.l.K     X V o.1.^..X4X7X4X;X&X+X{.].G.| c h c z 2 , < , ; < ; @ p pXpXpX",
"pXpXpXpXpX& & # 1 : # $ f e & 1 1 2 @ 9 [ y.w.>.k.F.l.y.s.c.s._   ) !. X*X*X4X7X7X8X4X4X*X&X[.q.~ x q 2 > < < , ; ; < 2 6 pXpXpX",
"pXpXpXpXpX1 w < # # # 1 i p f 6 4 1 n y.B.e.*.! h.%Xw.G.:X|.yX=X  q.iX7X4X4X*X0XqX7X0X0X6X&X%Xn.J d x s i 2 2 ; 1 < 1 1 > h pXpX",
"pXpXpXpXpXw 2 8 1 @ @ : # 0 9 y y v i.%XB.,.<.%.n.<XD.A.>XoX|.V   z ;X>X[.4X4XrXrXrXtXqX7X}.{.^.Q s n A g 2 , < , 1 2 0 # B pXpX",
"pXpXpXpXpX1 o % @ 6 p % e R R R R +._.=XF.M.N.&.n.<X:XB.m.c.7   :   Q }.d.n.7XrXqXqXuXrX4X}.P.}.e.h z c c a : , < 2 0 > @ A pXpX",
"pXpXpXpXpXpXA e $ 9 r N  .t.6.6.p.a._.4X!.m.N.&.m.eX1XY.m.V   7 < @ . 0.y.P  XuXqX6X0X0X<X'.P.Y.b.c i n c w : : < 1 0 > @ F pXpX",
"pXpXpXpXpXpX3X$XZ.i.a.Z.B.A.OX^.t.9._.6XOXn.N.<.x.8X<X9X Xi X : 1 <   H ~.C 0.uX9X:X;X>X>X|.P.P.S.S , z f 1 2 1 : < 1 2 % B pXpX",
"pXpXpXpXpX9.W._.Q.Q._.OX$X~.~.!.z.-.W.7X%XD.n.<.c.1X2X9X;Xs o 2 0 > X x ;X4.L 7X9X-X@X&X}.'.Y.D.n.H : i a : 1 < < < < > > c pXpX",
"pXpXpXpX@ 9 e j +.C.B.B.g.k.w.w.S.7.r.3X+XK./.d.f.&X,XeX*Xd @ 0 > , X z 7X).P F.9X&X}.].].Y.U.H.h.P > s 6 # : : > 2 < < 1 pXpXpX",
"pXpXpXpXg A q 1 t r.%Xg.W Z Z I W C.3.B.`.D.Y.T.T.+X-X9X6Xh @ 0 < , X z !.>X2.X.}.#XR.Y.Y.I.g.g.6.J 1 q f # ; < > < < o G pXpXpX",
"pXpXpXpXz n g q 1 6 Z M 3 . . w y R y.X.p.K.D.T.R.].#X:XtX'   a > ; o ; 7.}.G.X.S.|.Y.Y.L.l.s.>./ x 2 w g e < 1 2 : : $ pXpXpXpX",
"pXpXpXpXc f p 1 & 1 + @ # e t t c 0 B  .} k.S.D.Y.].@X;X9X{.+   2 : o 5 O.G.n.X.x.Y.P.G.S.6.| S q p q 1 z c 2 * 1 < 0 B pXpXpXpX",
"pXpXpXpXf f f 9 & $ 6 1 & f A k w 9 1 r j D i.L.T.U.].].'.5XG.r       B >.t.h.>.S.H.n.z.2.( y # 0 e w 1 w g e 1 2 1 A pXpXpXpXpX",
"pXpXpXpXpXz w 6 6 ; : 1 : + # 1 8 & 1 & & o j t.T.D.L.~.Y.^.:X^.7.j   K  Xh.e.e.b.x.s.} C e # $ 6 e 0 0 2 w w 1 2 e pXpXpXpXpXpX",
"pXpXpXpXpXv t : : O O @ # % # # 1 6 < @ ; @   6 -.S.G.G.F.V.n.L.*XH.r @ o.W.C.t.s.w.T 6 : @ # 1 6 9 e 6 1 1 w 1 2 pXpXpXpXpXpXpX",
"pXpXpXpXpX9 9 0 w 1 # O @ # # # # w f 1 # 1 t t & D 4.f.l.l.l.s.;.t.k.` f K 1.3.X.P # o # # 1 6 w e 1 1 6 0 1 1 v pXpXpXpXpXpXpX",
"pXpXpXpXpX1 < : 6 q f w 1 > $ $ 1 1 w w 1 1 2 t : o : y S K H [ 6.=.}  .I e p j q O o ; : ; $ 6 w 2 1 1 0 1 : f pXpXpXpXpXpXpXpX",
"pXpXpXpXpXf f 6 # $ 9 b j h h h h v h f w 1 < w A e @ X X .   e ^.<XV.8.=.V 3 # X o ; # ; ; $ 1 2 1 6 0 6 6 B pXpXpXpXpXpXpXpXpX",
"pXpXpXpXpXw f v f 1 $ 7 t 9 k b b b c h 8 8 2 t A h 1 1 : ; # O J u.p.l.A.w.P h q < O # # ; : 6 1 1 1 6 t pXpXpXpXpXpXpXpXpXpXpX",
"pXpXpXpXpXf h v h 6 & 6 w w 1 1 * & 2 w w 9 k t e g q 8 1 < % $ & 6 n A B ( T l v w o , # * 2 6 1 & 8 f pXpXpXpXpXpXpXpXpXpXpXpX",
"pXpXpXpXpXj h e 3 6 & # < q h q 1 1 ; : : 6 p w 8 w i 6 1 q a w 0 0 w w w a q f w : : : : > 0 w 6 9 l pXpXpXpXpXpXpXpXpXpXpXpXpX",
"pXpXpXpXpXpX: : 6 6 1 & # $ f c w t w q 1 2 : 6 6 1 1 q z q 2 < 2 2 0 q p h v B c h B q < 0 e e j / pXpXpXpXpXpXpXpXpXpXpXpXpXpX",
"pXpXpXpXpXpX6 6 5 3 6 t f 6 1 1 1 8 1 1 1 1 1 e h e e p t 8 q p w 1 < 1 q l b h h h e 6 6 9 y l pXpXpXpXpXpXpXpXpXpXpXpXpXpXpXpX",
"pXpXpXpXpXpXc h e f h b k 7 & 8 6 1 $ # $ % # 1 e h e e t h c t 8 $ 1 6 q x j e y y l pX_ ..( pXpXpXpXpXpXpXpXpXpXpXpXpXpXpXpXpX",
"pXpXpXpXpXh y w e 0 6 7 e e q 1 $ 6 f q & ; ; 1 & & 9 e e h k f q 8 6 e e r h J Z pXpXpXpXpXpXpXpXpXpXpXpXpXpXpXpXpXpXpXpXpXpXpX",
"pXpXpXpXpX6 $ $ $ % 5 7 6 8 6 e f v k 6 * # # $ & q y f h h c z e e 6 9 e l pXpXpXpXpXpXpXpXpXpXpXpXpXpXpXpXpXpXpXpXpXpXpXpXpXpX",
"pXpXpXpX: 6 6 6 6 w q q q t f z h w w > # $ 1 3 6 e 9 6 s B B v l y h u pXpXpXpXpXpXpXpXpXpXpXpXpXpXpXpXpXpXpXpXpXpXpXpXpXpXpXpX",
"pXpXpXpX7 h h e 6 1 1 < q g h e 6 6 1 @ # $ 6 4 1 1 9 9 r k N C D pXpXpXpXpXpXpXpXpXpXpXpXpXpXpXpXpXpXpXpXpXpXpXpXpXpXpXpXpXpXpX",
"pXpXpXpX9 7 9 6 $ # 8 q e 8 7 $ 6 6 $ $ $ 4 4 4 : 8 y u r u pXpXpXpXpXpXpXpXpXpXpXpXpXpXpXpXpXpXpXpXpXpXpXpXpXpXpXpXpXpXpXpXpXpX",
"pXpXpXpXpX: # # $ 6 q q 6 6 6 0 B j 7 9 r 9 9 y N N N N N pXpXpXpXpXpXpXpXpXpXpXpXpXpXpXpXpXpXpXpXpXpXpXpXpXpXpXpXpXpXpXpXpXpXpX",
"pXpXpXpXpX& $ 6 6 6 6 q 6 8 u B Z N N / T 7 9 T { [ { H pXpXpXpXpXpXpXpXpXpXpXpXpXpXpXpXpXpXpXpXpXpXpXpXpXpXpXpXpXpXpXpXpXpXpXpX",
"pXpXpXpXpXpX7 e 4 4 r y 1 4 9 y Z [  .] I J Y Z I Y J pXpXpXpXpXpXpXpXpXpXpXpXpXpXpXpXpXpXpXpXpXpXpXpXpXpXpXpXpXpXpXpXpXpXpXpXpX",
"pXpXpXpXpXpXpXpXu u Z y 4 4 u D Y T P / pXpXpXpXpXpXpXpXpXpXpXpXpXpXpXpXpXpXpXpXpXpXpXpXpXpXpXpXpXpXpXpXpXpXpXpXpXpXpXpXpXpXpXpX",
"pXpXpXpXpXpXpXpXpXpXpXpXJ pX{ pXpXpXpXpXpXpXpXpXpXpXpXpXpXpXpXpXpXpXpXpXpXpXpXpXpXpXpXpXpXpXpXpXpXpXpXpXpXpXpXpXpXpXpXpXpXpXpXpX",
"pXpXpXpXpXpXpXpXpXpXpXpXpXpXpXpXpXpXpXpXpXpXpXpXpXpXpXpXpXpXpXpXpXpXpXpXpXpXpXpXpXpXpXpXpXpXpXpXpXpXpXpXpXpXpXpXpXpXpXpXpXpXpXpX",
"pXpXpXpXpXpXpXpXpXpXpXpXpXpXpXpXpXpXpXpXpXpXpXpXpXpXpXpXpXpXpXpXpXpXpXpXpXpXpXpXpXpXpXpXpXpXpXpXpXpXpXpXpXpXpXpXpXpXpXpXpXpXpXpX",
"pXpXpXpXpXpXpXpXpXpXpXpXpXpXpXpXpXpXpXpXpXpXpXpXpXpXpXpXpXpXpXpXpXpXpXpXpXpXpXpXpXpXpXpXpXpXpXpXpXpXpXpXpXpXpXpXpXpXpXpXpXpXpXpX",
"pXpXpXpXpXpXpXpXpXpXpXpXpXpXpXpXpXpXpXpXpXpXpXpXpXpXpXpXpXpXpXpXpXpXpXpXpXpXpXpXpXpXpXpXpXpXpXpXpXpXpXpXpXpXpXpXpXpXpXpXpXpXpXpX"
};
