/* XPM */
static char *result[] = {
/* columns rows colors chars-per-pixel */
"64 64 222 2 ",
"   c #010003",
".  c #0A0204",
"X  c #050208",
"o  c #0C050B",
"O  c #0D090D",
"+  c #130405",
"@  c #12060C",
"#  c #140B0D",
"$  c #1A0D0E",
"%  c #18070A",
"&  c #1B100F",
"*  c #17100F",
"=  c #0E0711",
"-  c #0D0812",
";  c #150C12",
":  c #1A0E13",
">  c #1A0F19",
",  c #140B14",
"<  c #161114",
"1  c #1D1214",
"2  c #1D1319",
"3  c #210E0E",
"4  c #21120E",
"5  c #210F12",
"6  c #221415",
"7  c #291515",
"8  c #251917",
"9  c #2C1A16",
"0  c #23151A",
"q  c #291619",
"w  c #251A1B",
"e  c #2A1C1C",
"r  c #311E1C",
"t  c #2D211E",
"y  c #34221D",
"u  c #38241E",
"i  c #251C21",
"p  c #2B1E22",
"a  c #251724",
"s  c #311E22",
"d  c #301F2A",
"f  c #2D2223",
"g  c #2B2126",
"h  c #332424",
"j  c #3A2624",
"k  c #352926",
"l  c #3B2A26",
"z  c #33262A",
"x  c #3A2629",
"c  c #352A2B",
"v  c #3B2C2B",
"b  c #3D312E",
"n  c #3D2D32",
"m  c #3D3132",
"M  c #42241D",
"N  c #422B23",
"B  c #432D2B",
"V  c #48282B",
"C  c #4C342D",
"Z  c #49342A",
"A  c #433333",
"S  c #4D3432",
"D  c #4E3935",
"F  c #4A3A3A",
"G  c #473939",
"H  c #523634",
"J  c #533C35",
"K  c #533C3B",
"L  c #5C3D3B",
"P  c #5B3A35",
"I  c #54372D",
"U  c #623C32",
"Y  c #53413D",
"T  c #5C423D",
"R  c #61443C",
"E  c #694A3D",
"W  c #714A3C",
"Q  c #483C42",
"!  c #7D3D40",
"~  c #524242",
"^  c #5D4C4D",
"/  c #584846",
"(  c #614743",
")  c #634B44",
"_  c #654949",
"`  c #6A4D4A",
"'  c #694C44",
"]  c #645142",
"[  c #6C554B",
"{  c #6A5349",
"}  c #755244",
"|  c #73534A",
" . c #74574C",
".. c #675657",
"X. c #7C5A53",
"o. c #7A5A57",
"O. c #7E4E48",
"+. c #7F6152",
"@. c #6E5E63",
"#. c #756869",
"$. c #7C706F",
"%. c #843C3D",
"&. c #9A423F",
"*. c #964547",
"=. c #805548",
"-. c #845D54",
";. c #8A5D54",
":. c #845E5E",
">. c #915F57",
",. c #A85859",
"<. c #AF4F51",
"1. c #84645B",
"2. c #8C655B",
"3. c #8C6A5D",
"4. c #876256",
"5. c #936B5C",
"6. c #9A6D5C",
"7. c #946459",
"8. c #91604D",
"9. c #8D6C63",
"0. c #8B6562",
"q. c #956C61",
"w. c #9C6D63",
"e. c #976B64",
"r. c #937366",
"t. c #9D7365",
"y. c #967369",
"u. c #9C756C",
"i. c #9C7C6E",
"p. c #9E7B66",
"a. c #94766C",
"s. c #A26E64",
"d. c #AF6E63",
"f. c #A47364",
"g. c #AA7965",
"h. c #A4756A",
"j. c #AC766A",
"k. c #A47B6B",
"l. c #AB7B6C",
"z. c #A87764",
"x. c #B37D6D",
"c. c #B37568",
"v. c #A67B72",
"b. c #AD7E73",
"n. c #B47D71",
"m. c #B67571",
"M. c #B46B6A",
"N. c #CD7273",
"B. c #AA826D",
"V. c #B6826F",
"C. c #AD8373",
"Z. c #A8867A",
"A. c #B58373",
"S. c #BB8573",
"D. c #BC8973",
"F. c #B68579",
"G. c #BB857B",
"H. c #BC8C7A",
"J. c #B68D7D",
"K. c #BD917C",
"L. c #C38C7B",
"P. c #CA8D78",
"I. c #C18A75",
"U. c #C6937D",
"Y. c #CB937D",
"T. c #C59375",
"R. c #D09A7D",
"E. c #9A898F",
"W. c #BB8D84",
"Q. c #BD9388",
"!. c #C48D82",
"~. c #C49281",
"^. c #CA9483",
"/. c #CD9B86",
"(. c #C6968A",
"). c #CB968C",
"_. c #C3998C",
"`. c #CA9C8C",
"'. c #D39784",
"]. c #D39A84",
"[. c #D1978C",
"{. c #D39B8B",
"}. c #DB9D8C",
"|. c #D89881",
" X c #D49C92",
".X c #DA9F91",
"XX c #D3958A",
"oX c #E79E8E",
"OX c #CEA18E",
"+X c #D4A18C",
"@X c #DAA28D",
"#X c #DEA187",
"$X c #CCA595",
"%X c #D5A393",
"&X c #DCA392",
"*X c #DCA599",
"=X c #D7A799",
"-X c #E2A695",
";X c #E3A99B",
":X c #EBAB9C",
">X c #E6A89A",
",X c #F0AE9E",
"<X c #EDB29B",
"1X c #EAB49E",
"2X c #F3B19F",
"3X c #DCB5A4",
"4X c #E3ADA3",
"5X c #F0AFA0",
"6X c #ECB3A4",
"7X c #EDB5AB",
"8X c #EBB6A6",
"9X c #F7B7A6",
"0X c #F4BBB3",
"qX c #F7BEB5",
"wX c #EFB9B0",
"eX c #FFC1AC",
"rX c #FAC3BB",
"tX c #FAC4B6",
"yX c #FFD1B8",
"uX c #FFC7C1",
"iX c #FFE3D1",
"pX c None",
/* pixels */
"pXpXpXpXpXpXpXpXpXpXpXpXpXpXpXpXpXpXpXpXpXpXpXpXpXpXpXpXpXpXpXpXpXpXpXpXpXpXpXpXpXpXpXpXpXpXpXpXpXpXpXpXpXpXpXpXpXpXpXpXpXpXpXpX",
"pXpXpXpXpXpXpXpXpXpXpXpXpXpXpXpXpXpXpXpXpXpXpXpXpXpXpXpXpXpXpXpXpXpXpXpXpXpXpXpXpXpXpXpXpXpXpXpXpXpXpXpXpXpXpXpXpXpXpXpXpXpXpXpX",
"pXpXpXpXpXpXpXpXpXpXpXpXpXpXpXpXpXpXpXpXpXpXpXpXpXpXpXpXpXpXpXpXpXpXpXpXpXpXpXpXpXpXpXpXpXpXpXpXpXpXpXpXpXpXpXpXpXpXpXpXpXpXpXpX",
"pXpXpXpXpXpXpXpXpXpXpXpXpXpXpXpXpXpXpXpXpXpXpXpXpXpXpXpXpXpXpXpXpXpXpXpXpXpXpXpXpXpXpXpXpXpXpXpXpXpXpX` pXJ pXpXpXpXpXpXpXpXpXpX",
"pXpXpXpXpXpXpXpXpXpXpXpXpXpXpXpXpXpXpXpXpXpXpXpXpXpXpXpXpXpXpXpXpXpXpXpXpXpXpXpXpXpXpXpXpXpX) J T Y J u 4 4 y C u y pXpXpXpXpXpX",
"pXpXpXpXpXpXpXpXpXpXpXpXpXpXpXpXpXpXpXpXpXpXpXpXpXpXpXpXpXpXpXpXpXpXpXpXpXpXpXY Y Y Z Y Y D )  .{ Z u 9 4 & e y 4 6 9 7 pXpXpXpX",
"pXpXpXpXpXpXpXpXpXpXpXpXpXpXpXpXpXpXpXpXpXpXpXpXpXpXpXpXpXpXpXpXpXpXpXpXpXpXH { [ [ T 9 7 T ) N M C B h 8 6 8 0 9 6 1 $ 1 pXpXpX",
"pXpXpXpXpXpXpXpXpXpXpXpXpXpXpXpXpXpXpXpXpXpXpXpXpXpXpXpXpXpXpXpXpXpXpXpXpXl Z N N N u 9 9 9 9 4 l v 7 1 8 4 9 w 6 $ % $ $ pXpXpX",
"pXpXpXpXpXpXpXpXpXpXpXpXpXpXpXpXpXpXpXpXpXpXpXpXpXpXpXpXpXpXpXpXpXpXpXpXy r u 9 4 : 6 4 6 $ $ $ 6 0 $ 6 w 0 w 7 # $ 6 w 9 8 pXpX",
"pXpXpXpXpXpXpXpXpXpXpXpXpXpXpXpXpXpXpXpXpXpXpXpXpXpXpXpXpXpXpXpXpXD C N j h r 7 6 1 3 6 & # % 1 1 7 e f h 9 $ 1 6 6 e h h 8 pXpX",
"pXpXpXpXpXpXpXpXpXpXpXpXpXpXpXpXpXpXpXpXpXpXpXpXpXpXpXpXpXpXy h h l B B v r 7 9 0 6 $ 5 # # > 0 e h x f e 0 0 e 6 6 6 7 6 $ pXpX",
"pXpXpXpXpXpXpXpXpXpXpXpXpXpXpXpXpXpXpXpXpXpXpXpXpXpXpXpXl 9 9 6 9 e z c h f f h 9 1 % # # $ 8 k c f q 8 0 6 7 : $ % % $ 6 pXpXpX",
"pXpXpXpXpXpXpXpXpXpXpXpXpXpXpXpXpXpXpXpXpXpXpXpXpXZ K y r e q 7 7 0 f c h q e 8 4 & : : : # 8 f w $ 6 0 e e 8 7 0 w 9 r h pXpXpX",
"pXpXpXpXpXpXpXpXpXpXpXpXpXpXpXpXpXpXpX) .._ pXl y h e h v e 0 : $ 6 f c h t e e h e 1 % % $ * # 1 6 8 1 7 h v k h p f v pXpXpXpX",
"pXpXpXpXpXpXpXpXpXpXpXpXpXpXpXpXpXpXl y 7 6 6 e h h h B l 0 1 < 8 w i w 8 f e 0 e h e 1 1 2 1 8 6 6 & 1 7 h t 6 4 5 6 6 pXpXpXpX",
"pXpXpXpXpXpXpXpXpXpXpXpXpXpXpXpXT h e t 2 > w l j l b v h f w 6 0 2 < 2 w h 9 1 1 6 6 > 2 2 w 8 t e k f $ # & & 6 5 $ : pXpXpXpX",
"pXpXpXpXpXpXpXpXpXpXpXpXpXpXpXv 9 0 w 0 > : : 5 : 0 r r e q w 0 w 2 0 w w 6 7 e w w e i 6 : $ ; ; 1 9 z e : $ $ 6 5 e h j pXpXpX",
"pXpXpXpXpXpXpXpXpXpXpXpXpXpXh 6 1 : 6 1 : # , o w v j Q ( B G v 6 $ : : > 1 1 i p e f k 9 9 w 1 < * < 1 w 8 6 & 6 h v h f pXpXpX",
"pXpXpXpXpXpXpXpXpXpXpXpXpXe 6 1 & < 4 : # ; O @ ; w s P w.n.c.k.u.K @ # # < 2 1 s A e w 2 8 f b b m b k e e 8 & 1 f b f w pXpXpX",
"pXpXpXpXpXpXpXpXpXpXpXB 6 6 0 6 1 1 1 $ ; ; # ; o X ; 3 V =.8.V.<X).e   . X X % e v 9 : 1 w f f c j t k h z b e % % 1 t f pXpXpX",
"pXpXpXpXpXpXpXpXpXpXh > 1 6 6 1 2 8 6 $ < ; < o @ e j p 8 Y O.} =.6.' J K S s : o 1 t w 1 w w w 6 1 & * < : 8 h w 7 $ < 1 pXpXpX",
"pXpXpXpXpXpXpXpXpXv < 6 6 6 & 1 t w 6 1 # ; o # K X.5.1.Y f ` k.t.-.w.l.j.l.h.;.H 1 2 t < # 1 f 8 # # # # % O # 1 w 0 e e pXpXpX",
"pXpXpXpXpXpXpXpXpX2 < 8 0 1 1 e e 6 1 # @ & 1 R w.s.t.l.J.o.; r H.-XI.n.A.S.S.H.S.1.8   @ # @ : 8 1 # # # % @ o @ : : e v pXpXpX",
"pXpXpXpXpXpXpXpXt 2 1 w 8 2 0 w 9 0 & < e C W s.x.b.w.q.k. XF   h 7.'.:XY.^.~.D.D.T.f.k o & & 1 1 6 6 + @ : : : ; w 0 9 z pXpXpX",
"pXpXpXpXpXpXpXA 1 6 1 p z w 2 2 e 0 # y R 5.z.A.H.S.;.h.w.7.N       e G.5X{.{.].U.T.K.p.D l e 1 w w h A f $ 1 6 $ & q p f f pXpX",
"pXpXpXpXpXpXv 0 2 1 # w c g 1 w i e S | 5.F.D.L.^.n.-.G.G.O.5 o 1 2   + ].9X-X@XR.Y.D.D.k.}  .Z 8 c t t e # @ % 6 & 6 p p c pXpX",
"pXpXpXpXpXpX$ ; ; 2 < # t f 0 0 x ( >.s.l.U.Y.P.|.n.O.W.}.7., X , 2 a   ' tX:X#X].R.T.D.K.p.X.r.T h 7 . . 4 u Z 5 : q h n z pXpX",
"pXpXpXpXpXF o < 2 > 1 : # f e 1 H 6.z.g.I.Y.Y.R.oX.XX.2.*X!.x X , 1 2 @ h 9X9X-X+XT.Y.U.D./.i.5.B.W I C Z W B.=Xr.y : e A f pXpX",
"pXpXpXpXpX1 < < < > > $ # 6 p 1 H l.G.U.Y.].].}.-X9XG.P ).7Xz X > > 2 % h *XeX5X-Xf.d.].K.+X3Xy.6.S.6.w.f.g.B.B.Z.+.j r q @ pXpX",
"pXpXpXpXx > > 1 < ; < : : a p ; H n.I.Y.].}.&X}.-X9X7XL ;.;Xx   > 2 2 . s 4XeX:X4Xc.<.m.H.%X8XW.-.j.!.!.(.OXOXQ._.Q._.Z.9.pXpXpX",
"pXpXpXpXv % 1 1 2 : < 0 1 g z - S F.P.P.R.>X:X-X:X9XuX0.S U.H   1 > : X e `.9X<X8Xn.,.N.n.OX6X(.3.p.^.+XA.B.Z.a.i.Z.$X3XpXpXpXpX",
"pXpXpXpXF @ 2 2 < < : > w c m i x n.Y.P.|.6X0X0X6XqXrX XU t.3.. @ > 6   Z c.Y.1XeXc.*.N.m.!.4X_.a.t.5.6.t.| N r 9 $ e G pXpXpXpX",
"pXpXpXpXB @ 1 0 2 > ; 1 i c c z s q.|.Y.{.4XrXuX0XrXqX7XA.d..XQ   >   7 c.n.x.-X2Xn.*.N.M.n.=X(.o.) R R T 9 $ p > % # @ & pXpXpX",
"pXpXpXpXn ; 0 2 2 < ; ; a g n n p L ).{.{.8XtXtXrXrXrX4X4X[.-X4Xj   V '.oX:XA.I.<Xx.%.<.,.V.=Xi.v y y 9 0 ; : # @ 1 1 2 w pXpXpX",
"pXpXpXpXh 5 6 1 > < ; ; 2 i p x z H C. X&X6XtXwX7X0X0X4X4X4X6XiX9.  =XyX|.:XG.w.=Xh.! *.6.B.y.v < 4 6 f f p 1 # # # < w 1 pXpXpX",
"pXpXpXpXpX0 > 2 ; ; , < 2 > > i v Q q.[.-X*X;X6X4XwX7X4X*X*X X!._   _ s.M.s.y.v.F.v.;.w.r.[ q % 2 1 6 1 e f : # : & $ & < pXpXpX",
"pXpXpXpXpXp , ; ; ; ; < < 2 z c d l | G.{.{.}.&X4X4X7X4X&X^.2.o.V X     K l.F. XJ.Z.u.p.] g 0 1 # @ $ 8 f w + 1 2 g t t h pXpXpX",
"pXpXpXpXpXx @ ; 1 ; < ; , 2 z g e B -.A.U.^./.{. X%X*X X[.e.;.u.i . ; X X v.<X/.W.u.3.{ z k c 8 1 f v p t w & t h z m v v pXpXpX",
"pXpXpXpXpXpX; > 2 < < ; , f i w h T f.S.S.I.Y.].[.).). Xb.H (.0.  , ; >   Z +XH.u.1.] c g t 8 w h k h z c p c l u k f k c pXpXpX",
"pXpXpXpXpXpX; 2 w < ; , 2 z z g f ) f.x.n.I.L.^.^.!.^.*X1.S =X~   % ; ,   k ~.C.o.F g 8 t 1 @ ; < 6 c A h c h $ 1 k v v v v pXpX",
"pXpXpXpXpXpX1 0 a ; ; ; > i c c 0 D 5.f.j.n.D.H.D.F.J.).[ / G.p   - , ;   m y.Y f t z 6 * ; # & 8 m A h p v l y t t b A b b pXpX",
"pXpXpXpXpXpXpXw 0 ; ; 2 ; 2 d c 1 j  .6.6.f.j.j.l.v.b.F.K } e.1   - , - O g g X O k v > @ # 1 9 m k w f j ~ ^ ~ l & & 1 1 pXpXpX",
"pXpXpXpXpXpXpXa > > ; > 2 2 q p 0 h ) -.4.4.2.5.3.5.u.9.K :.( O o - o o < < o # # 0 8 < ; % 5 5 8 8 z c G F F A t & $ # # pXpXpX",
"pXpXpXpXpXpXpX0 w ; : ; 2 2 w i 0 w N S P ) ) _ ) | X.) V z i < X - X o * t < * < w h 6 & 6 : 1 9 v Y G c z h v t 8 6 & 1 pXpXpX",
"pXpXpXpXpXpXpXpXw 2 > 1 2 2 0 w p 6 1 1 1 8 9 f f h i ; o X 2 2 O X - ; e m f 1 1 8 j 0 $ w e 6 1 9 l v 0 : 6 v b t t pXpXpXpXpX",
"pXpXpXpXpXpXpXpXpXw e 2 ; q i 1 w w 1 < 6 0 1 1 O O @ , - - < 1 - , 0 1 h m f 2 < $ 9 w 6 e h 6 1 6 0 9 e > % 0 9 7 8 pXpXpXpXpX",
"pXpXpXpXpXpXpXpXpXpXh h 0 0 w w 1 w 0 & 0 p p p f k f f f g w 1 ; : $ w f f f f 7 6 e w 6 w w < 6 6 q x s 0 $ 1 < 9 pXpXpXpXpXpX",
"pXpXpXpXpXpXpXpXpXpXpXB p 1 w f w 1 1 : 1 > 2 i f w 8 w 2 i f w 6 1 6 g w < w h 6 & k k 7 w 1 1 : 8 h t 7 6 & $ ; pXpXpXpXpXpXpX",
"pXpXpXpXpXpXpXpXpXpXpXpXx 6 6 f h z 2 1 1 w 1 > # # 1 w w < 6 w w 7 6 : # 2 1 8 8 1 e 9 h z 1 6 h t v v 6 : % $ pXpXpXpXpXpXpXpX",
"pXpXpXpXpXpXpXpXpXpXpXpXpXf # 0 w j c f t w w i 0 6 w e w 2 : w z r 6 & 6 w w e 8 < # # : h h 0 l j f 9 % $ pXpXpXpXpXpXpXpXpXpX",
"pXpXpXpXpXpXpXpXpXpXpXpXpXpX~ 7 1 1 w c k w w p f f z g f w 2 w z z 7 < 7 h A f ; % & < w h h 7 9 k 9 6 x pXpXpXpXpXpXpXpXpXpXpX",
"pXpXpXpXpXpXpXpXpXpXpXpXpXpXpX^ x e : 6 w g w 1 2 2 2 w g n c g h p 0 1 5 p k w , 1 1 1 w l r q 0 pXpXpXpXpXpXpXpXpXpXpXpXpXpXpX",
"pXpXpXpXpXpXpXpXpXpXpXpXpXpXpXpXpX^ D q @ . 8 w 1 1 $ 6 0 f c c m B h 9 e p w 7 0 1 1 9 h z e s pXpXpXpXpXpXpXpXpXpXpXpXpXpXpXpX",
"pXpXpXpXpXpXpXpXpXpXpXpXpXpXpXpXpXpXpX....@.G pXpXpXw 6 6 w 8 1 f n n m j t f 0 6 7 1 j v f pXpXpXpXpXpXpXpXpXpXpXpXpXpXpXpXpXpX",
"pXpXpXpXpXpXpXpXpXpXpXpXpXpXpXpXpXpXpXpXpXpXpXpXpXpXpXp 6 e f w $ 6 p l Q x 5 : : 6 t k 7 pXpXpXpXpXpXpXpXpXpXpXpXpXpXpXpXpXpXpX",
"pXpXpXpXpXpXpXpXpXpXpXpXpXpXpXpXpXpXpXpXpXpXpXpXpXpXpXpXn e f w # # 1 0 / ..z 0 $ 1 c h pXpXpXpXpXpXpXpXpXpXpXpXpXpXpXpXpXpXpXpX",
"pXpXpXpXpXpXpXpXpXpXpXpXpXpXpXpXpXpXpXpXpXpXpXpXpXpXpXpXpXpXpXpXpX#.f # w / Y ^ A p h pXpXpXpXpXpXpXpXpXpXpXpXpXpXpXpXpXpXpXpXpX",
"pXpXpXpXpXpXpXpXpXpXpXpXpXpXpXpXpXpXpXpXpXpXpXpXpXpXpXpXpXpXpXpXpXpXpX/ w / #.../ j pXpXpXpXpXpXpXpXpXpXpXpXpXpXpXpXpXpXpXpXpXpX",
"pXpXpXpXpXpXpXpXpXpXpXpXpXpXpXpXpXpXpXpXpXpXpXpXpXpXpXpXpXpXpXpXpXpXpXpXQ g E.E.$.K pXpXpXpXpXpXpXpXpXpXpXpXpXpXpXpXpXpXpXpXpXpX",
"pXpXpXpXpXpXpXpXpXpXpXpXpXpXpXpXpXpXpXpXpXpXpXpXpXpXpXpXpXpXpXpXpXpXpXpXpX#./ #.$.pXpXpXpXpXpXpXpXpXpXpXpXpXpXpXpXpXpXpXpXpXpXpX",
"pXpXpXpXpXpXpXpXpXpXpXpXpXpXpXpXpXpXpXpXpXpXpXpXpXpXpXpXpXpXpXpXpXpXpXpXpXpXpXpXpXpXpXpXpXpXpXpXpXpXpXpXpXpXpXpXpXpXpXpXpXpXpXpX",
"pXpXpXpXpXpXpXpXpXpXpXpXpXpXpXpXpXpXpXpXpXpXpXpXpXpXpXpXpXpXpXpXpXpXpXpXpXpXpXpXpXpXpXpXpXpXpXpXpXpXpXpXpXpXpXpXpXpXpXpXpXpXpXpX",
"pXpXpXpXpXpXpXpXpXpXpXpXpXpXpXpXpXpXpXpXpXpXpXpXpXpXpXpXpXpXpXpXpXpXpXpXpXpXpXpXpXpXpXpXpXpXpXpXpXpXpXpXpXpXpXpXpXpXpXpXpXpXpXpX",
"pXpXpXpXpXpXpXpXpXpXpXpXpXpXpXpXpXpXpXpXpXpXpXpXpXpXpXpXpXpXpXpXpXpXpXpXpXpXpXpXpXpXpXpXpXpXpXpXpXpXpXpXpXpXpXpXpXpXpXpXpXpXpXpX"
};
