/* XPM */
static char *result[] = {
/* columns rows colors chars-per-pixel */
"64 64 222 2 ",
"   c #010003",
".  c #0A0204",
"X  c #050208",
"o  c #0C050B",
"O  c #0D090D",
"+  c #130405",
"@  c #12060C",
"#  c #140B0D",
"$  c #1A0D0E",
"%  c #18070A",
"&  c #1B100F",
"*  c #17100F",
"=  c #0E0711",
"-  c #0D0812",
";  c #150C12",
":  c #1A0E13",
">  c #1A0F19",
",  c #140B14",
"<  c #161114",
"1  c #1D1214",
"2  c #1D1319",
"3  c #210E0E",
"4  c #21120E",
"5  c #210F12",
"6  c #221415",
"7  c #291515",
"8  c #251917",
"9  c #2C1A16",
"0  c #23151A",
"q  c #291619",
"w  c #251A1B",
"e  c #2A1C1C",
"r  c #311E1C",
"t  c #2D211E",
"y  c #34221D",
"u  c #38241E",
"i  c #251C21",
"p  c #2B1E22",
"a  c #251724",
"s  c #311E22",
"d  c #301F2A",
"f  c #2D2223",
"g  c #2B2126",
"h  c #332424",
"j  c #3A2624",
"k  c #352926",
"l  c #3B2A26",
"z  c #33262A",
"x  c #3A2629",
"c  c #352A2B",
"v  c #3B2C2B",
"b  c #3D312E",
"n  c #3D2D32",
"m  c #3D3132",
"M  c #42241D",
"N  c #422B23",
"B  c #432D2B",
"V  c #48282B",
"C  c #4C342D",
"Z  c #49342A",
"A  c #433333",
"S  c #4D3432",
"D  c #4E3935",
"F  c #4A3A3A",
"G  c #473939",
"H  c #523634",
"J  c #533C35",
"K  c #533C3B",
"L  c #5C3D3B",
"P  c #5B3A35",
"I  c #54372D",
"U  c #623C32",
"Y  c #53413D",
"T  c #5C423D",
"R  c #61443C",
"E  c #694A3D",
"W  c #714A3C",
"Q  c #483C42",
"!  c #7D3D40",
"~  c #524242",
"^  c #5D4C4D",
"/  c #584846",
"(  c #614743",
")  c #634B44",
"_  c #654949",
"`  c #6A4D4A",
"'  c #694C44",
"]  c #645142",
"[  c #6C554B",
"{  c #6A5349",
"}  c #755244",
"|  c #73534A",
" . c #74574C",
".. c #675657",
"X. c #7C5A53",
"o. c #7A5A57",
"O. c #7E4E48",
"+. c #7F6152",
"@. c #6E5E63",
"#. c #756869",
"$. c #7C706F",
"%. c #843C3D",
"&. c #9A423F",
"*. c #964547",
"=. c #805548",
"-. c #845D54",
";. c #8A5D54",
":. c #845E5E",
">. c #915F57",
",. c #A85859",
"<. c #AF4F51",
"1. c #84645B",
"2. c #8C655B",
"3. c #8C6A5D",
"4. c #876256",
"5. c #936B5C",
"6. c #9A6D5C",
"7. c #946459",
"8. c #91604D",
"9. c #8D6C63",
"0. c #8B6562",
"q. c #956C61",
"w. c #9C6D63",
"e. c #976B64",
"r. c #937366",
"t. c #9D7365",
"y. c #967369",
"u. c #9C756C",
"i. c #9C7C6E",
"p. c #9E7B66",
"a. c #94766C",
"s. c #A26E64",
"d. c #AF6E63",
"f. c #A47364",
"g. c #AA7965",
"h. c #A4756A",
"j. c #AC766A",
"k. c #A47B6B",
"l. c #AB7B6C",
"z. c #A87764",
"x. c #B37D6D",
"c. c #B37568",
"v. c #A67B72",
"b. c #AD7E73",
"n. c #B47D71",
"m. c #B67571",
"M. c #B46B6A",
"N. c #CD7273",
"B. c #AA826D",
"V. c #B6826F",
"C. c #AD8373",
"Z. c #A8867A",
"A. c #B58373",
"S. c #BB8573",
"D. c #BC8973",
"F. c #B68579",
"G. c #BB857B",
"H. c #BC8C7A",
"J. c #B68D7D",
"K. c #BD917C",
"L. c #C38C7B",
"P. c #CA8D78",
"I. c #C18A75",
"U. c #C6937D",
"Y. c #CB937D",
"T. c #C59375",
"R. c #D09A7D",
"E. c #9A898F",
"W. c #BB8D84",
"Q. c #BD9388",
"!. c #C48D82",
"~. c #C49281",
"^. c #CA9483",
"/. c #CD9B86",
"(. c #C6968A",
"). c #CB968C",
"_. c #C3998C",
"`. c #CA9C8C",
"'. c #D39784",
"]. c #D39A84",
"[. c #D1978C",
"{. c #D39B8B",
"}. c #DB9D8C",
"|. c #D89881",
" X c #D49C92",
".X c #DA9F91",
"XX c #D3958A",
"oX c #E79E8E",
"OX c #CEA18E",
"+X c #D4A18C",
"@X c #DAA28D",
"#X c #DEA187",
"$X c #CCA595",
"%X c #D5A393",
"&X c #DCA392",
"*X c #DCA599",
"=X c #D7A799",
"-X c #E2A695",
";X c #E3A99B",
":X c #EBAB9C",
">X c #E6A89A",
",X c #F0AE9E",
"<X c #EDB29B",
"1X c #EAB49E",
"2X c #F3B19F",
"3X c #DCB5A4",
"4X c #E3ADA3",
"5X c #F0AFA0",
"6X c #ECB3A4",
"7X c #EDB5AB",
"8X c #EBB6A6",
"9X c #F7B7A6",
"0X c #F4BBB3",
"qX c #F7BEB5",
"wX c #EFB9B0",
"eX c #FFC1AC",
"rX c #FAC3BB",
"tX c #FAC4B6",
"yX c #FFD1B8",
"uX c #FFC7C1",
"iX c #FFE3D1",
"pX c None",
/* pixels */
"pXpXpXpXpXpXpXpXpXpXpXpXpXpXpXpXpXpXpXpXpXpXpXpXpXpXpXpXpXpXpXpXpXpXpXpXpXpXpXpXpXpXpXpXpXpXpXpXpXpXpXpXpXpXpXpXpXpXpXpXpXpXpXpX",
"pXpXpXpXpXpXpXpXpXpXpXpXpXpXpXpXpXpXpXpXpXpXpXpXpXpXpXpXpXpXpXpXpXpXpXpXpXpXpXpXpXpXpXpXpXpXpXpXpXpXpXpXpXpXpXpXpXpXpXpXpXpXpXpX",
"pXpXpXpXpXpXpXpXpXpXpXpXpXpXpXpXpXpXpXpXpXpXpXpXpXpXpXpXpXx v A F v x pXpXpXpXpXpXpXpXpXpXpXpXpXpXpXpXpXpXpXpXpXpXpXpXpXpXpXpXpX",
"pXpXpXpXpXpXpXpXpXpXpXpXpXpXpXpXpXpXpXpXpXpXpXpXpXpXx p 5 5 ; @ @ $ : 2 G pXpXpXpXpXpXpXpXpXpXpXpXpXpXpXpXpXpXpXpXpXpXpXpXpXpXpX",
"pXpXpXpXpXpXpXpXpXpXpXpXpXpXpXpXpXpXpXpXpXpXpX1 < # @ ; 1 2 2 2 2 1 1 < @ $ B pXpXpXpXpXpXpXpXpXpXpXpXpXpXpXpXpXpXpXpXpXpXpXpXpX",
"pXpXpXpXpXpXpXpXpXpXpXpXpXpXpXpXpXpXpXpXw 0 w 2 > 2 ; ; 2 1 1 0 2 < > > < ; 0 A pXpXpXpXpXpXpXpXpXpXpXpXpXpXpXpXpXpXpXpXpXpXpXpX",
"pXpXpXpXpXpXpXpXpXpXpXpXpXpXpXpXpXpXpX0 0 > 2 0 2 2 < < ; > 1 1 < < , < 2 : 1 1 t pXpXpXpXpXpXpXpXpXpXpXpXpXpXpXpXpXpXpXpXpXpXpX",
"pXpXpXpXpXpXpXpXpXpXpXpXpXpXpXpXpXpX0 2 > > > ; 2 2 > O ; < < > < 1 < > > 2 1 2 2 2 x pXpXpXpXpXpXpXpXpXpXpXpXpXpXpXpXpXpXpXpXpX",
"pXpXpXpXpXpXpXpXpXpXpXpXpXpXpXpXpXz w : ; > ; < ; < < ; ; ; , > ; : : > 1 ; # 1 1 2 1 t pXpXpXpXpXpXpXpXpXpXpXpXpXpXpXpXpXpXpXpX",
"pXpXpXpXpXpXpXpXpXpXpXpXpXpXpXpXB h 0 > ; ; 2 : ; ; ; ; < ; > : 1 w ; ; ; ; 0 f w 2 2 1 B pXpXpXpXpXpXpXpXpXpXpXpXpXpXpXpXpXpXpX",
"pXpXpXpXpXpXpXpXpXpXpXpXpXpXpXx p 6 1 2 2 > > > 2 , - , 2 2 2 i w 2 ; $ # t c f 0 8 6 1 6 pXpXpXpXpXpXpXpXpXpXpXpXpXpXpXpXpXpXpX",
"pXpXpXpXpXpXpXpXpXpXpXpXpXpXp 6 2 2 w 2 0 2 1 i z f i > 2 w p c c p w 0 g f z w 2 2 6 6 6 e pXpXpXpXpXpXpXpXpXpXpXpXpXpXpXpXpXpX",
"pXpXpXpXpXpXpXpXpXpXpXpXpX~ $ 6 w w w 0 0 w g c z p c z 6 p n n m z p s p 0 1 6 8 1 & 6 8 2 h pXpXpXpXpXpXpXpXpXpXpXpXpXpXpXpXpX",
"pXpXpXpXpXpXpXpXpXpXpXpX^ 8 0 f t 0 2 w i g c c f w g z a x n z g - ; 1 1 5 0 w w e 6 2 6 6 6 v pXpXpXpXpXpXpXpXpXpXpXpXpXpXpXpX",
"pXpXpXpXpXpXpXpXpXpXpXpXx 1 e z e 1 w p w 1 2 8 f f i g v d p p k S H H H x i q q e e 2 1 & 1 9 / pXpXpXpXpXpXpXpXpXpXpXpXpXpXpX",
"pXpXpXpXpXpXpXpXpXpXpX^ e 1 k f 2 0 w 6 e h l D ) T B x L L Q q.C.A.n.l.q.( p 0 6 6 w w 2 & ; 8 j pXpXpXpXpXpXpXpXpXpXpXpXpXpXpX",
"pXpXpXpXpXpXpXpXpXpXpXF : w c w 1 2 2 & l )  .6.f.f.-.| q.A.'.'.R.P.H.G.g.>.S # $ 6 6 6 1 5 6 w e j pXpXpXpXpXpXpXpXpXpXpXpXpXpX",
"pXpXpXpXpXpXpXpXpXpX..q 6 c f 1 & & 1 1 C -.6.f.x.A.A.G.).}.{.P.P.P.Y.T.g.w.O.r ; # $ & $ : 2 6 t y ) pXpXpXpXpXpXpXpXpXpXpXpXpX",
"pXpXpXpXpXpXpXpXpXpX..+ e z w 2 1 8 2 1 P 4.6.j.n.S.U.{.-X&X.X}.|.|.'.Y.I.b.w.R e @ ; ; ; ; ; > 2 8 ..pXpXpXpXpXpXpXpXpXpXpXpXpX",
"pXpXpXpXpXpXpXpXpXpX@.. p e 0 0 2 f 0 8 E 4.f.A.I.I.Y.+X*X6X8X4X<X-X}.].^.L.A.5.C ; # ; : # $ : 1 6 _ pXpXpXpXpXpXpXpXpXpXpXpXpX",
"pXpXpXpXpXpXpXpXpXpXG 6 w w 0 1 0 p 1 t ) 3.j.S.L.Y.].+X4X0XqXrX0X>X&X'.Y.Y.S.g.} 6 o # # O # 1 w 6 pXpXpXpXpXpXpXpXpXpXpXpXpXpX",
"pXpXpXpXpXpXpXpXpXpXpX0 1 p i 1 w i 1 t ) 3.j.H.^.{.{.&X4XwXrXuX0X>X@X}.R.P.L.A.s.T # O ; O o : l e l pXpXpXpXpXpXpXpXpXpXpXpXpX",
"pXpXpXpXpXpXpXpXpXpXpX6 2 p 0 # f f @ f ] 3.k.G.^.[.=X*X7X7XqX0X7X:X-X&X#X|.Y.H.n.w.J @ o < w ; x h y pXpXpXpXpXpXpXpXpXpXpXpXpX",
"pXpXpXpXpXpXpXpXpXpXpX1 0 p 6 # w z o z | 5.v.F.~.[.%X4X7X0XrXrX0X9X9X9X.XI.x.S.b.s.X.e X q v q x h y A pXpXpXpXpXpXpXpXpXpXpXpX",
"pXpXpXpXpXpXpXpXpXpXw : 2 f i 1 2 z @ t X.u.b.W.^.).*X7X7XwXqXrXrXuX7XF.X.X.-.;.w.w.5.k @ h x p v k e J pXpXpXpXpXpXpXpXpXpXpXpX",
"pXpXpXpXpXpXpXpXpXp 1 6 w f f 0 w f O ; / q.n.).*X[..X4X4X4X4XwX X0.L P 0.G.W.s.q.C.1.p 3 P L p B v j h pXpXpXpXpXpXpXpXpXpXpXpX",
"pXpXpXpXpXpXpXpXn 6 6 8 f f w 0 1 f = o v K L ` 0.n.[.&X*X4X4XA.U C 2.).;X}.n.s.h.W.D e V 6.( e k j j r l pXpXpXpXpXpXpXpXpXpXpX",
"pXpXpXpXpXpXpXpXp e 8 f m w 2 1 g g ,   z :.| / S H e.^.*X4X[.z.t.U.-X7X!.>.O.7.OXo.h Y =.n.V q e q e e e pXpXpXpXpXpXpXpXpXpXpX",
"pXpXpXpXpXpXpXpXf f 6 c c 2 : 2 f w > > i / e.G.=X(.;.2. X7X-X[.9.H x z z , 5 V H ; ` | 8.l.A w 0 1 0 w 9 y pXpXpXpXpXpXpXpXpXpX",
"pXpXpXpXpXpXpXpXw 0 2 c z 0 0 w t 1 > 2 1 O 1 f Q 0.u.o.!.iX4XK .   X X X X o     r k.} A.p.n q 0 < & 8 7 h pXpXpXpXpXpXpXpXpXpX",
"pXpXpXpXpXpXpXpX# $ f m g c z q 1 * O o O X         f V _ 9.z   @ 1 : , , > 1   h H.t.O.<Xp.8 0 0 2 & 7 q h pXpXpXpXpXpXpXpXpXpX",
"pXpXpXpXpXpXpX#.# 6 v B p x s 6 1 & O o O - - - # @ X X       : : 1 > 1 < 2 2   7.-X4.6.(.J 1 2 1 w 6 w r j D pXpXpXpXpXpXpXpXpX",
"pXpXpXpXpXpXpXf 2 e v h 6 6 6 6 2 & 2 - X o - ; ; ; ,   _ =XV   6 ; 2 2 0 a   e '.L.w.{ e @ $ q 1 p p f z B C pXpXpXpXpXpXpXpXpX",
"pXpXpXpXpXpX/ O 6 l A e 6 & & < f w & < o o , # > > X   s.yX'.7   X @ @ o   + H.:Xn.l.H   # , a 2 w c h c B N pXpXpXpXpXpXpXpXpX",
"pXpXpXpXpX~ i i / Q h e 5 6 2 # 2 h k g < 2 -         K c.XXoXc.V w h d k ' '.5XY.A.j.K . , : e w 8 h f f v y u pXpXpXpXpXpXpXpX",
"pXpXpXpX#.k / / ..l h p s h p 1 * f m m 2 > z v j B v.j.s.:X:XS.c.{.4X*X6XrX9X'.^.A.b.H X ; & 6 f f y e y s y y N pXpXpXpXpXpXpX",
"pXpXpXpX~ E.$.G z 5 s q k A w 1 w f f f < o f r.U.+X<XF.u.G.n.x.U.9XeXeX9X,X-X].~.G.f.r X 2 6 6 q f e q h 8 9 y B D pXpXpXpXpXpX",
"pXpXpXpX#.E...^ 0 ; 8 6 q h e 8 k f 2 1 * * X Y C.K./.%Xk.q.S.>X1X<X,X5X-X#X@X].I.G.4.: % 2 i e & w e 8 h 8 7 r N [ J pXpXpXpXpX",
"pXpXpXpX$.$./ A $ ; 6 q , , 8 8 1 8 & 1 1 # O k o.u.J.K.F.=X2X5XeX8X1X%X+X].].U.D.S.D . q h f i 1 e h 4 9 q 1 7 N [ Y pXpXpXpXpX",
"pXpXpXpXpXK h e 6 1 7 2 < # & 1 & 1 & 8 0 2 h e F 1.y.Z.k.g.n.m.c.V.c.f.T.R.U.T.T.4.1 1 v A e 8 6 h r 1 $ 1 1 : Z [ C pXpXpXpXpX",
"pXpXpXpXpXpXpXk x t 6 1 1 & # e k t e k h w v h z ] 3.u.-.! %.&.&.,.<.d.T.T.D.H.f.6 w t q t t e 6 e 6 : $ 3 5 3 y T Z pXpXpXpXpX",
"pXpXpXpXpXpXpXpXh v k 7 1 < # q h w 7 w 6 ; : q 8 c { p.w.*.<.N.N.N.N./.U.S.D.k.j   t w ; 8 k p : 1 $ ; # : 6 4 9 9 Y pXpXpXpXpX",
"pXpXpXpXpXpXpXpXpX6 v h 8 8 1 h w 6 6 $ & ; O # 8 f h ] y.e.,.M.m.b.J.K.D.K.g.D o # < < 1 2 q 0 2 ; $ ; # $ $ 6 9 4 Y pXpXpXpXpX",
"pXpXpXpXpXpXpXpXpXpXt z l h h z w w e 9 1 # # > 2 f c g [ C.B.F.!.OX%X+X`.p.} l * # * 2 w 8 9 $ 6 2 # # * # # $ y T I pXpXpXpXpX",
"pXpXpXpXpXpXpXpXpXpXpXe r y h 2 1 q h e 6 5 $ # @ 8 k w q y.%X=X;X6X7X3Xk.X. .t & # 1 w f h w $ 0 1 * 8 q : @ $ 9 / ] T pXpXpXpX",
"pXpXpXpXpXpXpXpXpXpXpXh q 8 q 6 2 ; 7 1 & 6 q & ; q 8 1 @ n i._._._.W.u.3.r.B 1 1 * f 8 k c 2 $ w 8 # f z w 1 $ 9 N  .P pXpXpXpX",
"pXpXpXpXpXpXpXpXpXpXpXpXq q x f & 6 & 6 9 8 v e 1 f 1 # 2 1 l +.y.9.4.7.V.R 6 w & 6 w 6 c b 1 ; w 8 & 8 k e 6 8 j u [ T pXpXpXpX",
"pXpXpXpXpXpXpXpXpXpXpXpXpXh k t 9 6 6 e b 8 k b 6 k f O 0 $ y E u.t.z.A.W f n w 6 1 # 1 k b * 1 t 1 6 $ p h 6 6 A C Z Y pXpXpXpX",
"pXpXpXpXpXpXpXpXpXpXpXpXpX9 f v h q 6 l Y f q A k z c ; 6 6 h R 5.^.~.6.I 0 t y & # @ 1 h b # e k 1 8 1 q x t ; 6 B y I pXpXpXpX",
"pXpXpXpXpXpXpXpXpXpXpXpXpX4 q v e x e x G m p h A c f 6 1 f q R 6.+X~.6.C . t G % # * # k h 2 k f 1 6 w 0 f h 6 7 h 9 u { pXpXpX",
"pXpXpXpXpXpXpXpXpXpXpXpXpXj $ 7 0 s e w c G c t z v t k e f 0 R t.A.~.k.Z . e f @ # # 1 k q w e $ 6 7 e 6 w h 8 6 8 4 4 pXpXpXpX",
"pXpXpXpXpXpXpXpXpXpXpXpXpXpX$ , 5 w 5 ; k G ~ v k p 6 w f p # e [ B.OXg.W & # * : # @ : l e 6 1 $ h h e 6 q q q 6 6 1 4 J pXpXpX",
"pXpXpXpXpXpXpXpXpXpXpXpXpXpXpX$ 3 ; $ 6 h G ^ x t v & + 1 1 $ $ N Z.`.B.l.M @ 2 $ # o w b 8 6 $ & t v 9 6 e : q q 8 t y pXpXpXpX",
"pXpXpXpXpXpXpXpXpXpXpXpXpXpXpX$ $ 1 7 v l A ~ y $ k t 1 # # @ p e i._.k.=XC + 8 ; @ # z q $ & $ & 1 h 6 : e 1 6 w 7 r Z pXpXpXpX",
"pXpXpXpXpXpXpXpXpXpXpXpXpXpXpXpX# 1 9 b f t l e 6 k y 0 ; # @ 1 e i.Q.C.r.5 1 $ 1 @ 1 w $ 1 0 5 6 4 e w $ 7 6 # 6 7 6 u pXpXpXpX",
"pXpXpXpXpXpXpXpXpXpXpXpXpXpXpXpXpXe 7 t 8 & & t k h c g 1 * & # $ Z.Q.4.u : & & 6 & w 6 % p h 5 6 3 t q $ 5 6 $ $ 6 4 u pXpXpXpX",
"pXpXpXpXpXpXpXpXpXpXpXpXpXpXpXpXpXpX8 e 8 # & b k z b t * 1 2 % e $X_.l 4 w 6 w 6 3 w $ 6 v v r $ 6 f e # 6 e 6 # 5 r pXpXpXpXpX",
"pXpXpXpXpXpXpXpXpXpXpXpXpXpXpXpXpXpXpXpX6 # 1 b b f b e & 2 0 @ G 3XZ.e q h p p e e w ; f f k h ; 6 v r $ 6 k q # $ 6 pXpXpXpXpX",
"pXpXpXpXpXpXpXpXpXpXpXpXpXpXpXpXpXpXpXpX& # 2 b v c v h & 1 i ; pXpXr.q n n f f z v q 6 f w f k pXpXpXh 6 6 h 7 $ 1 pXpXpXpXpXpX",
"pXpXpXpXpXpXpXpXpXpXpXpXpXpXpXpXpXpXpXpXpXpXpXb v pXpXpXpXpXpXpXpXpXpX+ g z c f pXpXpXpXpXpXpXpXpXpXpXpXpX$ w 9 pXpXpXpXpXpXpXpX",
"pXpXpXpXpXpXpXpXpXpXpXpXpXpXpXpXpXpXpXpXpXpXpXpXpXpXpXpXpXpXpXpXpXpXpXpXpXpXpXpXpXpXpXpXpXpXpXpXpXpXpXpXpXpXpXpXpXpXpXpXpXpXpXpX",
"pXpXpXpXpXpXpXpXpXpXpXpXpXpXpXpXpXpXpXpXpXpXpXpXpXpXpXpXpXpXpXpXpXpXpXpXpXpXpXpXpXpXpXpXpXpXpXpXpXpXpXpXpXpXpXpXpXpXpXpXpXpXpXpX",
"pXpXpXpXpXpXpXpXpXpXpXpXpXpXpXpXpXpXpXpXpXpXpXpXpXpXpXpXpXpXpXpXpXpXpXpXpXpXpXpXpXpXpXpXpXpXpXpXpXpXpXpXpXpXpXpXpXpXpXpXpXpXpXpX",
"pXpXpXpXpXpXpXpXpXpXpXpXpXpXpXpXpXpXpXpXpXpXpXpXpXpXpXpXpXpXpXpXpXpXpXpXpXpXpXpXpXpXpXpXpXpXpXpXpXpXpXpXpXpXpXpXpXpXpXpXpXpXpXpX"
};
