/* XPM */
static char *result[] = {
/* columns rows colors chars-per-pixel */
"64 64 11 1 ",
"  c #29243A",
". c #383542",
"X c #454448",
"o c #585361",
"O c #64606D",
"+ c #6D7B8B",
"@ c #707382",
"# c #8B8D98",
"$ c #8190A0",
"% c #A2B1BD",
"& c #D9E8EF",
/* pixels */
"                                                                ",
" #$$$XO&&#oO&XX&&#O&OXO&&#oO&XX&&XX&Oo#&&O&XX&Oo&XX&Oo#&&OX$$$# ",
" O+$$O%$$$+$$O$$$$+$%O%$$$+$$O$$$$O+$+++$%$$O+$+$$O+$+++$%O$$+O ",
" &$$+O$$$$$$$O$$$$$$$O$$$$$$$O$$$$O$$$$$$$$$O$$$$$O$$$$$$$O+$$& ",
" O%$OX++$+$$OXO+$$$+OX++$+$$OXO++OXO$$+$+++OXO$$+OXO$$+$++XO$%O ",
" XOOX XOOXOX  XOOOOOX XOOXOX  XOOX  XOXOOXOX  XOOX  XOXOOX XOOX ",
" O%$+X$$$$$$$$$$$$$$$$$$$$$$$$$$$$$$$$$$$$$$$$$$$$$$$$$$$$X+$%O ",
" &$$+O$$$$$$$$$$$$$$$$$$$$$$$$$$$$$$$$$$$$$$$$$$$$$$$$$$$$O+$$& ",
" &$$$O$$$$$$$$$$$$$$$$$$$$$$$$$$$$$$$$$$$$$$$$$$$$$$$$$$$$O$$$& ",
" %$$+X$$$$$$$$$$$$$$$$$$$$$$$$$$$$$$$$$$$$$$$$$$$$$$$$$$$$X+$$% ",
" o+$$O$$$$$$$$$$$$$$$$$$$$$$$$$$$$$$$$$$$$$$$$$$$$$$$$$$$$O$$+o ",
" O$$$X$$$$$$$$$$$$$$$$$$$$$$$$$$$$$$$$$$$$$$$$$$$$$$$$$$$$X$$$O ",
" XOOX $$$$$$$$$$$$$$$$$$$$$$$$$$$$$$$$$$$$$$$$$$$$$$$$$$$$ XOOX ",
" O%$+X$$$$$$$$$$$$$$$$$$$$$$$$$$$$$$$$$$$$$$$$$$$$$$$$$$$$X+$%O ",
" &$$+O$$$$$$$$$$$$$$$$$$$$$$$$$$$$$$$$$$$$$$$$$$$$$$$$$$$$O+$$& ",
" &$$$O$$$$$$$$$$$$$$$$$$$$$$$$$$$$$$$$$$$$$$$$$$$$$$$$$$$$O$$$& ",
" %$$+X$$$$$$$$$$$$$$$$$$$$$$$$$$$$$$$$$$$$$$$$$$$$$$$$$$$$X+$$% ",
" o+$$O$$$$$$$$$$$$$$$$$$$$$$$$$$$$$$$$$$$$$$$$$$$$$$$$$$$$O$$+o ",
" O$$$X$$$$$$$$$$$$$$$$$$$$$$$$$$$$$$$$$$$$$$$$$$$$$$$$$$$$X$$$O ",
" XOOX $$$$$$$$$$$$$$$$$$$$$$$$$$$$$$$$$$$$$$$$$$$$$$$$$$$$ XOOX ",
" %$$OX$$$$$$$$$$$$$$$$$$$$$$$$$$$$$$$$$$$$$$$$$$$$$$$$$$$$XO$$% ",
" %$$OX$$$$$$$$$$$$$$$$$$$$$$$$$$$$$$$$$$$$$$$$$$$$$$$$$$$$XO$$% ",
" &$$+O$$$$$$$$$$$$$$$$$$$$$$$$$$$$$$$$$$$$$$$$$$$$$$$$$$$$O+$$& ",
" &$$$O$$$$$$$$$$$$$$$$$$$$$$$$$$$$$$$$$$$$$$$$$$$$$$$$$$$$O$$$& ",
" #$$$O$$$$$$$$$$$$$$$$$$$$$$$$$$$$$$$$$$$$$$$$$$$$$$$$$$$$O$$$# ",
" O+$$O$$$$$$$$$$$$$$$$$$$$$$$$$$$$$$$$$$$$$$$$$$$$$$$$$$$$O$$+O ",
" &$$+O$$$$$$$$$$$$$$$$$$$$$$$$$$$$$$$$$$$$$$$$$$$$$$$$$$$$O+$$& ",
" O%$OX$$$$$$$$$$$$$$$$$$$$$$$$$$$$$$$$$$$$$$$$$$$$$$$$$$$$XO$%O ",
" XOOX $$$$$$$$$$$$$$$$$$$$$$$$$$$$$$$$$$$$$$$$$$$$$$$$$$$$ XOOX ",
" %$$OX$$$$$$$$$$$$$$$$$$$$$$$$$$$$$$$$$$$$$$$$$$$$$$$$$$$$XO$$% ",
" %$$OX$$$$$$$$$$$$$$$$$$$$$$$$$$$$$$$$$$$$$$$$$$$$$$$$$$$$XO$$% ",
" &$$+O$$$$$$$$$$$$$$$$$$$$$$$$$$$$$$$$$$$$$$$$$$$$$$$$$$$$O+$$& ",
" &$$$O$$$$$$$$$$$$$$$$$$$$$$$$$$$$$$$$$$$$$$$$$$$$$$$$$$$$O$$$& ",
" #$$$O$$$$$$$$$$$$$$$$$$$$$$$$$$$$$$$$$$$$$$$$$$$$$$$$$$$$O$$$# ",
" O+$$O$$$$$$$$$$$$$$$$$$$$$$$$$$$$$$$$$$$$$$$$$$$$$$$$$$$$O$$+O ",
" &$$+O$$$$$$$$$$$$$$$$$$$$$$$$$$$$$$$$$$$$$$$$$$$$$$$$$$$$O+$$& ",
" O%$OX$$$$$$$$$$$$$$$$$$$$$$$$$$$$$$$$$$$$$$$$$$$$$$$$$$$$XO$%O ",
" XOOX $$$$$$$$$$$$$$$$$$$$$$$$$$$$$$$$$$$$$$$$$$$$$$$$$$$$ XOOX ",
" O%$+X$$$$$$$$$$$$$$$$$$$$$$$$$$$$$$$$$$$$$$$$$$$$$$$$$$$$X+$%O ",
" &$$+O$$$$$$$$$$$$$$$$$$$$$$$$$$$$$$$$$$$$$$$$$$$$$$$$$$$$O+$$& ",
" &$$$O$$$$$$$$$$$$$$$$$$$$$$$$$$$$$$$$$$$$$$$$$$$$$$$$$$$$O$$$& ",
" %$$+X$$$$$$$$$$$$$$$$$$$$$$$$$$$$$$$$$$$$$$$$$$$$$$$$$$$$X+$$% ",
" o+$$O$$$$$$$$$$$$$$$$$$$$$$$$$$$$$$$$$$$$$$$$$$$$$$$$$$$$O$$+o ",
" O$$$X$$$$$$$$$$$$$$$$$$$$$$$$$$$$$$$$$$$$$$$$$$$$$$$$$$$$X$$$O ",
" XOOX $$$$$$$$$$$$$$$$$$$$$$$$$$$$$$$$$$$$$$$$$$$$$$$$$$$$ XOOX ",
" %$$OX$$$$$$$$$$$$$$$$$$$$$$$$$$$$$$$$$$$$$$$$$$$$$$$$$$$$XO$$% ",
" %$$OX$$$$$$$$$$$$$$$$$$$$$$$$$$$$$$$$$$$$$$$$$$$$$$$$$$$$XO$$% ",
" &$$+O$$$$$$$$$$$$$$$$$$$$$$$$$$$$$$$$$$$$$$$$$$$$$$$$$$$$O+$$& ",
" OOOXX OOXOX  XOOOOOX XOOXOX  XOOX  XOXOO OX  XOOX  XOXOO XXOOO ",
" &$+OOX+$+$$OXO+$$$+OX++$+$$OXO++OXO$$+$+X+OXO$$+OXO$$+$+XOO+$& ",
" &$$$$O$$$$$$O$$$$$$$O$$$$$$$O$$$$O$$$$$$O$$O$$$$$O$$$$$$O$$$$& ",
" &+$%%O$$$+$$O$$$$+$%O%$$$+$$O$$$$O$$+$$$O$$O$$+$$O$$+$$$O%%$+& ",
" %&&&&X&&#oO&XX&&#O&OXO&&#oO&XX&&XX&Oo#&&X&XX&Oo&XX&Oo#&&X&&&&% ",
" OOOoo.OOOoOOOXOOOOOo.OOOOoOOOXOOXOOOoOOO.OXOOOoOXOOOoOOO.ooOOO ",
" oOooo OOOOOOoXoOOOoo XOOOOOOoXooXoOOOOOO oXoOOOoXoOOOOOO oooOo ",
" . X$$$$X.  XX XX. X$$$$X.  XX XX XX  .X$$X XX  X XX  .X$$$$X . ",
" o.@OOOO@$ X$$@Ooo.@OOOO@$ X$$@OO@$$X $@OOO@$$X O@$$X $@OOOO@.o ",
" oX@OOoOOoX$ooOOOoX@OOoOOoX$ooOOOOoo$XoOOoOOoo$XOOoo$XoOOoOO@Xo ",
" O.OOoOOooXOOooOOO.OOoOOooXOOooOOooOOXooOOOooOOXOooOOXooOOoOO.O ",
" . X.   .X XXXX.X. X.   .X XXXX..XXXX X.  .XXXX .XXXX X.   .X . ",
" O@@OX X$$O@O@XXOO@@OX X$$O@O@XXXX@O@O$$X XX@O@OXX@O@O$$X XO@@O ",
" ooooOXOOoooOO@XoooooOXOOoooOO@XX@OOoooOOXX@OOooX@OOoooOOXOoooo ",
" ooXX. XoooooX. oooXX. XoooooX.  .XoooooX  .Xooo .XoooooX .XXoo ",
"   .     .  X.  X  .     .  X.    .X  .     .X    .X  .     .   "
};
